<svg xmlns="http://www.w3.org/2000/svg" viewBox="0 0 46.19 159"><defs><style>.cls-1{fill:#2DB494;}.cls-2{fill:#99BAB7;}.cls-3{fill:#B91F48;}</style></defs><g id="Ebene_2" data-name="Ebene 2"><g id="Ebene_1-2" data-name="Ebene 1"><path class="cls-1" d="M27.16,159q-1.21-2.1-2.33-4.07c-.26-.44-.52-.88-.76-1.31-.39-.66-.77-1.32-1.12-2-.25-.43-.49-.86-.72-1.3C11.67,131.52,4,122.07,8.15,115.24a17.63,17.63,0,0,1,3.67-4.18.3.3,0,0,0,.08-.08,30.56,30.56,0,0,1,3.53-2.53l.31-.19a89.86,89.86,0,0,1,12.49-5.93c6.63-2.75,13.47-5.58,13.72-9,.22-3-1.12-4.82-9.26-15.42l-2.8-3.66c-1.39-1.82-2.73-3.53-4-5.14-7.73-10-12.4-16-11-21.09,1.11-4.07,6-6.69,11.25-9.47s11.37-6,12.85-10.72l.06-.18c.06-.22.12-.44.17-.67,0-.07,0-.16,0-.24,1.2-7.25-3-16.23-12.58-26.77H32.3c8.82,10.49,12.47,19.57,11.12,27.56-1.24,7.25-8.71,11.23-15.29,14.74-4.19,2.23-8.53,4.55-9.16,6.86-.86,3.09,4.05,9.41,10.26,17.39q1.9,2.43,4,5.17L36,75.37C44.69,86.66,46.49,89,46.15,93.66c-.44,6-7.79,9-16.32,12.55-7,2.92-15,6.22-18.09,11.23-3.69,6,6.54,17.93,20.29,41.56H27.22"/><path class="cls-2" d="M22.32,159H15.44c-12.74-22.74-19-40.46-13.39-49.23C6.89,102.18,16,99.42,23.27,97.21c5.56-1.68,10.36-3.14,10.88-5.86a20,20,0,0,0-3.09-3.57,108.74,108.74,0,0,1-9.83-11.32c-12-16-16-24.12-14.29-29.09C9.3,40.54,15.15,37.58,20.31,35c4.49-2.27,8.73-4.41,10.46-8.77C32.43,22,32.48,16.84,15,0h6l.28.28c14.51,14.6,16,21.07,13.44,27.49-2.32,5.83-7.49,8.44-12.48,11s-9.49,4.79-11.29,10c-1.65,4.78,9.89,20.13,13.67,25.17a104.35,104.35,0,0,0,9.49,10.92c2.88,3,4.62,4.74,4.24,7.11-.86,5.37-6.87,7.19-13.83,9.29S9.6,105.76,5.61,112c-3.77,5.92,2,21.27,16.78,47"/><path class="cls-3" d="M21.27,159C6.77,134.44-.08,120.69,5.32,112.22,9.94,105,18.43,102,25.92,99.49c6.24-2.14,11.64-4,12.1-7.61.22-1.61-.71-2.75-4.29-6.83-2.29-2.61-5.42-6.19-9.55-11.59L23,72c-9.12-11.92-13.7-17.9-12.28-23.54,1.57-6.25,7.33-9.17,12.89-12,5-2.51,9.68-4.9,11.22-9.37C37,20.88,32.29,11.67,21.25.28L21,0h5.8c9.9,10.81,14,19.63,12.5,26.77,0,.08,0,.17,0,.24-.06.23-.11.45-.17.67l-.06.18c0,.19-.09.38-.15.57-2.1,6.1-7.79,9-13.29,11.77-4.94,2.51-9.62,4.88-10.71,9.26-.93,3.67,3.77,9.8,11.54,20l1.13,1.48c4,5.29,7.12,8.81,9.38,11.38,4,4.52,5.76,6.57,5.3,10.14-.8,6.21-7.66,8.56-14.93,11a64.36,64.36,0,0,0-11.53,4.79l-.31.19A21.94,21.94,0,0,0,11.9,111a.3.3,0,0,1-.08.08,16.31,16.31,0,0,0-2.94,3.42C5,120.58,12,131.84,22.23,150.35c.23.44.47.87.72,1.3.35.65.73,1.31,1.12,2,.24.43.5.87.76,1.31q1.14,2,2.39,4.07"/></g></g></svg>