<?xml version="1.0" encoding="utf-8"?>
<!-- Generator: Adobe Illustrator 24.3.0, SVG Export Plug-In . SVG Version: 6.00 Build 0)  -->
<svg version="1.1" id="Ebene_1" xmlns="http://www.w3.org/2000/svg" xmlns:xlink="http://www.w3.org/1999/xlink" x="0px" y="0px"
	 viewBox="0 0 1621 1080" style="enable-background:new 0 0 1621 1080;" xml:space="preserve">
<style type="text/css">
	.st0{fill:#249CFF;}
	.st1{fill:#CE4A21;}
	.st2{fill:#C192CC;}
	.st3{fill:#FBB03B;}
	.st4{fill:#F4BDBA;}
	.st5{fill:#38AD4E;}
	.st6{fill:#2F8944;}
	.st7{fill:#FF3333;}
	.st8{fill:#FFCA45;}
	.st9{fill:#D68080;}
	.st10{fill:#3A3432;}
	.st11{fill:#EFA09E;}
	.st12{fill:#5A322C;}
	.st13{fill:#FFB680;}
	.st14{fill:#ED8A40;}
	.st15{fill:#FF5622;}
	.st16{fill:#D11313;}
	.st17{fill:#FFFFFF;}
</style>
<rect x="0" y="0" class="st0" width="1621" height="1080"/>
<g>
	<path class="st1" d="M1523.6,0.1l23.7,0c14.6,102.4-60.5,300.6,73.7,334.2v92.9C1452.6,349.9,1539.7,118.1,1523.6,0.1z"/>
	<path class="st2" d="M1362.9,29.8c7.2,79.3-10.4,146.1-61.8,197.5c-93,93,126,393.2-200.4,393.2c-158.5,0-267-159.2-261.9-312.5
		c2.8-82.4,43.3-162.2,31.8-245.4c-2.2-16.2-12.6-40-27.5-62.4l52.8,0c12.2,18.9,21.4,36,23.7,42.6c24.8,70.6-0.3,132.8-9.1,203.2
		c-14.7,118.2,42.1,262.4,165.4,286c57.5,11,134.7-9.8,159.3-71.7c27-68-25.4-140.4-8.2-210.9c14.4-59.1,70-91.2,88.5-148.7
		c10.7-33.5,10.2-68.8-0.5-100.5h43.3C1360.3,8.8,1361.9,18.6,1362.9,29.8z"/>
	<path class="st1" d="M1315.4,100.6c-18.5,57.5-74.1,89.6-88.5,148.7c-17.1,70.4,35.3,142.9,8.2,210.9
		c-24.6,61.9-101.7,82.7-159.3,71.7c-123.3-23.6-180.2-167.8-165.4-286c8.8-70.4,33.9-132.6,9.1-203.2C917.2,36.2,908,19,895.8,0.1
		h35.2c38.4,37,61.8,93.2,51.3,161.9c-15.1,98.3-20.7,293.6,105.4,276.2c178.1-24.5,50.1-225.6,125.7-277.3
		c49.8-34.1,63.4-96.9,26.6-160.8h74.9C1325.6,31.8,1326.2,67.1,1315.4,100.6z"/>
	<path class="st3" d="M1213.3,160.9c-75.6,51.7,52.4,252.8-125.7,277.3c-126,17.3-120.5-177.9-105.4-276.2
		c10.5-68.7-12.9-124.9-51.3-161.9h55.7C1083,118,982,300,1050.1,343.8c60.7,39.1,108.7-40.4,87.7-131.2
		c-28.2-121.8,104.8-119.3,55.8-212.6l46.4,0C1276.8,64.1,1263.1,126.9,1213.3,160.9z"/>
	<path class="st3" d="M1547.3,0.1h73.7v334.2C1486.8,300.7,1561.9,102.5,1547.3,0.1z"/>
	<path class="st2" d="M1527.2,450.8C1387.7,337,1477,157,1467.1,0.1h29c21.3,92.6-37.6,262.9,6.2,345.7
		c30.5,57.8,78.7,94.3,118.7,162.5v36.9C1602,519.2,1572.5,487.8,1527.2,450.8z"/>
	<path class="st2" d="M1568.2,882.2c23.4-26.9,40.5-53.8,52.8-79.4v94.3c-41.5,40.2-57.1,119.2-55.4,183.5h-49.2
		C1510.8,1016,1518.4,939.3,1568.2,882.2z"/>
	<path class="st1" d="M1493.8,737.6c0-139.1-182.3-169.6-182.3-324.2c0-145.6,120.6-223.9,66.6-413.2h31
		c46.8,190.1-81.5,293.4-25.3,431.2c65.5,160.8,291.8,228.4,126.8,423.9c-72.5,85.9-95.8,164.4-99.1,225.4h-39.2
		C1381.8,928.6,1493.8,903,1493.8,737.6z"/>
	<path class="st3" d="M1383.7,431.3c-56.2-137.9,72.1-241.1,25.3-431.2h58.1c9.9,156.9-79.4,336.9,60,450.7
		c45.3,37,74.8,68.4,93.8,94.4v257.6c-12.3,25.6-29.4,52.5-52.8,79.4c-49.8,57.1-57.4,133.8-51.8,198.5h-105.1
		c3.3-61,26.5-139.5,99.1-225.4C1675.5,659.8,1449.2,592.1,1383.7,431.3z"/>
	<path class="st1" d="M1148.4,665.9c-181,58.4-297-25.6-351.1-104.4c-54.1-78.8-52.8-159.8-11.4-319.4
		c30.3-117.1,5.9-203.9-9.3-241.9h10.8c52.2,85.1,42.9,225.3,10.4,335.8c-42,143,102.5,349.4,285,315.6
		c182.5-33.8,289.7-24.8,327.9,97.2c29.3,93.8-72.3,189.5-94.9,332.1h-26.7c6.7-45.1,21.6-90.8,48.9-133.9
		C1461.9,750,1329.4,607.5,1148.4,665.9z"/>
	<path class="st3" d="M1057.7,884.3c5.8-141.9-203.2-85.4-317-235.6c-179.9-237.4,40.6-489.8-54-648.5h23.1
		c107.8,188.5-97,345.3,30.9,601.7c90.5,181.4,359.1,108.3,357.1,283.6c-1.7,148.7-69.8,134.3-118.9,195.2h-40.6
		C961.8,979.2,1052.7,1007.8,1057.7,884.3z"/>
	<path class="st2" d="M1097.9,885.4c2-175.3-266.6-102.2-357.1-283.6C612.9,345.4,817.6,188.6,709.9,0.1l66.6,0
		c15.2,38,39.6,124.9,9.3,241.9c-41.3,159.6-42.7,240.7,11.4,319.4c54.1,78.8,170.1,162.9,351.1,104.4
		c181-58.4,313.6,84.1,189.6,280.8c-27.2,43.2-42.1,88.9-48.9,133.9h-80.5c13.6-57.2,50.6-109.2,92.5-167.2
		c31.1-43.1,68.1-112.6,40.3-166.4c-23.4-45.1-97.3-68.4-144.1-49.9c-117.3,46.4-10,210.6-68.9,295.8
		c-25.2,36.5-64.6,59.6-98.9,87.7H979C1028.1,1019.8,1096.3,1034.1,1097.9,885.4z"/>
	<path class="st3" d="M1128.3,993c58.9-85.1-48.4-249.3,68.9-295.8c46.9-18.6,120.8,4.8,144.1,49.9c27.9,53.8-9.1,123.3-40.3,166.4
		c-41.9,58-78.9,110-92.5,167.2h-27.7c17.6-48.4,46.8-95.4,69.1-139.2c21.5-42.3,64.4-95.3,59.5-143.9
		c-4.7-46.5-55.8-91.6-99.2-56.5c-73.7,59.6,0.9,207-75,282.7c-22.3,22.3-47.2,37.1-68.6,56.9h-37.2
		C1063.8,1052.6,1103.1,1029.4,1128.3,993z"/>
	<path class="st2" d="M858.9,1003.2c12.5-57.7,28.5-114-23.1-157.8c-40.2-34.2-100.9-34.4-147.4-53.3
		c-57.6-23.4-95.1-69.8-117.1-127.2c-50.8-132.7-13.4-257.5,31-384.7c23.4-67.1,63.3-210.8,18.3-280.1h24.2
		c22.4,29,30.3,66.8,33.7,102.6c9.1,97.3-32.5,171.1-50.5,261.7c-38.4,193.2-7.6,363.6,206.8,413.8c99.5,23.3,189,85.8,104.5,192.7
		c-26.9,34-39.3,74.1-44.4,109.7h-44.8C849.6,1055.7,852.9,1030.5,858.9,1003.2z"/>
	<path class="st1" d="M564.2,809.7c-86.6-81-185.6-133.3-207.7-261.6c-19.1-110.5,30.2-203,97.6-284.8c61-74,126.1-170.7,82.5-263.1
		l25.1,0c70.6,216.3-201.9,361.1-129.4,584.5c34.3,105.8,91.4,137.5,174,200.1c86.1,65.2,109.6,170.5,85.9,273.2
		c-1.8,7.6-3.7,15.2-5.7,22.8h-49.1C673.6,991.1,628.6,869.9,564.2,809.7z"/>
	<path class="st3" d="M606.3,784.7c-82.5-62.6-139.6-94.3-174-200.1c-72.5-223.4,200-368.2,129.4-584.5h58.8
		c45.1,69.2,5.1,213-18.3,280.1c-44.4,127.2-81.8,252-31,384.7c22,57.4,59.5,103.9,117.1,127.2c46.5,18.9,107.2,19.1,147.4,53.3
		c51.6,43.8,35.6,100.1,23.1,157.8c-5.9,27.2-9.3,52.4-8.7,77.4H686.5c2.1-7.6,4-15.2,5.7-22.8C716,955.1,692.4,849.9,606.3,784.7z"
		/>
	<path class="st3" d="M344.9,794.8c-149.1-125.1-146.7-347.8-3.6-503.3C434.4,190.3,485.2,118.7,454.7,0.1h32.2
		c2.2,13.5,3.3,26.8,4.2,38.4c5.9,74.2-13.5,138.5-60.6,196.5c-41.3,50.9-88.9,86-114.4,148.7c-25.6,63-37.1,148.2-22.2,215.3
		c30.8,138.5,176,190.2,229.4,313.8c10.2,23.6,34.6,103.3,41.7,167.8H502C504.4,974.7,461.1,892.3,344.9,794.8z"/>
	<path class="st2" d="M315.4,836.8c-78.8-98.3-151.2-160.7-131.9-300.4c18.2-131.1,106.7-211.9,186.6-307.8
		C423,165.2,444.3,77.5,420.8,0.1h33.9c30.5,118.6-20.3,190.2-113.4,291.4c-143.1,155.5-145.5,378.2,3.6,503.3
		c116.3,97.5,159.5,179.9,157.1,285.8H357.4C383.3,998.3,372,907.3,315.4,836.8z"/>
	<path class="st2" d="M402,55c-2.9,26.6-12.7,52.8-27.6,75.6c-26.2,40.3-67.1,68.1-102.3,100.7c-39.7,36.8-70.7,82.6-84.5,133.7
		c-13.9,51.6-17.8,108.2-55.3,150.8c-31.4,35.6-82.7,54.3-129.1,32.9c-1-0.5-2.1-1-3.1-1.5V491c32.7,1.5,66-8.9,88.7-31.8
		c19.9-20.1,33.8-47.7,41.8-74.6c9.9-33.5,4.6-71,20.7-102.7c14.8-29.1,35.3-54.5,59.7-76.1c21.5-19.1,46.1-34.3,67.7-53.2
		c21-18.3,38.4-41,45.7-68.3c7.3-27,5.7-57-1.9-84.2l72.4,0C401,17.9,404,36.8,402,55z"/>
	<path class="st1" d="M324.5,84.3c-7.3,27.3-24.7,50-45.7,68.3c-21.7,18.9-46.2,34.1-67.7,53.2c-24.4,21.6-44.9,47-59.7,76.1
		c-16.1,31.7-10.8,69.2-20.7,102.7c-8,26.9-21.9,54.5-41.8,74.6c-22.7,23-55.9,33.3-88.7,31.8l0-77.7c37-20.4,59.9-60.5,70.2-101.7
		c12.5-50.4,12.2-107.9,47.3-149.7c18.3-21.8,43.7-33.8,63.7-53.3c18.6-18.1,26.7-41.9,28.3-67.3c0.9-13.9,0.4-27.6-1.3-41.2
		l114.2,0C330.2,27.3,331.7,57.3,324.5,84.3z"/>
	<path class="st3" d="M209.7,41.3c-1.6,25.4-9.8,49.2-28.3,67.3c-20,19.5-45.4,31.5-63.7,53.3c-35.1,41.8-34.8,99.2-47.3,149.7
		c-10.3,41.3-33.2,81.3-70.2,101.7l0-413.2l208.2,0C210.1,13.7,210.6,27.5,209.7,41.3z"/>
	<path class="st2" d="M282.5,1062.5c5.1-23.7,2.3-48.5-9.4-69.9c-13-23.8-35.4-39.1-59.9-49.3c-13.3-5.6-27.1-9.9-40.5-15
		c-11.7-4.5-24.3-9.4-32.6-19.2c-14.1-16.7-17.1-41.3-21.5-61.9c-9.8-44.9-14.4-93.4-54.1-123.2c-18.3-13.7-40.7-21.8-64.2-25.1
		v-92.9c11-1.9,22.1-2.5,33-1.5c29.5,2.9,59.4,15.9,81.7,35.5c20.6,18,30.3,44.4,40,69.2c11.7,30.1,21.4,60.9,33.3,90.9
		c8.6,21.8,18.3,40.1,35.6,56.1c28.1,26,64,43.2,88.3,73.3c29.5,36.5,33,86.5,20.1,130.5c-2.1,7.2-4.7,14-7.7,20.5h-47.2
		C279.4,1074.7,281.1,1068.7,282.5,1062.5z"/>
	<path class="st1" d="M118.5,847.1c4.5,20.6,7.5,45.2,21.5,61.9c8.3,9.8,20.9,14.8,32.6,19.2c13.5,5.1,27.2,9.5,40.5,15
		c24.5,10.2,46.9,25.5,59.9,49.3c11.7,21.4,14.5,46.1,9.4,69.9c-1.3,6.2-3.1,12.3-5.2,18.2H0.2l0-381.9c23.5,3.3,46,11.4,64.2,25.1
		C104.1,753.7,108.7,802.2,118.5,847.1z"/>
	<path class="st3" d="M13.2,769.1c23.1,12.6,40,35.1,47.4,60.2c8.7,29.9,1.5,61.4-0.9,91.7c-1.1,14.5-1.3,29.2,1.8,43.5
		c2.5,11.5,6.6,23.9,14.3,33c11.5,13.8,28.8,13.5,45,9.8c18.5-4.3,37.5-13,56.9-10.7c11.4,1.3,23.2,7.1,32.7,13.4
		c8.1,5.4,15.2,12.3,20,20.8c8.6,15.2,8.6,33.2,4,49.7H0.2l0-317.3C4.6,764.9,9,766.8,13.2,769.1z"/>
</g>
<g>
	<path class="st4" d="M209,911.5c0,0-24.1,3-40.2,9.9c-14.8,6.3-21.7,14.7-28.1,27.9c-6.2,12.8,4.6,13.8,9.6,6
		c5-7.8,6.9-19.1,34.5-21.4c27.6-2.3,33.2,0.5,33.2,0.5L209,911.5z"/>
	<path class="st5" d="M279.9,723.6c0,0-19.6,21.8-34.8,63.1c-8.1,22-5.6,35.1-32.3,77.4c-15.1,24-14.6,56.8-17.5,88.4
		c20.6-9.9,35.4-8.1,54.5,3.9c11.4,7.2,27.2-3,31.9-1.1c48.9,19.8,85.5-9.1,85.5-9.1s9.3-80.8,10.7-113.1c1.4-32.3-8.8-86-8.8-86
		L279.9,723.6z"/>
	<path class="st6" d="M227.9,945.3c0,0,4.9-13.5,20-9.5s28.4,8.3,53.7,3.8c27.5-4.9,61.4-29.3,65.6-44.4c4.2-15.1,5.7-27.4,5.7-27.4
		s-2.5,74-5.7,78.4c-3.2,4.4-15.4,33.3-68.4,24.9C245.8,962.7,227.9,945.3,227.9,945.3z"/>
	<path class="st7" d="M363.5,631.6c0,0,10,3.2,19.4,11.6c9.4,8.4,18.2,80.5,18.2,80.5h-19.7L363.5,631.6z"/>
	<path class="st5" d="M369.2,640.8c0,0,7.9-1.8,13.7,15.8c5.8,17.5,9.1,93.1,9.1,93.1s-18.9,4.8-22.7-2.6
		C365.3,739.7,369.2,640.8,369.2,640.8z"/>
	<path class="st8" d="M221,850.6c0,0-3,46.6,27.9,65.5c30.9,18.9,95.7-2.4,113-28.5c17.2-26.1,14.8-28.4,14.8-28.4l-19.2,5.7
		c0,0-19,46.6-74.4,46.6c-55.4,0-57.6-69-57.6-69L221,850.6z"/>
	<path class="st8" d="M255.8,761.7c0,0,24.8,64,73.5,66c37.8,1.5,48.7-23,48.7-23l1.6-10.8c0,0-33,37.9-67.3,20.7
		c-34.3-17.2-54-57.9-54-57.9L255.8,761.7z"/>
	<path class="st6" d="M230.7,831.6c0,0,5,35.6,31.5,51.3c26.5,15.7,63.4,10.2,80-7.7c16.6-17.9,27-24.7,27-24.7s-2.7,2.9-5.1,3.8
		c-2.3,0.9-25.2,7.9-41.8,4.8c-30.1-5.6-62.5-37.9-62.5-37.9L230.7,831.6z"/>
	<path class="st9" d="M295.2,726.8c0,0,3.1,23.7,33.1,25.6c30,1.9,40.9-18.4,40.9-18.4s0-34.3-1.9-35.4c-1.9-1.1-72.1-3.9-72.1-3.9
		V726.8z"/>
	<path class="st10" d="M374.8,636.1c0,0,4.8,43.7,6.2,78c1.4,34.3,6.1,83.1-7.6,99.1c-2.2-8.1-5.4-23.6-5.4-23.6
		s-3.3,19.6-12.1,23.6c-1-48.3,2-127.4,0-150c-2-22.6-4.2-41.6-4.2-41.6L374.8,636.1z"/>
	<path class="st11" d="M311,711.6c0,0,4.3,9.7,17.3,10.7c13.1,1,18.9-11.3,18.9-11.3l-18.7-16.3L311,711.6z"/>
	<g>
		<path class="st4" d="M350.9,680.8c1.3-7.3,8.2-10.5,13.3-15.1c0.3-0.9,0.6-1.8,0.9-2.8c3.8-11.9,2.8-24.3-3.6-35.2
			c-11.1-19-38.8-27.3-57.7-14.4c-16.1,10.9-17.3,33-10.7,50.6c5,5.6,13.5,8.7,15,16.9c1.3,7.2-4.8,15.4-7.8,21.4
			c-0.4,0.8-1.1,1.2-1.8,1.4c0.2,1.3,0.5,2.7,1,4c5.8,15.2,22.6,9.5,28.4-0.8c5.9,11.3,20.7,19.3,28.4,4.3c1.5-3,1.9-6.3,1.9-9.6
			C355.2,695.4,349.6,687.7,350.9,680.8z"/>
		<path class="st11" d="M357.6,688c0.4-8.3,3.8-14.8,6.5-22.3c-5.1,4.6-11.9,7.8-13.3,15.1c-1.2,6.9,4.3,14.6,7.3,20.6
			C358.2,696.9,357.4,692.3,357.6,688z"/>
		<path class="st11" d="M300.3,702.2c2.9-6.1,9-14.2,7.8-21.4c-1.5-8.2-9.9-11.2-15-16.9c0.5,1.3,1,2.5,1.6,3.8c1.7,6.9,4,14.8,4,22
			c0,4.7-0.8,9.3-0.2,13.9C299.3,703.5,299.9,703,300.3,702.2z"/>
	</g>
	<path class="st10" d="M376.6,636.2c0,0,4.5-31.3-39.1-40.2c-35.1-7.2-52.9,7.1-53.9,19c-1,12,85.7,21.1,85.7,21.1L376.6,636.2z"/>
	<path class="st10" d="M283.5,615c0,0-5.7,64.8-7.1,99.1c-1.4,34.3-6.1,83.1,7.6,99.1c2.2-8.1,5.4-23.6,5.4-23.6s3.3,19.6,12.1,23.6
		c1-48.3-2-127.4,0-150c2-22.6,4.2-41.6,4.2-41.6L283.5,615z"/>
	<path class="st5" d="M281.8,636.1c0,0,44.2,0.8,56.7,3.1c12.5,2.3,38.3,10.8,38.1,8.6c-0.2-2.3,0-11.7,0-11.7s-14-9-45.1-14.6
		c-31.1-5.5-48-6.6-48-6.6L281.8,636.1z"/>
	<g>
		<path class="st10" d="M324.5,654l-2.2-0.7c0.9-2.9,4.2-8.3,10.3-7.4c6,0.9,7.7,5.4,7.8,7.7l-2.3,0.1c0-0.2-0.3-4.7-5.8-5.5
			C326.7,647.4,324.6,653.7,324.5,654z"/>
	</g>
	<g>
		<polygon class="st10" points="358.9,653.5 358.2,651.2 368.5,647.9 369.2,650.1 		"/>
	</g>
	<circle class="st7" cx="313.8" cy="651.1" r="12.2"/>
	<circle class="st7" cx="349.7" cy="651.1" r="12.2"/>
	<path class="st7" d="M282.5,626.9l1-12c0,0,37.3-4.9,58.4,1.9c21.1,6.8,34.6,19.3,34.6,19.3l0,2.7
		C376.5,638.9,339.4,621.8,282.5,626.9z"/>
	<path class="st12" d="M330.6,684.9c-2.7,0-11.1,1-13,4.9c-1.6,3.2-1.9,8.8,3.5,9c0.8,0,3.9-0.8,4,1.8c0.1,2.6,2.9,4.9,4.8,3.7
		c1.7-1.2,2-2.7,3.4-4.3c1-1.1,3.6,0.3,5-0.3c2.2-0.9,4.2-3.6,3.9-6.1C341.1,686.5,335.6,685,330.6,684.9z"/>
	<path class="st4" d="M284.6,840.8l30.3,9.1c0,0-3.9,92.4-2.8,106.2c1,13.8,11.4,18.7,16.5,32.5c4.2,11.4,0,13.9,0,13.9
		s-23.7,13.3-34.3-5.3c-10.7-18.5-8.5-37.8-10.6-47.7C281.5,939.8,284.6,840.8,284.6,840.8z"/>
	<path class="st4" d="M350.8,855.5l28.9-17.1c0,0-2.7,91.1-1.7,104.9c1,13.8,9.3,19.4,15,33c3.7,8.8,0.5,16.1,0.5,16.1
		s-26,6.4-33.3-7.8c-9.8-19-8.5-34.7-8.5-44.8C351.6,925.5,350.8,855.5,350.8,855.5z"/>
	<path class="st7" d="M259.8,821.3c0,0,5.1,13.4,21.9,26c19.9,14.9,47.6,12.4,47.6,12.4V850c0,0-37.5-3.8-47.6-13.9
		c-10.5-10.5-17.7-23.8-17.7-23.8L259.8,821.3z"/>
	<path class="st7" d="M347.2,849v10.8c0,0,21.2-3,29.4-10.8c8.2-7.8,1.3-32.1,1.3-32.1s-0.7,20.7-10.6,25.3
		C357.3,846.7,347.2,849,347.2,849z"/>
	<path class="st4" d="M212.9,948.5c0,0,2.1,12.3,15.8,29.4c13.7,17.1,21.1,20.8,31.1,20.8c10.1,0,13.7-8.9,10-17.7
		c-3.6-8.8-27.8-32.5-27.8-32.5S222.7,928.5,212.9,948.5z"/>
	<path class="st7" d="M196,946v9c0,0,12.4,2.5,31.9-6.5c12.7-5.8,31.9,2.4,31.9,2.4s-8.2-13.6-17.8-15.1
		C219.8,932.4,196,946,196,946z"/>
	<path class="st9" d="M391.3,986.1c-0.5-3.9-4-7.7-6.8-9.8c0.8,3,3,5.4,3.8,8.5c0.5,1.8,0.6,3.7,0,5.5c-0.5,1.6-0.9,1.6-0.8,3.1
		c0.9,0,2.5-0.7,3.2-2C391.6,989.8,391.5,987.6,391.3,986.1z"/>
	<path class="st9" d="M376.7,979.7c0,3.8,1.6,9.1,0.4,13.7c0.5,0.4,3.6-1.5,3.7-4.7C380.9,985.8,378.1,981.8,376.7,979.7z"/>
	<path class="st9" d="M327.1,996.4c-0.5-3.9-4-7.7-6.8-9.8c0.8,3,3,5.4,3.8,8.5c0.5,1.8,0.6,3.7,0,5.5c-0.5,1.6-0.9,1.6-0.8,3.1
		c0.9,0,2.5-0.7,3.2-2C327.4,1000.1,327.3,997.8,327.1,996.4z"/>
	<path class="st9" d="M313.1,993.4c0,3.8,1.6,9.1,0.4,13.7c0.5,0.4,3.6-1.5,3.7-4.7C317.3,999.5,314.5,995.4,313.1,993.4z"/>
	<path class="st9" d="M269,989c-0.5-3.9-4-7.7-6.8-9.8c0.8,3,3,5.4,3.8,8.5c0.5,1.8,0.6,3.7,0,5.5c-0.5,1.6-0.9,1.6-0.8,3.1
		c0.9,0,2.5-0.7,3.2-2C269.3,992.7,269.2,990.4,269,989z"/>
	<path class="st9" d="M256.5,984.3c0,3.8,1.6,9.1,0.4,13.7c0.5,0.4,3.6-1.5,3.7-4.7C260.8,990.4,258,986.3,256.5,984.3z"/>
</g>
<g>
	<path class="st12" d="M1354,490.1c0,0-50.7-3.2-51.2,33.1v14.2c0,0,0.6,24.3-2.4,33.2c-2.9,8.9-30.3,37.1-37.5,50.5
		c-9.1,17-1.6,61.4,30.6,76.4c32.2,14.9,65.2-7.5,64.8-10C1358.1,684.8,1354,490.1,1354,490.1z"/>
	<path class="st12" d="M1354,490.1c0,0,49.4-3.2,50,33.1v14.2c0,0-0.6,24.3,2.4,33.2c2.9,8.9,30.3,37.1,37.5,50.5
		c9.1,17,1.6,61.4-30.6,76.4s-65.2-7.5-64.8-10C1348.7,684.8,1354,490.1,1354,490.1z"/>
	<path class="st13" d="M1210.4,773.9c0,0,10.4,4.5,31.5,4.5c11.5,0,31.5-31.9,31.5-31.9l-42.6-24L1210.4,773.9z"/>
	<path class="st13" d="M1493.2,773.9c0,0-10.4,4.5-31.5,4.5c-11.5,0-31.5-31.9-31.5-31.9l42.6-24L1493.2,773.9z"/>
	<g>
		<g>
			<path class="st14" d="M1354,631.3c8.2-0.2,14.5-6.6,19.1-13.8c-1.2-0.6-2.1-1-2.3-1.3c-1-10.7,0.1-23,0.1-23l-36.2-0.3
				c0,0-0.2,13.6-2,24.4c-0.4,0.3-1.3,0.7-2.4,1.3C1333.2,623.1,1340.5,631.6,1354,631.3z"/>
			<path class="st13" d="M1345.5,753.5c1.5,0,13.4-4.4,17.5-4.2c31.6,1.5,37.6-120.3,34-121.4c-1.6-0.5-17.7-7.3-23.8-10.4
				c-4.6,7.2-10.9,13.6-19.1,13.8c-13.5,0.3-20.8-8.2-23.7-12.8c-7.2,3.3-26.3,10.1-26.3,10.1
				C1302.8,644.8,1322.3,747.6,1345.5,753.5z"/>
		</g>
		<g>
			<path class="st13" d="M1401.1,548.3c-1-5.8-7.1-5-9.1-4.5c-2.8-24.5-17.1-39.9-36.3-40.6c-19.6-0.7-35,15.9-39.1,40.7
				c-1.9-0.6-7.9-2-9.5,3.8c-2,6.9,1.1,17.5,8.8,20.4c0,0,0,0,0.1,0c0.5,4.4,1.4,8.6,3,12.3c7.7,18.2,22.2,32.2,32.7,32.6
				c10.8,0.4,25.1-11.9,33.9-30.2c1.7-3.6,3.6-10.5,4.8-14.7C1390.6,568.1,1404.1,565.2,1401.1,548.3z"/>
		</g>
		<g>
			<path class="st15" d="M1426.6,800.4c-6.7-21.7-12.6-39.6-12.9-41.7c0-22.4,1.5-44.5,1.5-44.5l15.2,34.4
				c15.9,1.2,31.9-7.8,43.7-22.3c-14.3-30-28-70.3-36.9-77.8c-8.4-7.1-26.2-15.1-40.2-20.7c-14.7,18.6-73.9,23.2-91.5,0.1
				c-13.9,5.6-31.6,13.6-39.9,20.6c-8.1,6.9-21,45.4-34.9,74c6.6,14.2,22.5,23.3,42.6,24l14.3-32.3c0,0-0.3,20.7-0.3,44.5
				c-0.4,2.8-4.2,18.3-8.5,38.3c17,10.5,46.1,24.6,79.5,24.6C1389.9,821.6,1412.3,810.7,1426.6,800.4z"/>
			<path class="st8" d="M1445.5,874.5c-2.2-17.6-11-48.6-18.9-74.1c-14.3,10.2-36.7,21.1-68.2,21.1c-33.4,0-62.5-14.1-79.5-24.6
				c-5.1,24-10.7,54.4-12,77.5H1445.5z"/>
		</g>
	</g>
	<g>
		<path class="st14" d="M1384.5,914.5c0,0-8.3,2.9-20.3,5.5c-11.9,2.5-16.7,13.8-11.5,29.6c5.2,15.7,2.7,28.3,6.5,41.5
			c3.8,13.2,12.2,15.7,17.7,14.5c5.5-1.3,2.9-17,4.3-28.9c2.8-25.2,15.7-31.5,15.7-31.5L1384.5,914.5z"/>
	</g>
	<g>
		<path class="st13" d="M1316.2,899.8c0,0,22.6,23.9,34.5,26.4c11.9,2.5,16.7,13.8,11.5,29.6c-5.2,15.7-2.7,28.3-6.5,41.5
			c-3.8,13.2-12.2,15.7-17.7,14.5c-5.5-1.3-2.9-17-4.3-28.9c-2.8-25.2-33.2-49.2-33.2-49.2L1316.2,899.8z"/>
	</g>
	<path class="st7" d="M1180.1,835.3c-21.2,10.8-27,37.7-17.3,55.9c17.3,32.5,0.9,29.4,14.9,45.6c14.9,17.3-3.3,20-3.1,29.1
		c0.5,30.3,68.8,41.1,105.6,29.9c36.8-11.2,18.6-53.7,62.7-62.9c44.1-9.2,61.3,40.5,79.7,51.1c18.4,10.7,58.4,19.1,92.5-8.1
		c25.4-20.2-26.2-21.5-1-31.5c25.2-10,9-23.7,27.7-50.1c19.3-27.4-14.1-73.9-49.5-65.4c-18.1,4.3-94.8,35.5-136.5,35.5
		C1314.2,864.3,1222.6,813.6,1180.1,835.3z"/>
	<path class="st16" d="M1326.3,904.1c-27.4,8-48.8,18.7-79,14.3c-27-4-53-27.2-71.5-32.5C1198.5,921.3,1259.1,961.3,1326.3,904.1z"
		/>
	<path class="st16" d="M1322.1,924.9c-18.6,8.5-31.4,17.8-49.8,27.1c-22.8,11.6-47.3,13-68.5,6
		C1239.1,992.2,1281.5,973.4,1322.1,924.9z"/>
	<path class="st16" d="M1382.1,904.1c27.4,8,48.8,18.7,79,14.3c27-4,53-27.2,71.5-32.5C1509.9,921.3,1449.2,961.3,1382.1,904.1z"/>
	<path class="st16" d="M1386.3,924.9c18.6,8.5,31.4,17.8,49.8,27.1c22.8,11.6,47.3,13,68.5,6
		C1469.3,992.2,1426.8,973.4,1386.3,924.9z"/>
	<path class="st12" d="M1306.5,573.6c0,0,31.1-6.7,39-22.8c7.9-16.1,8.3-52.3,8.3-51.9c0,0.4-38.6,7.8-44.9,24.3
		C1302.6,539.6,1306.5,573.6,1306.5,573.6z"/>
	<path class="st12" d="M1402.2,573.6c0,0-20.8-8.1-34.7-19.5c-14.8-12.2-24.8-44.1-12.6-55.2c4.9-4.5,38.6,7.8,44.9,24.3
		C1406.1,539.6,1402.2,573.6,1402.2,573.6z"/>
	<rect x="1302.8" y="523.2" class="st15" width="101.2" height="14.2"/>
	<g>
		<path class="st5" d="M1493.9,658.2l-4.6-4.3c0.3-0.3,29.1-31.2,35.4-54.5c6.3-23.5,4.9-40.9,4.9-41.1l6.3-0.5
			c0.1,0.7,1.5,18.7-5.1,43.2C1524,625.8,1495.1,656.9,1493.9,658.2z"/>
	</g>
	<path class="st15" d="M1566.1,530.9c-3.4-7.7-12.3-4.8-20.2,0.6c1.5-2.5,2.6-5.1,3.1-8c1-6.1-3.2-14.2-10.4-13.4
		c-8,0.9-11.1,14.5-12.4,20.5c-0.2,0.7-0.3,1.5-0.4,2.2c-4.5-5.4-12.9-14.8-20.8-12.5c-6.6,1.9-7,9.5-2.3,13.8
		c3.4,3.1,8.4,4.1,12.3,6.4c0.2,0.1,0.3,0.2,0.5,0.3c-9-2.6-19.7-0.9-24.8,6.6c-4.4,6.5,2.6,10.8,8.3,11.9c5.4,1.1,11,1,16.5,0
		c-6.4,5.6-10.2,13.1-4.2,19.1c4.7,4.7,11.4,1.4,14.4-3.3c2.3-3.6,3.6-7.9,5.1-11.8c0.1-0.2,0.2-0.4,0.2-0.5
		c0.8,4.4,2.6,8.7,5.5,12.1c4.7,5.7,13.2,9.6,19.8,4.5c6.1-4.7,6.1-13.7,2.4-19.9c-2.5-4.1-6.5-7.8-11-10.7c3.4-0.3,6.8-1.2,9.9-2.8
		C1562.4,543.3,1568.8,536.9,1566.1,530.9z"/>
	<path class="st13" d="M1461.8,745.7c0.8-24.8,17.9-38.8,35.3-79.9c3.8-8.9,12.4-18.6,12.9-23.4c0.3-3.2-4.7-11.3-6.1-14.9
		c-7.2-19.9,12.4-39.1,20.2-38.3c21.7,2.2,27.6,5.8,16.8,38.8c-6.6,20.1-13.9,62.7-21,89.6c-3.1,11.8-7.9,34.2-21,50.9
		c-5.6,7.2-8.5,6.2-21.5,7.4C1465.8,777,1461,772.3,1461.8,745.7z"/>
	<circle class="st8" cx="1530.7" cy="548.1" r="5.9"/>
	<g>
		<path class="st5" d="M1208.9,658.2l4.6-4.3c-0.3-0.3-29.1-31.2-35.4-54.5c-6.3-23.5-4.9-40.9-4.9-41.1l-6.3-0.5
			c-0.1,0.7-1.5,18.7,5.1,43.2C1178.7,625.8,1207.7,656.9,1208.9,658.2z"/>
	</g>
	<path class="st15" d="M1136.7,530.9c3.4-7.7,12.3-4.8,20.2,0.6c-1.5-2.5-2.6-5.1-3.1-8c-1-6.1,3.2-14.2,10.4-13.4
		c8,0.9,11.1,14.5,12.4,20.5c0.2,0.7,0.3,1.5,0.4,2.2c4.5-5.4,12.9-14.8,20.8-12.5c6.6,1.9,7,9.5,2.3,13.8
		c-3.4,3.1-8.4,4.1-12.3,6.4c-0.2,0.1-0.3,0.2-0.5,0.3c9-2.6,19.7-0.9,24.8,6.6c4.4,6.5-2.6,10.8-8.3,11.9c-5.4,1.1-11,1-16.5,0
		c6.4,5.6,10.2,13.1,4.2,19.1c-4.7,4.7-11.4,1.4-14.4-3.3c-2.3-3.6-3.6-7.9-5.1-11.8c-0.1-0.2-0.2-0.4-0.2-0.5
		c-0.8,4.4-2.6,8.7-5.5,12.1c-4.7,5.7-13.2,9.6-19.8,4.5c-6.1-4.7-6.1-13.7-2.4-19.9c2.5-4.1,6.5-7.8,11-10.7
		c-3.4-0.3-6.8-1.2-9.9-2.8C1140.4,543.3,1134,536.9,1136.7,530.9z"/>
	<path class="st13" d="M1241,745.7c-0.8-24.8-17.9-38.8-35.3-79.9c-3.8-8.9-12.4-18.6-12.9-23.4c-0.3-3.2,4.7-11.3,6.1-14.9
		c7.2-19.9-12.4-39.1-20.2-38.3c-21.7,2.2-27.6,5.8-16.8,38.8c6.6,20.1,13.9,62.7,21,89.6c3.1,11.8,7.9,34.2,21,50.9
		c5.6,7.2,8.5,6.2,21.5,7.4C1237,777,1241.8,772.3,1241,745.7z"/>
	<path class="st8" d="M1166.2,548.1c0,3.3,2.6,5.9,5.9,5.9c3.3,0,5.9-2.6,5.9-5.9c0-3.3-2.6-5.9-5.9-5.9
		C1168.8,542.2,1166.2,544.9,1166.2,548.1z"/>
	<g>
		<path class="st8" d="M1397,627.9c0,0-2.6,1.9-7.1,4.4c0.8,13.1,1.9,53.8-13.2,95.8c-19,52.8-41.4,22.8-47.1-2.8
			c-4.5-20.2-9.1-69.1-10.9-88.9c-4.4-2.2-8.8-5-13.2-8.4c0,0,4.6,65.8,12.4,105c7.9,39.2,50.3,59.8,68.4,3.8
			C1404.4,680.7,1397,627.9,1397,627.9z"/>
		<path class="st15" d="M1376.7,728.1c15.1-42,14.1-82.7,13.2-95.8c-12.9,7.1-41.6,19-71.2,4.1c1.7,19.8,6.4,68.7,10.9,88.9
			C1335.2,750.9,1357.7,780.8,1376.7,728.1z"/>
	</g>
	<g>
		
			<rect x="1334.9" y="618.8" transform="matrix(0.9544 -0.2985 0.2985 0.9544 -138.5129 429.4686)" class="st10" width="3.8" height="98.8"/>
	</g>
	<g>
		
			<rect x="1317.1" y="666.3" transform="matrix(0.2985 -0.9544 0.9544 0.2985 320.8013 1772.9305)" class="st10" width="98.8" height="3.8"/>
	</g>
	<g>
		<g>
			<path class="st17" d="M1351.6,754.2c-11.2,0-20.4-9.1-20.4-20.4c0-11.2,9.1-20.4,20.4-20.4c11.2,0,20.4,9.1,20.4,20.4
				C1372,745.1,1362.8,754.2,1351.6,754.2z M1351.6,717.2c-9.2,0-16.6,7.5-16.6,16.6c0,9.2,7.5,16.6,16.6,16.6
				c9.2,0,16.6-7.5,16.6-16.6C1368.2,724.7,1360.7,717.2,1351.6,717.2z"/>
		</g>
		<g>
			<rect x="1349.7" y="715.4" class="st17" width="3.8" height="37"/>
		</g>
		<g>
			
				<rect x="1335.4" y="738.1" transform="matrix(0.7514 -0.6598 0.6598 0.7514 -153.9942 1071.1555)" class="st17" width="18.5" height="3.8"/>
		</g>
		<g>
			
				<rect x="1356.4" y="730.7" transform="matrix(0.6598 -0.7514 0.7514 0.6598 -93.9471 1272.3918)" class="st17" width="3.8" height="18.5"/>
		</g>
	</g>
	<g>
		<path class="st17" d="M1350.1,656c-27.7,0-35.3-32.6-35.4-32.9l3.1-0.7c0.1,0.3,7.2,30.4,32.3,30.4c0.1,0,0.1,0,0.2,0
			c26.9-0.2,33.8-30.1,33.8-30.4l3.1,0.7c-0.1,0.3-7.5,32.7-36.9,32.9C1350.3,656,1350.2,656,1350.1,656z"/>
	</g>
	<path class="st15" d="M1301,829.6c-1.8,7.4-6.5,12.6-10.6,11.6c-4.1-1-6-7.8-4.3-15.1c1.8-7.4,6.5-12.6,10.6-11.6
		C1300.9,815.4,1302.8,822.2,1301,829.6z"/>
	<path class="st15" d="M1326.2,837c-1.2,7.5-5.6,13-9.8,12.3c-4.2-0.7-6.5-7.3-5.3-14.8c1.2-7.5,5.6-13,9.8-12.3
		C1325.1,822.9,1327.5,829.5,1326.2,837z"/>
	<path class="st15" d="M1363.8,842c-0.1,7.6-3.5,13.7-7.8,13.7s-7.6-6.2-7.5-13.8c0.1-7.6,3.5-13.7,7.8-13.7
		S1363.9,834.5,1363.8,842z"/>
	<path class="st15" d="M1411.9,829.6c1.8,7.4,6.5,12.6,10.6,11.6c4.1-1,6-7.8,4.3-15.1c-1.8-7.4-6.5-12.6-10.6-11.6
		C1412,815.4,1410.1,822.2,1411.9,829.6z"/>
	<path class="st15" d="M1386.7,837c1.2,7.5,5.6,13,9.8,12.3c4.2-0.7,6.5-7.3,5.3-14.8c-1.2-7.5-5.6-13-9.8-12.3
		C1387.8,822.9,1385.4,829.5,1386.7,837z"/>
</g>
</svg>
