<?xml version="1.0" encoding="utf-8"?>
<!-- Generator: Adobe Illustrator 24.3.0, SVG Export Plug-In . SVG Version: 6.00 Build 0)  -->
<svg version="1.1" id="Ebene_1" xmlns="http://www.w3.org/2000/svg" xmlns:xlink="http://www.w3.org/1999/xlink" x="0px" y="0px"
	 viewBox="0 0 1620.7 1080.5" style="enable-background:new 0 0 1620.7 1080.5;" xml:space="preserve">
<style type="text/css">
	.st0{fill:#7A137A;}
	.st1{fill:#B90A0A;}
	.st2{fill:#020001;}
	.st3{fill:#29378B;}
	.st4{fill:#FBB03B;}
	.st5{fill:#FFFFFF;}
</style>
<rect x="-0.4" y="0" class="st0" width="1621" height="1080"/>
<g>
	<path class="st1" d="M1620.6,141.1v-34.1c-153.6-21-450.9,87-501.4-106.1H979.9C1095.8,243.2,1443.6,117.9,1620.6,141.1z"/>
	<path class="st2" d="M822.8,785.3c35.4,177.5,251.8,259.3,429.1,238.1c105.6-12.6,198.9-48.8,304.8-13.1
		c9.8,3.3,35.5,16.6,63.9,34.1v35.5h-100.3c-27.6-3.1-55-2.6-82.2,0H928.7C793,1018.2,690,899.5,690,749.7
		c0-469.8,450.4-154.7,589.9-288.5c77-73.9,177.2-99.3,296.2-88.9c16.7,1.5,31.4,3.8,44.5,6.8v62.3c-47.5-15.4-100.6-16.2-150.8-0.8
		c-86.3,26.6-134.4,106.7-223.1,127.4c-105.6,24.7-214.3-50.8-316.3-11.9C837.6,591.5,806.3,702.5,822.8,785.3z"/>
	<path class="st1" d="M1469.8,440.6c-86.3,26.6-134.4,106.7-223.1,127.4c-105.6,24.7-214.3-50.8-316.3-11.9
		c-92.8,35.4-124.1,146.4-107.6,229.2c35.4,177.5,251.8,259.3,429.1,238.1c105.6-12.6,198.9-48.8,304.8-13.1
		c9.8,3.3,35.5,16.6,63.9,34.1v-50.7c-55.4-55.2-139.9-88.9-242.9-73.8c-147.5,21.7-440.4,29.7-414.4-151.6
		c36.8-256.3,338.4-72.1,416-180.8c51.1-71.6,145.3-91.3,241.3-38.3V441.4C1573,425.9,1520,425.1,1469.8,440.6z"/>
	<path class="st3" d="M1379.3,587.5c-77.6,108.8-379.2-75.5-416,180.8c-26,181.4,266.9,173.4,414.4,151.6
		c103-15.2,187.4,18.5,242.9,73.8v-80.1c-176.8-138.6-449.9,6.8-515.6-91.1c-58.7-87.4,60.6-156.4,196.8-126.2
		c182.7,40.6,178.9-150.8,318.9-80.3v-66.8C1524.6,496.3,1430.4,515.9,1379.3,587.5z"/>
	<path class="st3" d="M1620.6,106.9V0.9h-501.4C1169.7,193.9,1467,85.9,1620.6,106.9z"/>
	<path class="st2" d="M944.4,135.9c170.7,200.7,440.8,72.1,676.2,86.4v-41.8c-138.9-30.6-394.3,54.1-518.7-8.9
		C1015.2,127.7,960.4,58.4,858.2,0.9h-55.4C841.9,28.3,889,70.7,944.4,135.9z"/>
	<path class="st2" d="M297.3,76.9c40.4-33.7,80.7-58.2,119.1-76H274.9C214.6,60.6,96.1,83.1-0.4,80.6v70.8
		C96.6,159.5,211.7,148.5,297.3,76.9z"/>
	<path class="st1" d="M514.3,184c208.6,0,254.4,262.4,486.4,262.4c218.4,0,335.9-173.5,619.9-95.9V306
		c-285.2-67.3-440.1,117.4-646.9,36.5C732.5,248.1,631-77.5,337.8,160C208.9,264.4,91.1,297.8-0.4,302.5V359
		C227.7,345.2,266.1,184,514.3,184z"/>
	<path class="st3" d="M973.7,342.4c206.8,80.9,361.7-103.8,646.9-36.5v-83.6c-235.3-14.3-505.5,114.3-676.2-86.4
		C889,70.7,841.9,28.3,802.8,0.9H416.4c-38.3,17.8-78.7,42.3-119.1,76c-85.7,71.6-200.8,82.6-297.8,74.5v151.2
		c91.5-4.7,209.3-38.2,338.2-142.6C631-77.5,732.5,248.1,973.7,342.4z"/>
	<path class="st1" d="M755.3,1080h-88.5c-66.5-91.9-103.7-224.4-45-398.9c87.7-260.5-126.2-451.3-421.2-272.8
		c-64.8,39.2-133.3,60.6-200.9,70.3v-38.4C213.5,407.7,357,261.4,497.7,303.6c183,54.9,196.5,209.2,145.8,471.9
		C620.4,895,672,1003.3,755.3,1080z"/>
	<path class="st3" d="M547,1080h-41.5C446,941.1,437.9,805.8,294.2,811.5c-185.4,7.3-142.5,138-294.6,171.7v-58.4
		C90.9,854.2,69.4,756,292.4,753.6c2.1,0,4.1,0,6.1,0c0.5,0,1.1,0,1.6,0c0.9,0,1.9,0,2.8,0.1c0.2,0,0.4,0,0.6,0
		c0.9,0,1.7,0.1,2.5,0.1c0.7,0,1.4,0.1,2,0.1c1,0.1,1.9,0.1,2.9,0.2c0.1,0,0.2,0,0.3,0c1,0.1,2,0.1,3.1,0.2c0.5,0,0.9,0.1,1.4,0.1
		c1,0.1,2,0.2,3,0.3c1.2,0.1,2.4,0.2,3.5,0.4c0.2,0,0.4,0.1,0.6,0.1c1,0.1,2,0.2,2.9,0.4c0.1,0,0.3,0,0.4,0.1
		c1.2,0.2,2.4,0.3,3.5,0.5c1.1,0.2,2.1,0.3,3.1,0.5c0.3,0.1,0.5,0.1,0.8,0.1c1,0.2,2.1,0.4,3.1,0.6c2.1,0.4,4.1,0.8,6.1,1.3
		c0.5,0.1,1,0.2,1.4,0.3c0.8,0.2,1.6,0.4,2.4,0.6c0.1,0,0.1,0,0.2,0c1,0.2,1.9,0.5,2.9,0.8c0.2,0.1,0.3,0.1,0.5,0.1
		c0.9,0.2,1.7,0.5,2.6,0.7c0.6,0.2,1.2,0.4,1.8,0.5c0.8,0.2,1.6,0.5,2.4,0.7c0.8,0.2,1.6,0.5,2.3,0.8c0.5,0.2,0.9,0.3,1.4,0.5
		c0.5,0.2,1,0.4,1.5,0.5c2.1,0.8,4.1,1.5,6.1,2.3c0.6,0.3,1.3,0.5,1.9,0.8c0.1,0.1,0.3,0.1,0.4,0.2c0.5,0.2,1.1,0.5,1.6,0.7
		c0.5,0.2,1.1,0.5,1.6,0.7c1.7,0.8,3.5,1.6,5.2,2.5c0.6,0.3,1.3,0.6,1.9,1c2.3,1.2,4.5,2.4,6.6,3.7c0.5,0.3,1,0.6,1.6,0.9
		c1.2,0.7,2.3,1.4,3.4,2.1c0.8,0.5,1.6,1,2.4,1.6c0.6,0.4,1.2,0.8,1.8,1.2c1.3,0.9,2.5,1.7,3.7,2.6c0.6,0.4,1.2,0.9,1.7,1.3
		c0.6,0.5,1.2,0.9,1.8,1.4c2.6,2,5.1,4.1,7.6,6.3c0.9,0.8,1.8,1.6,2.7,2.4c0.6,0.5,1.1,1,1.6,1.5c1.1,1,2.2,2.1,3.2,3.1
		c0.5,0.5,1.1,1.1,1.6,1.6c0.5,0.5,1.1,1.1,1.6,1.6c0.5,0.5,1,1.1,1.5,1.6c1,1.1,2,2.2,3,3.3c0.5,0.6,1,1.1,1.5,1.7
		c0.5,0.6,1,1.2,1.5,1.7c0.5,0.6,1,1.2,1.5,1.8c0.5,0.6,1,1.2,1.4,1.8c0.5,0.6,0.9,1.2,1.4,1.8c0,0,0,0,0.1,0.1
		c0.5,0.6,0.9,1.2,1.4,1.8c0.5,0.6,0.9,1.2,1.4,1.8c0.5,0.6,0.9,1.2,1.4,1.9c0.5,0.6,0.9,1.2,1.4,1.9c0.5,0.6,0.9,1.3,1.3,1.9
		c0.9,1.3,1.8,2.6,2.7,3.9c0.4,0.6,0.8,1.2,1.2,1.8c1.3,2,2.6,4,3.9,6.1c0.4,0.7,0.8,1.3,1.3,2c0.8,1.4,1.6,2.7,2.5,4.1
		c0.4,0.7,0.8,1.4,1.2,2.1c0.5,0.9,1,1.8,1.5,2.7c0.7,1.2,1.4,2.4,2,3.7c0.4,0.7,0.8,1.4,1.2,2.1c0.4,0.7,0.8,1.4,1.1,2.2
		c0.4,0.7,0.8,1.4,1.1,2.2c0.8,1.5,1.5,2.9,2.3,4.4c1.1,2.2,2.2,4.4,3.2,6.6c0.4,0.8,0.8,1.6,1.1,2.4c0.4,0.8,0.7,1.5,1.1,2.3
		c0.7,1.5,1.4,3.1,2.1,4.6c1.1,2.3,2.1,4.6,3.1,7c0,0,0,0.1,0,0.1c1,2.3,2,4.7,3,7c0.7,1.6,1.3,3.2,2,4.8c1.7,4.2,3.4,8.4,5.1,12.6
		c0.6,1.5,1.2,3,1.8,4.5c0.3,0.8,0.6,1.7,1,2.5c0.9,2.5,1.9,5,2.8,7.5l0.2,0.4c1.8,4.9,3.6,9.9,5.4,14.9c0.6,1.7,1.2,3.4,1.8,5.2
		c0.6,1.7,1.2,3.5,1.8,5.2c1.2,3.5,2.5,7,3.7,10.5c0.6,1.8,1.2,3.5,1.8,5.3c0.9,2.6,1.8,5.2,2.7,7.8c0.8,2.4,1.7,4.8,2.5,7.2
		c0.4,1.2,0.8,2.4,1.3,3.6c1.3,3.6,2.5,7.2,3.8,10.8c2.6,7.2,5.1,14.5,7.8,21.8c0.4,1.2,0.9,2.4,1.3,3.6
		c4.6,12.4,9.4,24.9,14.5,37.3c0.7,1.6,1.3,3.2,2,4.9c0.7,1.7,1.4,3.4,2.1,5c0.9,2.1,1.8,4.1,2.7,6.2
		C545.6,1076.9,546.3,1078.5,547,1080z"/>
	<path class="st2" d="M666.7,1080H547c-0.7-1.5-1.4-3.1-2.1-4.6c-0.9-2.1-1.8-4.1-2.7-6.2c-0.7-1.7-1.4-3.4-2.1-5
		c-0.7-1.6-1.4-3.2-2-4.9c-5.1-12.4-9.9-24.8-14.5-37.3c-0.5-1.2-0.9-2.4-1.3-3.6c-2.7-7.3-5.3-14.5-7.8-21.8
		c-1.3-3.6-2.6-7.2-3.8-10.8c-0.4-1.2-0.8-2.4-1.3-3.6c-0.8-2.4-1.7-4.8-2.5-7.2c-0.9-2.6-1.8-5.2-2.7-7.8c-0.6-1.8-1.2-3.5-1.8-5.3
		c-1.2-3.5-2.5-7-3.7-10.5c-0.6-1.7-1.2-3.5-1.8-5.2c-0.6-1.7-1.2-3.5-1.8-5.2c-1.8-5-3.6-10-5.4-14.9l-0.2-0.4
		c-0.9-2.5-1.9-5-2.8-7.5c-0.3-0.8-0.6-1.7-1-2.5c-0.6-1.5-1.2-3-1.8-4.5c-1.7-4.3-3.3-8.5-5.1-12.6c-0.7-1.6-1.3-3.2-2-4.8
		c-1-2.4-2-4.7-3-7c0,0,0-0.1,0-0.1c-1-2.4-2.1-4.7-3.1-7c-0.7-1.5-1.4-3.1-2.1-4.6c-0.4-0.8-0.7-1.5-1.1-2.3
		c-0.4-0.8-0.8-1.6-1.1-2.4c-1.1-2.2-2.1-4.4-3.2-6.6c-0.7-1.5-1.5-2.9-2.3-4.4c-0.4-0.7-0.8-1.4-1.1-2.2c-0.4-0.7-0.8-1.4-1.1-2.2
		c-0.4-0.7-0.8-1.4-1.2-2.1c-0.7-1.2-1.3-2.4-2-3.7c-0.5-0.9-1-1.8-1.5-2.7c-0.4-0.7-0.8-1.4-1.2-2.1c-0.8-1.4-1.6-2.7-2.5-4.1
		c-0.4-0.7-0.8-1.4-1.3-2c-1.3-2.1-2.6-4.1-3.9-6.1c-0.4-0.6-0.8-1.2-1.2-1.8c-0.9-1.3-1.8-2.6-2.7-3.9c-0.4-0.6-0.9-1.3-1.3-1.9
		c-0.4-0.6-0.9-1.3-1.4-1.9c-0.5-0.6-0.9-1.2-1.4-1.9c-0.5-0.6-0.9-1.2-1.4-1.8c-0.5-0.6-0.9-1.2-1.4-1.8c0,0,0,0-0.1-0.1
		c-0.5-0.6-0.9-1.2-1.4-1.8c-0.5-0.6-0.9-1.2-1.4-1.8c-0.5-0.6-1-1.2-1.5-1.8c-0.5-0.6-1-1.2-1.5-1.7c-0.5-0.6-1-1.2-1.5-1.7
		c-1-1.1-2-2.2-3-3.3c-0.5-0.6-1-1.1-1.5-1.6c-0.5-0.6-1-1.1-1.6-1.6c-0.5-0.5-1.1-1.1-1.6-1.6c-1.1-1.1-2.1-2.1-3.2-3.1
		c-0.5-0.5-1.1-1-1.6-1.5c-0.9-0.8-1.8-1.6-2.7-2.4c-2.5-2.2-5-4.3-7.6-6.3c-0.6-0.5-1.2-0.9-1.8-1.4c-0.6-0.4-1.2-0.9-1.7-1.3
		c-1.2-0.9-2.5-1.8-3.7-2.6c-0.6-0.4-1.2-0.8-1.8-1.2c-0.8-0.5-1.6-1.1-2.4-1.6c-1.1-0.7-2.3-1.4-3.4-2.1c-0.5-0.3-1-0.6-1.6-0.9
		c-2.2-1.3-4.4-2.5-6.6-3.7c-0.6-0.3-1.2-0.6-1.9-1c-1.7-0.9-3.4-1.7-5.2-2.5c-0.5-0.3-1-0.5-1.6-0.7c-0.5-0.2-1.1-0.5-1.6-0.7
		c-0.1-0.1-0.2-0.1-0.4-0.2c-0.6-0.3-1.3-0.5-1.9-0.8c-2-0.8-4.1-1.6-6.1-2.3c-0.5-0.2-1-0.4-1.5-0.5c-0.5-0.2-0.9-0.3-1.4-0.5
		c-0.8-0.3-1.5-0.5-2.3-0.8c-0.8-0.3-1.6-0.5-2.4-0.7c-0.6-0.2-1.2-0.4-1.8-0.5c-0.8-0.3-1.7-0.5-2.6-0.7c-0.2,0-0.3-0.1-0.5-0.1
		c-1-0.3-1.9-0.5-2.9-0.8c-0.1,0-0.1,0-0.2,0c-0.8-0.2-1.6-0.4-2.4-0.6c-0.5-0.1-1-0.2-1.4-0.3c-2-0.5-4.1-0.9-6.1-1.3
		c-1-0.2-2-0.4-3.1-0.6c-0.3-0.1-0.5-0.1-0.8-0.1c-1-0.2-2.1-0.4-3.1-0.5c-1.2-0.2-2.3-0.4-3.5-0.5c-0.1,0-0.3,0-0.4-0.1
		c-1-0.1-1.9-0.3-2.9-0.4c-0.2,0-0.4,0-0.6-0.1c-1.2-0.1-2.3-0.3-3.5-0.4c-1-0.1-2-0.2-3-0.3c-0.5,0-0.9-0.1-1.4-0.1
		c-1-0.1-2-0.2-3.1-0.2c-0.1,0-0.2,0-0.3,0c-0.9-0.1-1.9-0.1-2.9-0.2c-0.7,0-1.4-0.1-2-0.1c-0.8-0.1-1.7-0.1-2.5-0.1
		c-0.2,0-0.4,0-0.6,0c-0.9,0-1.8-0.1-2.8-0.1c-0.5,0-1.1,0-1.6,0c-2,0-4.1,0-6.1,0C69.4,756,90.9,854.2-0.4,924.8v-72.5
		c42.1-49.5,76.8-106.1,131.5-142.4c127.7-84.7,374,69.7,443.7-99.1c27.8-67.5-7.2-173.8-74.8-207.4c-80.7-40.1-184.9,13.1-249.6,58
		c-87,60.3-165,113.6-250.8,133.2V478.6c67.6-9.7,136.2-31.1,200.9-70.3c295.1-178.5,508.9,12.3,421.2,272.8
		C563,855.6,600.2,988.1,666.7,1080z"/>
	<path class="st3" d="M131.1,709.9c127.7-84.7,374,69.7,443.7-99.1c27.8-67.5-7.2-173.8-74.8-207.4c-80.7-40.1-184.9,13.1-249.6,58
		c-87,60.3-165,113.6-250.8,133.1v39.9C72.3,609,142.7,567.1,208.4,535c63.4-31,142.9-92.6,215.9-85.6
		c69.7,6.7,137.4,80.3,84.8,142.7c-89.4,106-310.5-1.3-424.1,108C51.6,732.2,29.3,768-0.4,798.8v53.5
		C41.7,802.8,76.4,746.1,131.1,709.9z"/>
	<path class="st2" d="M437.6,1080H247.9c-8.7-0.5-17.6-0.5-26.6,0H-0.4v-34.2c53.5-7.3,113.7-25.3,164.6-63.9
		C304.7,875.3,394.1,960.9,437.6,1080z"/>
	<path class="st4" d="M247.9,1080h-26.6C230.3,1079.5,239.2,1079.5,247.9,1080z"/>
</g>
<g>
	<ellipse transform="matrix(0.7071 -0.7071 0.7071 0.7071 -137.5376 714.4481)" cx="793.6" cy="523.2" rx="296.3" ry="296.3"/>
	<path class="st3" d="M898.3,281.2l-22.5,41.7l51.4-9.6l-72.6,59.7l65.5,8.5L836,436.7l75.6-0.9l-94,58.5l69.8,1.8l-99,49.3
		l32.8,7.6l-65.5,29l17.4,9l-73.4,27.7c28.3,16,61.1,25.1,95.9,25.1c108.1,0,195.7-87.6,195.7-195.7
		C991.5,377.4,954.2,315.6,898.3,281.2z M738.5,806.4c-132.9-25.7-233.3-142.7-233.3-283.2c0-123.7,77.8-229.1,187.2-270.2
		c-69.7,37.1-117.1,110.4-117.1,194.8c0,0-2.9,65.4,9.8,104.9c12.7,39.5,12.7,49.8,12.7,58.3c0,10-4.8,30.6,3.9,44.2
		c8.8,13.6,16.3,21.2,32.4,27.5c-2.7,12.1,1.7,44.2,37.2,49c11.2,1.5,23.9,1.5,27.8,1.5c2.1,7.3,6.4,30.3,12.7,38.4
		c0.3,6.7-3.3,22.4,21.8,24.2C735.5,799.4,736.8,803,738.5,806.4z"/>
	<path class="st1" d="M731.8,533.9l-50.7,2.7l63.1-55l-62.6,4.3L779,415l-69.5,3.2l111.4-60L762,347.2l82.7-37l-24.9-5l67.4-30.4
		c-27.3-14.5-58.4-22.7-91.5-22.7c-108.1,0-195.7,87.6-195.7,195.7c0,68.7,35.4,129.1,89,164.1L731.8,533.9z M910,259.2
		c63.7,38.7,106.2,108.7,106.2,188.6c0,29.2-5.7,57-16,82.5c-0.3,0.9-0.7,1.9-1.1,2.8c-19.7,46-23.9,60.5-26.3,76.6
		c-2.4,16,2.1,33-3.3,46c-5.4,13-18.5,20.3-31.2,22.1c-3.6,35.4-8.8,49-20,57.8c-11.2,8.8-36.3,6.1-41.5,5.1
		c-0.9,4.5-5.1,13.3-12.4,25.1c0,30.6-10.6,30-16.3,33.6c-1.1,2.8-2.6,5.5-4,7.7c135.2-23.9,238-142,238-284.1
		C1082.1,405.4,1011.4,304,910,259.2z"/>
	<path class="st5" d="M991.8,533.4C991.8,533.4,991.9,533.4,991.8,533.4c-4.7,10.1-12.8,27.3-17.6,41.8
		c-4.8,14.5-10.7,32.5-9.8,51.3s-2,24.5-6.8,31.3c-4.8,6.8-13.2,7.7-15.2,7.9c-2,0.2,3.2-3.6,11.1-11.3c7.9-7.7,7.5-17.3,7-23.8
		c-0.5-6.6-1.8-22,0-28.8c-2,1.6-6.1,8.2-5,18.4c2.4,21.6-0.7,25.7-4.1,30.6c-3.4,5-11.8,8.2-13.2,7.5c-1.4-0.7,3.9-3.9,8.9-10
		c5-6.1,5.4-20,5.4-29.3c0-9.3,1.4-18.6,5.2-26.8c3.9-8.2,13.2-28.8,13.2-28.8c-12,22.7-24.7,43.6-25.2,61.1
		c-0.5,17.5-4.3,24.3-14.3,31.6c-10,7.3-27.5-0.2-38.1-4.3c-10.7-4.1-34.1-3.2-50.2,1.1c-16.1,4.3-32,16.8-30.4,25
		c1.6,8.2,27.9,6.6,49.3,4.3c21.3-2.3,55.2-6.1,63.1-6.6c-0.5,5-8.4,5.2-13.2,5.9c-4.8,0.7-12.5,2.7-15.7,3.2c0.2,3,3.4,3.4,7.9,5.2
		c4.5,1.8,3.2,12.3-0.5,25.4c-3.6,13.2-14.8,14.3-25.2,14.8c-10.4,0.5-12.7-2.5-17.5-2.3c-4.3,4.1-19.8,11.1-27.7,15
		c3.6,1.1,9.8,0,15,0c5.2,0,5.2,3.9,5.4,8.4c0.2,4.5-0.7,5.9-2.5,5.9c0,3-3,7.7-5.2,7.7s-1.6-5.7-3-5.7s-3,4.1-4.5,7
		c-1.6,3-10,10.4-11.8,11.8c-1.8,1.4-3.4-2.5-7-1.6c-3.6,0.9-4.5,7-7.5,7c-3,0-5.4-5.4-10.7-5.4c-5.2,0-9.1,6.1-10.7,6.1
		c-1.6,0-3-0.9-4.5-4.3c-1.6-3.4-3.6-4.3-5.7-4.3c-2,0-3.9,1.8-5.4,1.8c-1.6,0-2.5-5-8.9-5.2c-6.4-0.2-9.8,5.2-13.2,5
		c-3.4-0.2-5.7-8.6-7.9-15.2c-2.3-6.6-5.4-17.7-5.2-24.7c-17.7,0.5-25.7-5.4-29.3-10.7c-14.8-0.7-21.1-8.6-20.9-19.5
		c0.2-10.9,12-12.3,17.9-12.3c-2.7-0.5-4.8-2.5-4.8-5.9c0-3.4,7-4.8,7-4.8s30.2,0.5,37.7,0.5s13.6-3,16.6-4.3c1.6,2,1.1,7,2.3,10
		c1.1,3,1.1,8.2,0,11.6c3.2,0.2,5,0.7,6.6-0.7c1.6-1.4-0.2-5.9-0.5-8.6c-0.2-2.7,2.7-6.1,3-11.1c0.2-5-7.7-10.4-22.7-17.5
		c-15-7-19.1-10.7-39.3-12.9c-20.2-2.3-35.2,0-44.5-1.1c-9.3-1.1-26.6-22.7-27.9-27.9c-1.4-5.2,5-22.5,4.3-28.8
		c-0.4-3.4-2.5-10.5-4.5-16.3c30,35.9,72.2,61.2,120.2,69.5l0,0c0,0,0,0,0,0c0.5,0.1,1,0.2,1.5,0.2c4.6,0.8,18.3,3.5,22.3,9.2
		c4.8,6.8,3.9,17.7,5.6,17.7c1.7,0,1-12,7.9-18.9c3.9-3.9,12.2-5.5,20.3-6.6c2.9-0.3,5.8-0.7,8.7-1.2c2-0.3,3.8-0.6,5.4-0.9
		c0,0,0.1,0,0.1,0c64.7-12.2,118.4-55.3,145.2-113.4c11.8-25.6,18.4-54.2,18.4-84.2c0-111.1-90.1-201.1-201.1-201.1
		c-111.1,0-201.1,90.1-201.1,201.1c0,6.1,0.3,12.1,0.8,18l0,0.4c2.8,21.2,9.1,57.4,26.2,82.3c0,0,20.4,27.9,19.2,46.7
		s-8.5,17-8.5,29.4c0,12.4,6.2,14.4,14.2,22.4c0,0-21.5-6.7-19.7-22.4c1.8-15.7,9.1-14.5,8.5-30c-0.6-15.4-13.3-30.9-20-42.7
		c-5.1-8.7-18-31.2-24.3-64.8c-0.1,0.4-0.1,0.8-0.2,1.2c4.5,36,15.7,60.2,20.3,67.5c4.5,7.3,13.6,18.8,15.1,36
		c1.5,17.3-7.3,19.7-6.7,38.1c0.6,18.5,24.2,35.7,24.2,35.7c-20-5.1-27.5-19.7-27.8-36.6c-0.3-16.9,11.8-28.5-12.4-72.6
		c-24.2-44.2-21.7-110.1-21.7-110.1s0-0.1,0.1-0.4C582.9,328.8,678.2,234,795.8,234c118.1,0,213.9,95.7,213.9,213.9
		C1009.6,478.3,1003.3,507.2,991.8,533.4z M606,585.9c4.8,12,4.1,27,1.6,38.1c-2.5,11.1-4.1,21.3,4.8,33.1
		c8.9,11.8,22.5,17.5,31.6,13.4c-6.4-1.1-13.2,0-25.7-14.8c-12.5-14.8-6.8-31.1-5.4-51.3c1.4-20.2-12.5-39.7-12.5-39.7
		C600.3,568,601.2,573.9,606,585.9z M651.8,679.7c0,2.1,0.9,4.1,4.1,4.1c3.2,0,5-2.9,5-4.8c0-2-1.7-3.5-5.1-3.5
		C653.2,675.5,651.8,677.6,651.8,679.7z M667,683.1c-1.2,2.3,0.8,4.4,3.6,4.4c2.9,0,4.5-2.1,4.5-3.6c0-1.5-1.2-3.9-4.2-3.6
		C669.4,680.3,668.2,680.8,667,683.1z M681.3,683.4c-1.4,0.9-4.4,2.1-2,5.1c2.4,3,5.4,0.3,6.4-1.8c0.9-2.1,1.2-3.5,0.3-4.4
		C685.6,681.9,682.7,682.5,681.3,683.4z M690.4,687.8c0,1.7,1.8,3.2,3.8,3c2-0.2,2.6-2.1,2.4-3.8c-0.2-1.7-1.1-3.3-3-3.3
		C692.1,683.7,690.4,686.1,690.4,687.8z M647.4,700.3c-0.5,5.4,3.8,12.9,6.2,15.7c2.4,2.9,7.4,5.6,8.2,4.8c0.8-0.8-1.2-3.6-3.3-7.1
		c-2.1-3.5-3.5-10.1-3.3-12.9c0.2-2.7-0.6-6-3.6-6.5C650.6,694.3,647.9,694.9,647.4,700.3z M665.9,710.8c2,5.1,9.8,11.8,11,10.7
		c1.2-1.1-7-11-7.6-14.7c-0.6-3.6,0.2-8.9-2-8.9C663.8,697.9,663.9,705.6,665.9,710.8z M678.6,711.1c0.9,2.4,5.6,7.9,6.7,7.1
		c1.1-0.8-0.9-4.1-2.1-6.4c-1.2-2.3-0.8-7-0.5-9.2c0.3-2.3-0.6-4.8-3-4.8C675.6,697.6,677.7,708.6,678.6,711.1z M710.6,744.5
		c-0.2,5,3.2,17.6,5.4,17.6c2.3,0,1.5-17.3,1.5-19.5c0-2.3-1.2-4.7-4.1-5.1C711.5,737.1,710.7,739.5,710.6,744.5z M727.5,752.4
		c-5.8,6.1-6.8,16.5-6.8,21.3c0,4.8,0.5,11.2,4.7,11.7c4.2,0.5,4.8-6.2,4.5-11c-0.3-4.8-0.8-13.6-0.8-18.3
		c0.8,1.7,3.6,10.9,5.8,10.9c2.1,0,0.6-13.9-0.3-16.8c-0.9-2.9-3.8-8.9-6.7-8.9C724,741.2,726,747.8,727.5,752.4z M739.3,784.3
		c0.3,7.9,4.2,21,6.1,20.9c1.8-0.2,3.8-15.1,3.8-20.3s-3.3-16-6.1-16C740.4,768.9,739,776.4,739.3,784.3z M755.8,786.7
		c-1.1,3-1.4,11.7-1.2,14.4c0.2,2.7,3,7.3,5.3,7.4c2.3,0.2,7-7.7,7.1-10.4c0.2-2.7,0.8-8.8,0.8-12.7s-1.5-6.1-4.2-6.4
		C760.5,778.7,756.9,783.7,755.8,786.7z M775,787.2c-1.5,2.4-2.4,10-2.1,14.8c0.3,4.8,6.2,8.3,9.5,8.8c3.3,0.5,3.2-14.7,3-19.1
		c-0.2-4.4-1.7-8.2-5.3-8.2C778.1,783.6,776.5,784.8,775,787.2z M793.6,791.9c-1.2,2.9-0.5,9.2-0.2,12.6c0.3,3.3,2.6,5.6,7.3,5.8
		c4.7,0.2,8.6-5.4,8.8-7c0.2-1.5-0.2-8-0.2-10.3c0-2.3-5-10.4-8-10.1C798,783.1,794.9,789,793.6,791.9z M814.4,803.7
		c0.5,2.7,4.5,5.9,5.9,6.1c1.4,0.2,4.8-0.6,5.4-3.2c0.6-2.6,0-8.9,0-8.9c-0.3-6.8-2.9-15.6-5.9-15.6
		C815.4,782,813.9,801,814.4,803.7z M834.7,779.2c-2.3,4.5-2.6,15.7-2.6,18.5c0,2.7,2.3,7.3,4.7,7.3c2.4,0,5.6-20.3,5.8-23.8
		c0.2-3.5-0.3-10-2-10C838.7,771.2,836.9,774.6,834.7,779.2z M847.4,780.7c-0.3,3.8,0.5,8.6,2.3,8.6s3.2-3.5,5.3-6.7
		c2.1-3.2,1.5-7.9,1.5-11.2c0-3.3-0.2-10-2-9.8C851.3,761.9,847.7,776.9,847.4,780.7z M861.8,756.8c1.1-0.2,3.6-7.1,4.8-9.2
		c1.2-2.1,4.2-7.4,3.9-8.5c-0.3-1.1-6.9-0.8-7.7,0.2C861.3,740.9,860.7,756.9,861.8,756.8z M910.5,708.5c-2,6.1-4.5,19.7-1.8,19.5
		c2.7-0.2,7.6-11.8,9.4-18.3c1.8-6.5,1.5-17.9,0-17.7C915.3,692.3,912.5,702.4,910.5,708.5z M924.7,691.5c0,0-4.7,28-2.6,27.8
		c2.1-0.2,5.6-8.8,6.7-15c1.1-6.2,1.2-13.8,1.2-16.2C928.3,688.1,925.3,690,924.7,691.5z M778.9,703.5c-2.5-3.2-3.6,0.9-3.6,3.3
		c0,2.4-1.2,7.5-2.2,13.7c-0.9,6.2-3.5,13.5-3.2,15.4c0.3,1.9,6.1,11.6,10.4,15.3c4.3,3.7,6.8-23,4.9-31.2
		C783.4,712.1,781.3,706.7,778.9,703.5z M801.7,713.6c0.3-3.2,2.6-8.4,0.7-8.9c-1.9-0.5-7.9,6.8-10.2,15.7
		c-2.3,8.9-1.4,16.5-0.7,20.8c0.7,4.3,3.3,9,5.1,9.4c1.8,0.5,7.4-3.6,9.1-4.9c1.7-1.2,3.2-3,3.2-5.2c0-2.3-4.8-10.5-6.7-17.6
		C801.4,720.4,801.3,716.8,801.7,713.6z M767.2,547.8l91.3-45.4L793,501l92.6-57.7l-74.5,0.9l88.5-58.1l-62.7-8.2l64-52.7l-39,7.7
		l27.7-51.3l-46.3,20.9l25,5l-82.2,36.8l56.3,10.4l-102.6,54.9l63.1-3.2l-96.7,70.4l59-4.1l-63.6,55.4l42.7-2.3l-46.8,85.4
		c0,0,48.1-18.6,57.2-21.8l-15.9-8.2l59.5-26.3L767.2,547.8z"/>
</g>
</svg>
