<svg xmlns="http://www.w3.org/2000/svg" xmlns:xlink="http://www.w3.org/1999/xlink" viewBox="0 0 3493.16 1950"><defs><style>.cls-1,.cls-3{mask:url(#mask);}.cls-1{filter:url(#luminosity-noclip-5);}.cls-2,.cls-38,.cls-4,.cls-6,.cls-8{mix-blend-mode:multiply;}.cls-2{fill:url(#linear-gradient);}.cls-3{filter:url(#luminosity-noclip-6);}.cls-4{fill:url(#linear-gradient-2);}.cls-5{mask:url(#mask-3);filter:url(#luminosity-noclip-7);}.cls-6{fill:url(#linear-gradient-3);}.cls-7{mask:url(#mask-4);filter:url(#luminosity-noclip-8);}.cls-8{fill:url(#linear-gradient-4);}.cls-9{isolation:isolate;}.cls-10{fill:#fbb03b;}.cls-11{opacity:0.25;}.cls-12{fill:#777;}.cls-13{fill:#f4ad7d;}.cls-14{fill:#19722a;}.cls-15,.cls-16,.cls-21,.cls-23,.cls-25,.cls-39,.cls-40,.cls-41,.cls-42,.cls-43,.cls-44,.cls-45,.cls-48,.cls-49{mix-blend-mode:color-burn;}.cls-15{fill:url(#linear-gradient-5);}.cls-16{fill:url(#linear-gradient-6);}.cls-17{fill:#6c6cff;}.cls-18{fill:#062033;}.cls-19{fill:#529da3;}.cls-20{fill:#0f1b29;}.cls-21{fill:url(#linear-gradient-7);}.cls-22{fill:#101b29;}.cls-23{fill:url(#linear-gradient-8);}.cls-24{fill:#2f8944;}.cls-25{fill:url(#linear-gradient-9);}.cls-26{fill:#ffc648;}.cls-27{fill:url(#Unbenannter_Verlauf_11);}.cls-28{fill:#ff3270;}.cls-29{fill:#f33;}.cls-30{mask:url(#mask-5);}.cls-31{fill:url(#linear-gradient-10);}.cls-32{mask:url(#mask-6);}.cls-33{fill:url(#linear-gradient-11);}.cls-34{mask:url(#mask-7);}.cls-35{fill:url(#linear-gradient-12);}.cls-36{mask:url(#mask-8);}.cls-37{fill:url(#linear-gradient-13);}.cls-38{opacity:0.5;fill:url(#linear-gradient-14);}.cls-39{fill:url(#linear-gradient-15);}.cls-40{fill:url(#linear-gradient-16);}.cls-41{fill:url(#linear-gradient-17);}.cls-42{fill:url(#linear-gradient-18);}.cls-43{fill:url(#linear-gradient-19);}.cls-44{fill:url(#linear-gradient-20);}.cls-45{fill:url(#linear-gradient-21);}.cls-46{fill:#5a322c;}.cls-47{fill:#634c25;}.cls-48{fill:url(#linear-gradient-22);}.cls-49{fill:url(#linear-gradient-23);}.cls-50{filter:url(#luminosity-noclip-4);}.cls-51{filter:url(#luminosity-noclip-3);}.cls-52{filter:url(#luminosity-noclip);}</style><filter id="luminosity-noclip" x="2110.1" y="-9167" width="26" height="32766" filterUnits="userSpaceOnUse" color-interpolation-filters="sRGB"><feFlood flood-color="#fff" result="bg"/><feBlend in="SourceGraphic" in2="bg"/></filter><mask id="mask" x="2110.1" y="-9167" width="26" height="32766" maskUnits="userSpaceOnUse"><g class="cls-52"/></mask><linearGradient id="linear-gradient" x1="2123.1" y1="1647.65" x2="2123.1" y2="936.93" gradientUnits="userSpaceOnUse"><stop offset="0"/><stop offset="0.58" stop-color="#979797"/><stop offset="1" stop-color="#fff"/></linearGradient><linearGradient id="linear-gradient-2" x1="2123.1" y1="1647.65" x2="2123.1" y2="936.93" xlink:href="#linear-gradient"/><filter id="luminosity-noclip-3" x="2053.85" y="-9167" width="82.25" height="32766" filterUnits="userSpaceOnUse" color-interpolation-filters="sRGB"><feFlood flood-color="#fff" result="bg"/><feBlend in="SourceGraphic" in2="bg"/></filter><mask id="mask-3" x="2053.85" y="-9167" width="82.25" height="32766" maskUnits="userSpaceOnUse"><g class="cls-51"/></mask><linearGradient id="linear-gradient-3" x1="2094.98" y1="1647.65" x2="2094.98" y2="936.93" xlink:href="#linear-gradient"/><filter id="luminosity-noclip-4" x="2004.94" y="-9167" width="33.96" height="32766" filterUnits="userSpaceOnUse" color-interpolation-filters="sRGB"><feFlood flood-color="#fff" result="bg"/><feBlend in="SourceGraphic" in2="bg"/></filter><mask id="mask-4" x="2004.94" y="-9167" width="33.96" height="32766" maskUnits="userSpaceOnUse"><g class="cls-50"/></mask><linearGradient id="linear-gradient-4" x1="2021.92" y1="1647.65" x2="2021.92" y2="936.93" xlink:href="#linear-gradient"/><linearGradient id="linear-gradient-5" x1="835.1" y1="617.53" x2="1164.43" y2="681.66" gradientUnits="userSpaceOnUse"><stop offset="0" stop-color="#fff"/><stop offset="1" stop-color="#c2c2c2"/></linearGradient><linearGradient id="linear-gradient-6" x1="1278.07" y1="388.12" x2="1183.82" y2="631.22" xlink:href="#linear-gradient-5"/><linearGradient id="linear-gradient-7" x1="1179.5" y1="1849.3" x2="672.5" y2="380.3" xlink:href="#linear-gradient-5"/><linearGradient id="linear-gradient-8" x1="754.08" y1="1942.32" x2="754.08" y2="636.18" xlink:href="#linear-gradient-5"/><linearGradient id="linear-gradient-9" x1="824.57" y1="434.32" x2="824.57" y2="1281.93" xlink:href="#linear-gradient-5"/><linearGradient id="Unbenannter_Verlauf_11" x1="1778.62" y1="857.25" x2="1778.62" y2="1255.92" gradientUnits="userSpaceOnUse"><stop offset="0" stop-color="#6c6cff"/><stop offset="1" stop-color="#f33"/></linearGradient><filter id="luminosity-noclip-5" x="2110.1" y="1523.83" width="26" height="30.98" filterUnits="userSpaceOnUse" color-interpolation-filters="sRGB"><feFlood flood-color="#fff" result="bg"/><feBlend in="SourceGraphic" in2="bg"/></filter><mask id="mask-5" x="2110.1" y="1523.83" width="26" height="30.98" maskUnits="userSpaceOnUse"><g class="cls-1"><path class="cls-2" d="M2123.1,1523.83a13,13,0,0,0-13,13v5a13,13,0,0,0,26,0v-5A13,13,0,0,0,2123.1,1523.83Z"/></g></mask><linearGradient id="linear-gradient-10" x1="2123.1" y1="1647.65" x2="2123.1" y2="936.93" gradientUnits="userSpaceOnUse"><stop offset="0" stop-color="#fff"/><stop offset="1" stop-color="#fff"/></linearGradient><filter id="luminosity-noclip-6" x="2110.1" y="1425.84" width="26" height="77.57" filterUnits="userSpaceOnUse" color-interpolation-filters="sRGB"><feFlood flood-color="#fff" result="bg"/><feBlend in="SourceGraphic" in2="bg"/></filter><mask id="mask-6" x="2110.1" y="1425.84" width="26" height="77.57" maskUnits="userSpaceOnUse"><g class="cls-3"><path class="cls-4" d="M2123.1,1425.84a13,13,0,0,0-13,13v51.57a13,13,0,1,0,26,0v-51.57A13,13,0,0,0,2123.1,1425.84Z"/></g></mask><linearGradient id="linear-gradient-11" x1="2123.1" y1="1647.65" x2="2123.1" y2="936.93" xlink:href="#linear-gradient-10"/><filter id="luminosity-noclip-7" x="2053.85" y="1293.96" width="82.25" height="111.46" filterUnits="userSpaceOnUse" color-interpolation-filters="sRGB"><feFlood flood-color="#fff" result="bg"/><feBlend in="SourceGraphic" in2="bg"/></filter><mask id="mask-7" x="2053.85" y="1293.96" width="82.25" height="111.46" maskUnits="userSpaceOnUse"><g class="cls-5"><path class="cls-6" d="M2123.1,1294h-56.25a13,13,0,0,0,0,26h43.25v72.46a13,13,0,0,0,26,0V1307A13,13,0,0,0,2123.1,1294Z"/></g></mask><linearGradient id="linear-gradient-12" x1="2094.98" y1="1647.65" x2="2094.98" y2="936.93" xlink:href="#linear-gradient-10"/><filter id="luminosity-noclip-8" x="2004.94" y="1293.96" width="33.96" height="26" filterUnits="userSpaceOnUse" color-interpolation-filters="sRGB"><feFlood flood-color="#fff" result="bg"/><feBlend in="SourceGraphic" in2="bg"/></filter><mask id="mask-8" x="2004.94" y="1293.96" width="33.96" height="26" maskUnits="userSpaceOnUse"><g class="cls-7"><path class="cls-8" d="M2025.9,1294h-8a13,13,0,0,0,0,26h8a13,13,0,0,0,0-26Z"/></g></mask><linearGradient id="linear-gradient-13" x1="2021.92" y1="1647.65" x2="2021.92" y2="936.93" xlink:href="#linear-gradient-10"/><linearGradient id="linear-gradient-14" x1="1479.74" y1="1299.25" x2="1479.74" y2="1872.98" gradientUnits="userSpaceOnUse"><stop offset="0" stop-color="#fff"/><stop offset="1" stop-color="#a8a8a8"/></linearGradient><linearGradient id="linear-gradient-15" x1="691.05" y1="669.28" x2="997.2" y2="747.28" xlink:href="#linear-gradient-5"/><linearGradient id="linear-gradient-16" x1="1127" y1="363.87" x2="1003.06" y2="691.47" xlink:href="#linear-gradient-5"/><linearGradient id="linear-gradient-17" x1="1082.91" y1="394.02" x2="1082.91" y2="530.94" xlink:href="#linear-gradient-5"/><linearGradient id="linear-gradient-18" x1="11140.22" y1="1801.91" x2="11140.22" y2="390.09" gradientTransform="matrix(-1, 0, 0, 1, 13762.58, 0)" xlink:href="#linear-gradient-5"/><linearGradient id="linear-gradient-19" x1="11075.13" y1="498.75" x2="11511.93" y2="923.41" gradientTransform="matrix(-1, 0, 0, 1, 13762.58, 0)" xlink:href="#linear-gradient-5"/><linearGradient id="linear-gradient-20" x1="10960.61" y1="1801.91" x2="10960.61" y2="390.09" gradientTransform="matrix(-1, 0, 0, 1, 13762.58, 0)" xlink:href="#linear-gradient-5"/><linearGradient id="linear-gradient-21" x1="11026.65" y1="479.17" x2="11026.65" y2="1222.79" gradientTransform="matrix(-1, 0, 0, 1, 13762.58, 0)" xlink:href="#linear-gradient-5"/><linearGradient id="linear-gradient-22" x1="6899.58" y1="745.13" x2="6899.58" y2="332.07" gradientTransform="matrix(-1, 0, 0, 1, 9350.14, 0)" gradientUnits="userSpaceOnUse"><stop offset="0" stop-color="#fff"/><stop offset="1" stop-color="#a0a0a0"/></linearGradient><linearGradient id="linear-gradient-23" x1="10799.43" y1="443.18" x2="10846.24" y2="1025.58" gradientTransform="matrix(-1, 0, 0, 1, 13762.58, 0)" xlink:href="#linear-gradient-5"/></defs><g class="cls-9"><g id="Layer_1" data-name="Layer 1"><rect class="cls-10" width="3493.16" height="1950"/><g class="cls-11"><path class="cls-12" d="M3068.88,1780.28a37.8,37.8,0,0,0-37.7-37.7H467.82a37.81,37.81,0,0,0-37.7,37.7h0a37.81,37.81,0,0,0,37.7,37.7H3031.18a37.8,37.8,0,0,0,37.7-37.7Z"/></g><path class="cls-13" d="M1110.91,611.83s67.22,14,86.36,21.76c13.71,5.57,4.45,24-1.06,35.36s-51.87,20.1-91.36,14.63C1074.62,679.38,1105.34,614,1110.91,611.83Z"/><path class="cls-14" d="M913.14,569c66.61,3.32,226.6,42.87,226.6,42.87s6.37,17.79-2.8,53.66c-13.77,53.88-33.38,67.86-33.38,67.86S1022.83,722,956.21,709.51C923.64,703.4,866.47,566.64,913.14,569Z"/><path class="cls-15" d="M1196.21,669c5.51-11.39,14.77-29.79,1.06-35.36-10.55-4.28-35.68-10.44-56.13-15.12a38.83,38.83,0,0,0-1.4-6.64s-2.5-.62-7-1.71c7.43,1.79,3,31.84-1,46.5-6.39,23.07-12.35,26-48.32,20.41s-24.19-26.91-17.55-55.51c4.39-18.88,5-25.66,13.47-23.79C1026.84,586,953.16,571,913.14,569c-46.67-2.32,10.5,134.44,43.07,140.55,66.62,12.51,147.35,23.84,147.35,23.84s14.65-10.47,27.52-48.1C1162.56,685.13,1191.9,677.84,1196.21,669Z"/><path class="cls-13" d="M1144.91,647.27c15.47-66.8,102.17-181.69,113.94-222.66,5.79-20.15,47.76-31.4,39.53-9.2-6.42,17.31-60.29,165.88-77.73,209.68-12.25,33.67-26.27,53.35-41.51,51.87C1157.46,674.84,1139.16,672.06,1144.91,647.27Z"/><path class="cls-16" d="M1258.85,424.61c-11.77,41-98.47,155.86-113.94,222.66-5.75,24.79,12.55,27.57,34.23,29.69,11.31,1.1,21.93-9.47,31.67-28.73-6,10.81-16.71,11.35-32.07,7.3-16.47-4.33-11.48-15.38-2.38-40.08s15.76-32.61,28.06-32.61,33.24-2.35,28,11.63c22.76-60.32,60.64-164.72,66-179.06C1306.61,393.21,1264.64,404.46,1258.85,424.61Z"/><path class="cls-17" d="M1648.62,480.05h-398.3a23.4,23.4,0,1,0,0,46.8h398.3a106.72,106.72,0,0,1,106.6,106.6V1091.9a23.4,23.4,0,0,0,46.8,0V633.45C1802,548.87,1733.21,480.05,1648.62,480.05Z"/><path class="cls-17" d="M769.7,480.05H664.57a23.4,23.4,0,1,0,0,46.8H769.7a23.4,23.4,0,0,0,0-46.8Z"/><path class="cls-17" d="M1166.44,480.05H853.57a23.4,23.4,0,0,0,0,46.8h312.87a23.4,23.4,0,0,0,0-46.8Z"/><path class="cls-17" d="M580.69,480.05H547a23.4,23.4,0,1,0,0,46.8h33.72a23.4,23.4,0,0,0,0-46.8Z"/><path class="cls-18" d="M1569.15,420.63a10.4,10.4,0,0,0-10.4,10.4v16.88a10.4,10.4,0,1,0,20.8,0V431A10.4,10.4,0,0,0,1569.15,420.63Z"/><path class="cls-18" d="M1601.65,269.36a43,43,0,0,0-42.9,42.9v7.1H548.36c-70.74,0-128.34,57.42-128.64,128.11v.88C420,519,477.62,576.47,548.36,576.47H1558.75v7.1a42.9,42.9,0,1,0,85.8,0V312.26A43,43,0,0,0,1601.65,269.36Zm22.1,314.21a22.1,22.1,0,1,1-44.2,0v-35.5a10.4,10.4,0,1,0-20.8,0v7.6H548.36A108,108,0,0,1,440.52,448v-.1A108,108,0,0,1,548.36,340.16H1558.75V395.5a10.4,10.4,0,1,0,20.8,0V312.26a22.1,22.1,0,1,1,44.2,0Z"/><path class="cls-19" d="M974.5,937.57s104.82,261.54,123.65,314.76-76.53,106.08-132.35,50.45-131.66-133.77-160.73-202S770.5,973.39,802.84,912.2,946.34,867.08,974.5,937.57Z"/><path class="cls-20" d="M1177.74,1758.44S1094,1736.91,1087.9,1735c-6.75-2.12-17.41-6-18.7,16.2s-2.07,29.08-2.07,29.08,97,.22,107.42-1S1193.21,1770.27,1177.74,1758.44Z"/><path class="cls-19" d="M1012.66,1222.35c55.81-9.34,86.48,13.13,87.55,43.42,2.44,69.12-2.32,69.48-1.85,153.13.21,39.19,3.54,112.41,4.24,180h-65.14c-25.52-83.2-66.52-241.39-76.15-279.42C949.07,1271.31,956.86,1231.71,1012.66,1222.35Z"/><path class="cls-13" d="M1101.55,1743.48s-5.25,6.72-12.28,6.55c-10.57-.23-12.46-6-12.46-6s-6-59.4-20.4-97.47c-3.06-8-8.53-24.3-15.37-47.7H1100C1100.78,1674.31,1101.55,1743.48,1101.55,1743.48Z"/><path class="cls-21" d="M1177.74,1758.44l-13.14-3.38c15.24,3.62,7,17.83-8,17.83s-37.81-1.2-55.09-1.2-16.52-6.17-16.52-32.82-11.38-73.45-21.78-124.8-61.1-273.65-67-315.25-8.45-42.25-30.25-68.9-59.45-54.6-64-103.35,36.19-35.75,68.25-44,51.38-26.7,60.1-4.71h0c-29-73.16-55.9-140.3-55.9-140.3C946.34,867.08,835.16,851,802.84,912.2s-26.81,120.28,2.23,188.55c27.53,64.64,97,138.16,151.68,193a161.74,161.74,0,0,0,4.56,25.75c9.63,38,50.63,196.22,76.15,279.42H1041c6.84,23.4,12.31,39.67,15.37,47.7,10.88,28.66,16.93,69.39,19.27,87.79-3.29,1.87-5.88,6.55-6.48,16.78-1.26,22.15-2.07,29.08-2.07,29.08s97,.22,107.42-1S1193.21,1770.27,1177.74,1758.44Z"/><path class="cls-19" d="M847.33,949s38.08,279.18,43.41,335.38-100,84.3-140.65,16.77-95.18-161.77-106.78-235S640.74,934.19,687,882.69,837.16,873.81,847.33,949Z"/><path class="cls-19" d="M732.16,1374.23c3.41-48.57,23.31-147.31,78.08-138.9s82.71,51.89,80,61.35c-13.9,48.11-66.25,196-106.88,309.22l-62.05-13.14C723.4,1522.88,729.59,1410.89,732.16,1374.23Z"/><path class="cls-13" d="M721.28,1592.76l62.05,13.14c-28.27,78.8-48.2,133.53-48.2,133.53s-1.37,8.66-14.7,6.78c-9.95-1.4-9.68-9.85-9.68-9.85s11.79-53,10-92.83C720.33,1633.75,720.59,1615.48,721.28,1592.76Z"/><path class="cls-22" d="M748.3,1751.79a44.88,44.88,0,0,0-.63-5.69c-2.58-15.23-11.63-12.11-17.59-10.26-1.1.34-4.76,1.32-10,2.67-5.22-1.44-8.82-2.61-10-2.85-43.25-9.06-38.7,44.1-38.7,44.1s31.1.18,48.29.37,30.49.15,30.49.15S749.44,1773.48,748.3,1751.79Z"/><path class="cls-23" d="M847.33,949C837.16,873.81,733.23,831.19,687,882.69s-55.25,110.16-43.68,183.44c11.32,71.53,63.57,163.06,103.85,230.17-9,26.92-13.54,57-15,77.93-2.56,36.66-10.91,148.19-13,218.07l12.44,2.64-10.29-2.18c-.68,22.72-.95,41-.51,50.77,1.67,37.58-8.72,86.88-9.9,92.32l-.74-.19c-43.24-9.06-38.69,44.1-38.69,44.1s31.09.18,48.28.37,30.49.15,30.49.15-.46-4.12-1.2-16.06h0c0,7.34-35.45,5.41-48.24,5.41s-19.06.43-12.78-16.69,25.56-4,28.81-9.53,6.5-16.9,11.7-51.35,13-103.35,18.54-164.45,33.46-221,36.71-232.7-33.15-99.45-55.25-139.1-31.52-73.45-3.25-68.89,87.75,2.91,107.25.31,34.89,11.16,36.92,26.42C858.39,1030.1,847.33,949,847.33,949Z"/><path class="cls-24" d="M899.25,567.57c65.25,2.9,82.63,7.57,83.49,73.77,2.89,225,20.44,294,35.66,393.58,0,0-34.51,42.44-175.07,37.55-182.55-6.34-212.6-30-212.6-30s24.68-277.42,76-405c25-62.08,61.12-70,133.67-73.06C861.13,563.62,877.38,566.61,899.25,567.57Z"/><path class="cls-25" d="M1018.4,1034.92q-.35-2.28-.69-4.53c-32.59,20.38-138.84,31.4-193.14,22.3-57.09-9.57-65.73-21.67-66.17-95.77-.57-97.95,8.24-174.85,35.54-169.84S917.44,809.59,920,810s14.73-2.82,25.56-20.58,13-38.57,13.87-39.44,3.47,0,11.08,0,15.1-.64,15.59,10h0c-1.64-34.23-2.82-73.26-3.4-118.65.52,14.62-23.27,10.94-36,6.18s-6.07-11.92-2.17-25.35,2-33.37,11.92-32.29,21.4,5.84,24.62,25.22c-5.62-41.33-26.53-45.07-81.81-47.53-21.87-1-38.12-4-58.81-3.1-72.55,3-108.66,11-133.67,73.06-51.36,127.53-76,405-76,405s30,23.65,212.6,30C983.89,1077.36,1018.4,1034.92,1018.4,1034.92Z"/><path class="cls-26" d="M947.61,563.23c31.33-19.28,68.55-160.68,36.06-173.07-73.59-28.05-87.09,16.27-126.66,17.56-20.13.65-45.75,21.23-41.31,69.58,3.16,34.57-19.6,97,8,119.92,10,8.32,35-20.37,68.81-31.54S947.61,563.23,947.61,563.23Z"/><path class="cls-14" d="M933.22,571c3.66,26.34,19.2,84.84-42.83,78.72-72.87-7.15-84.95-83.44-80.46-91.79,10.18-19,38.73-7,57.11-5S930.12,548.62,933.22,571Z"/><path class="cls-13" d="M829.17,557.3c3.56-.12,7.14-.17,10.87-.12,20.72.36,37,2.73,58.51,6.54a123.35,123.35,0,0,1,18.75,4.74c1.46,17.07,16,64.83-30.74,61.55C838.53,626.63,827.34,573.51,829.17,557.3Z"/><path class="cls-13" d="M852.25,550.44c19-49.17,28.72-55.16,48.9-91.7.2-1.43,62.66,18.33,81.7-9.29,0,0-6.34,37-15.94,68.26-9.06,29.51-20.18,44.69-47.84,26.38-1.91,14.75-9,30.91-10.47,43.86-3.09,26.11-22,29.47-34,26.25S834.64,595.94,852.25,550.44Z"/><path class="cls-13" d="M868.21,466.08c-5.34,6.63-1.72,18.4,8.1,26.31s17.36,4.93,22.7-1.69,6.46-14.42-3.38-22.32S873.54,459.46,868.21,466.08Z"/><path class="cls-27" d="M1802,1235.27V838.19h-46.8v397.08a45.75,45.75,0,0,1-45.69,45.69h138.19A45.75,45.75,0,0,1,1802,1235.27Z"/><path class="cls-18" d="M1698.74,781.64H1684a10.4,10.4,0,0,0,0,20.8h14.73a10.4,10.4,0,1,0,0-20.8Z"/><path class="cls-18" d="M1634.18,781.64H1516.74a10.4,10.4,0,0,0,0,20.8h117.44a10.4,10.4,0,0,0,0-20.8Z"/><path class="cls-18" d="M2210.94,716.64H1211.47a42.9,42.9,0,0,0,0,85.8h17.28L1331.56,955.9c14.74,22,27.18,63,27.18,89.42v643.51a91.55,91.55,0,0,0,91.45,91.45h656.87a91.55,91.55,0,0,0,91.44-91.45V802.44h12.44a42.9,42.9,0,1,0,0-85.8Zm0,65h-60.89a10.4,10.4,0,0,0,0,20.8h27.65v886.39a70.72,70.72,0,0,1-70.64,70.65H1450.19a70.73,70.73,0,0,1-70.65-70.65V1045.32c0-30.41-13.77-75.72-30.7-101l-95-141.89h211.83a10.4,10.4,0,1,0,0-20.8H1211.47a22.1,22.1,0,0,1,0-44.2h999.47a22.1,22.1,0,0,1,0,44.2Z"/><path class="cls-28" d="M2137.38,1281H1419.86a11.74,11.74,0,0,0-11.72,11.72v396.15a42.09,42.09,0,0,0,42,42.05h656.87a42.09,42.09,0,0,0,42-42.05V1292.68A11.74,11.74,0,0,0,2137.38,1281Z"/><path class="cls-29" d="M2137.38,1281H1419.86a11.74,11.74,0,0,0-11.72,11.72v396.15a42.09,42.09,0,0,0,42,42.05h656.87a42.09,42.09,0,0,0,42-42.05V1292.68A11.74,11.74,0,0,0,2137.38,1281Z"/><g class="cls-30"><path class="cls-31" d="M2123.1,1523.83a13,13,0,0,0-13,13v5a13,13,0,0,0,26,0v-5A13,13,0,0,0,2123.1,1523.83Z"/></g><g class="cls-32"><path class="cls-33" d="M2123.1,1425.84a13,13,0,0,0-13,13v51.57a13,13,0,1,0,26,0v-51.57A13,13,0,0,0,2123.1,1425.84Z"/></g><g class="cls-34"><path class="cls-35" d="M2123.1,1294h-56.25a13,13,0,0,0,0,26h43.25v72.46a13,13,0,0,0,26,0V1307A13,13,0,0,0,2123.1,1294Z"/></g><g class="cls-36"><path class="cls-37" d="M2025.9,1294h-8a13,13,0,0,0,0,26h8a13,13,0,0,0,0-26Z"/></g><path class="cls-38" d="M1522.24,1688.83V1292.68c0-6.46,3.64-11.72,8.1-11.72H1419.86a11.74,11.74,0,0,0-11.72,11.72v396.15a42.09,42.09,0,0,0,42,42.05h101.15C1535.3,1730.88,1522.24,1712,1522.24,1688.83Z"/><path class="cls-13" d="M937.43,663.78s65.69,20,84.05,29.44c13.16,6.78,2.29,24.28-4.22,35.12S963.79,743.7,925,734.69C895.21,727.8,931.7,665.42,937.43,663.78Z"/><path class="cls-14" d="M777.33,609c65.37,13.22,191.92,54.82,191.92,54.82s-.24,16.91-7.61,53.2c-12.62,62.16-28.37,70.1-28.37,70.1S804.13,775.54,738.64,758C691.67,745.45,701.69,593.67,777.33,609Z"/><path class="cls-39" d="M1017.26,728.34c6.51-10.84,17.38-28.34,4.22-35.12-9.85-5.07-33.3-13.16-52.94-19.58.67-6.64.71-9.86.71-9.86l-3.47-1.13c-1.39,23.24-12.29,58.2-26.68,63.19-15.92,5.53-76.69-1.19-130-12.89S704.75,687.41,717.23,652c-14.32,41.55-6.58,98.49,21.41,106,65.49,17.52,194.63,29.06,194.63,29.06s11.81-6,23.18-48C985.72,740.86,1012.47,736.32,1017.26,728.34Z"/><path class="cls-13" d="M966.49,707.47c11.31-67.63,90.1-195.15,109.13-240.51,4.69-11.17,35.13-15.31,29.72-.39-6.3,17.35-49.92,169.28-64.62,214.08-10.15,34.37-22.92,54.87-38.23,54.33C980.73,734.21,962.29,732.57,966.49,707.47Z"/><path class="cls-40" d="M1075.62,467c-19,45.36-97.82,172.88-109.13,240.51-4.2,25.1,14.24,26.74,36,27.51,12.92.46,24-14.12,33.28-39.32-8.26,20.77-20.94,28.55-36.65,26.83s-18.63-16-12.78-37.24,81.63-186.58,87-198.61,6.18-12.13,13.87-12.46,15.65-.05,13.13,8.06h0c2.34-7.62,4.08-13.12,5-15.67C1110.75,451.65,1080.31,455.79,1075.62,467Z"/><path class="cls-13" d="M1055.46,464.61c-8.15-3-22.45-16.9-19-22.87,7-12.11,15.25,5.44,36.08,7.28,13.27,1.17,18.16,21.13,18.16,21.13S1072.37,470.82,1055.46,464.61Z"/><path class="cls-13" d="M1128.43,424.14c4.26,20.93-.4,44.57-20.18,44.85-9.26.13-27.84,2.5-37.48-.46-15.51-4.76-20.91-17.83-8.77-55.88C1067.87,394.21,1124.56,405.15,1128.43,424.14Z"/><path class="cls-41" d="M1128.43,424.14c-1.25-6.17-8.11-11.48-17-15.22,11.75,5,12.68,12.68,10,31.25-2.76,18.85-13.21,21.88-33.8,21.55s-36.84-3.68-43-11.37c-6-7.5-2.65-13.65,1.41-11.88-3.84-1.66-6.8-1.5-9.56,3.27-3.46,6,10.84,19.88,19,22.87a88.8,88.8,0,0,0,15.88,4.07,49.8,49.8,0,0,0,12,1.32c4.47.25,7.34.15,7.34.15l-.08-.27c6.68-.26,13.21-.83,17.62-.89C1128,468.71,1132.69,445.07,1128.43,424.14Zm-58.13-11.71c5.49-7.18,9.83-9.24,13.06-9.25-10.48,0-19.23,2.82-21.36,9.47-4.16,13.05-6.22,23.1-6.56,30.94,2.66,1.35,6.43,3,6.43,3S1064.67,419.8,1070.3,412.43Z"/><path class="cls-20" d="M2482.46,1758.44s83.75-21.53,89.84-23.46c6.76-2.12,17.41-6,18.7,16.2s2.08,29.08,2.08,29.08-97,.22-107.42-1S2467,1770.26,2482.46,1758.44Z"/><path class="cls-19" d="M2551.33,942.89s4.89,281.72,8.18,338.08,111.71,68.07,141.56-4.85,69.43-174.39,69.73-248.58-17.57-130.79-71.12-174.64S2549.92,867,2551.33,942.89Z"/><path class="cls-19" d="M2647.55,1222.34c-55.82-9.33-86.48,13.14-87.55,43.43-2.44,69.12,2.32,69.48,1.85,153.13-.21,39.19-3.54,112.41-4.24,180h65.14c25.51-83.2,66.51-241.4,76.15-279.42C2711.14,1271.31,2703.35,1231.7,2647.55,1222.34Z"/><path class="cls-13" d="M2558.66,1743.48s5.25,6.71,12.28,6.55c10.57-.23,12.46-6,12.46-6s5.95-59.4,20.4-97.47c3.06-8,8.53-24.3,15.37-47.7h-59C2559.43,1674.31,2558.66,1743.48,2558.66,1743.48Z"/><path class="cls-42" d="M2482.46,1758.44s3.46-.88,9-2.31c-.11,21.16,46.26,17.3,67.22,17.3s18.36-9.75,18.36-32.82,10.51-71.5,23.95-127.4,38.56-186.77,60.09-294.64,40.87-133.06,22.89-208.24-40.95-74.65-80.28-90.9c-26.33-10.88-43.24-25.37-51.57-33.78-.48-26-.77-42.76-.77-42.76-1.41-75.89,94.81-133.84,148.35-90s71.39,100.45,71.12,174.64c-.29,72.64-38.21,171.43-67.84,244,2.16,14.19.38,30.52-4.06,48-9.64,38-50.64,196.22-76.15,279.42h-3.58c-6.84,23.4-12.31,39.66-15.37,47.7-10.88,28.66-16.94,69.39-19.27,87.78,3.28,1.88,5.88,6.56,6.47,16.79,1.27,22.14,2.08,29.08,2.08,29.08s-97,.22-107.42-1S2467,1770.26,2482.46,1758.44Z"/><path class="cls-13" d="M2530.47,790.34c-54.13-42.08-233.06-91.74-255.68-114.78-14.69-15-36.7,14.3-16.31,26.34,15.9,9.39,158.06,96,199.23,119,30.74,18.41,54,24.85,64.92,14.07C2538.11,819.65,2550.57,806,2530.47,790.34Z"/><path class="cls-13" d="M2514.36,736.33s-26.26,63.46-30.59,83.64c-3.13,14.48,17.3,17.17,29.81,19s45.81-31.58,63.5-67.31C2590.62,744.34,2519.26,732.93,2514.36,736.33Z"/><path class="cls-29" d="M2626.57,529.71c-40.5,53-138,235.84-138,235.84s8,17.13,39.71,36.2c47.68,28.62,71.45,24.79,71.45,24.79s35.91-42.41,74.5-98.15c18.86-27.24,31.14-57.62,17.17-128C2682.87,557.11,2651.08,497.65,2626.57,529.71Z"/><path class="cls-43" d="M2274.79,675.56c18.4,18.74,140.23,55.1,214.18,90.66-.23-.42-.35-.67-.35-.67s2.6-4.88,7.1-13.23c5.16,20.59,4.81,31.27-16.3,31.27-22.32,0-32.94-.21-30.55,1.09a201.88,201.88,0,0,0,39.75,18.84c21.77,7.37,38-7.36,66-58.71s51.61-113.23,57.23-159.81c4.5-37.17,35.41-39.21,62.24-33.57a187.66,187.66,0,0,1,17.38,48.92c14,70.42,1.69,100.8-17.17,128-38.59,55.74-74.5,98.15-74.5,98.15s-16.84,2.71-50.58-13.48c-12.7,14.57-25.48,24.75-33.2,25.89-12.42,4.21-32.78-2.78-58.29-18.06-41.17-23-183.33-109.6-199.23-119C2238.09,689.86,2260.1,660.6,2274.79,675.56Z"/><path class="cls-22" d="M2798.88,1751.79a48.87,48.87,0,0,1,.63-5.69c2.58-15.23,11.63-12.11,17.59-10.26,1.1.34,4.76,1.32,10,2.67,5.22-1.44,8.86-2.48,10-2.85,5.92-2,14.93-5.22,17.78,10a49.39,49.39,0,0,1,.73,5.67c1.51,21.68,2.38,28.47,2.38,28.47s-13.28.18-30.47.37-30.5.15-30.5.15S2797.74,1773.48,2798.88,1751.79Z"/><path class="cls-19" d="M2684.52,964.08s49.76,276.61,71.39,349.27c15.78,53,125.52,56.31,142.07-19.07s19.59-199.68,22-383.81C2921.16,821.33,2670.39,891.09,2684.52,964.08Z"/><path class="cls-19" d="M2891.94,1384.52c6.28-48.29,6.36-149-49-151.62s-91.36,34.44-90.55,44.26c4.08,49.92,22.79,205.26,40.15,324.31l68.89-.63C2873.23,1531.93,2887.18,1421,2891.94,1384.52Z"/><path class="cls-13" d="M2859.24,1600.86l-63.41.58c12.07,82.83,20.75,140.43,20.75,140.43s-.38,8.76,13.06,9.56c10,.61,11.44-7.73,11.44-7.73s-1-54.29,8.6-93C2852,1641.23,2855.42,1623.27,2859.24,1600.86Z"/><path class="cls-44" d="M2920,910.47c-2.42,184.13-5.49,308.43-22,383.81a76.34,76.34,0,0,1-4.85,14.7c2.91,27.07,1.39,55.72-1.19,75.54-4.76,36.44-18.71,147.41-30.5,216.32l-7.58.07,5.38-.05c-3.82,22.41-7.2,40.37-9.56,49.86-7.2,28.94-8.44,66.59-8.61,83.74,5.39-1.3,11.5-.86,13.76,11.16a49.39,49.39,0,0,1,.73,5.67c1.51,21.68,2.38,28.47,2.38,28.47s-13.28.18-30.47.37-30.5.15-30.5.15.34-3,.9-11.26c26.39.29,49.88,2.84,49.88-3.93,0-7.15,1.08-14.94-3.9-14.94s-7.37-.55-7.37-16.19-3-34.92,2.81-95.38,10-196.49,18.63-281.42,18.41-171.54,13.21-242.4-38.37-72-93.62-71.38c-34.77.4-62.85-1.42-78.9-2.82-8.38-44.76-14.09-76.48-14.09-76.48C2670.39,891.09,2921.16,821.33,2920,910.47Z"/><path class="cls-29" d="M2702.28,514.33c-65.24-3.13-83-.07-89.92,65.76-23.61,223.77-56,273.48-66.43,389.5,0,0,25.12,44.57,165.53,52.65,182.35,10.49,214.46-10.28,214.46-10.28s1-278.52-38.43-410.24c-19.18-64.12-54.4-75.38-126.37-85.06C2740.59,513.91,2724.14,515.38,2702.28,514.33Z"/><path class="cls-45" d="M2711.46,1022.24c-140.41-8.08-165.53-52.65-165.53-52.65.27-3,.55-5.93.85-8.84,55.92,46.31,159.47,51.21,214.52,51.21,61.75,0,64.57-17.12,70.63-98.58s-19.28-296.62-19.28-328.47-33.15-18.2-56.58,3.9-65,22.53-91,4.77-5.81-63.53-21.67-62-28,27.4-31.6,53.39h0c.18-1.64.35-3.25.53-4.91,6.94-65.83,24.68-68.89,89.92-65.76,21.86,1,38.31-.42,58.84,2.33,72,9.68,107.19,20.94,126.37,85.06,39.41,131.72,38.43,410.24,38.43,410.24S2893.81,1032.73,2711.46,1022.24Z"/><path class="cls-46" d="M2627.25,436c-31.94-18.26-50.55-100.73-18.49-114.16,72.64-30.44,87.58,13.43,127.17,13.43,20.14,0,46.42,19.73,43.55,68.2-2,34.65-16.51,55.82-43.31,79.62-9.75,8.64-19.55-36.37-53.73-46.44S2627.25,436,2627.25,436Z"/><path class="cls-18" d="M2668.14,514.57c-6.07,25.88-26.93,82.7,35.4,82.33,73.23-.41,92.27-75.27,88.58-84-8.4-19.87-37.93-10.55-56.42-10.19S2673.28,492.62,2668.14,514.57Z"/><path class="cls-13" d="M2773,510.55c-3.52-.44-7.09-.82-10.81-1.11-20.67-1.55-37.07-.69-58.86,1.12a123.91,123.91,0,0,0-19.1,3c-3,16.87-21.93,63.08,24.94,64.13C2757.3,578.73,2773.34,526.87,2773,510.55Z"/><path class="cls-13" d="M2749.5,492.67c-20.62-48.53-30.49-54.2-51.85-90.06-.25-1.43-62,20.35-82-6.63,0,0,7.53,36.76,18.14,67.7,10,29.2,21.62,44,48.68,24.81,2.38,14.68,9.94,30.6,11.88,43.5,3.93,26,22.91,28.75,34.84,25.13S2768.58,537.57,2749.5,492.67Z"/><path class="cls-13" d="M2238.52,648.37c.37-8.66,9.28-26.52,16-25,13.67,3-.56,16.19,4,36.6,2.92,13-14.61,23.71-14.61,23.71S2237.75,666.39,2238.52,648.37Z"/><path class="cls-47" d="M2493.11,766.47c1.54,6.31-2.53,10.84-9,10.84H2298.76c-6.48,0-13-4.53-14.57-10.84l-59.67-246.25c-1.52-6.31,2.53-10.71,9-10.71h185.33c6.48,0,13.05,4.4,14.57,10.71Z"/><path class="cls-48" d="M2493.11,766.47l-59.67-246.25c-1.52-6.31-8.09-10.71-14.57-10.71h-11.2c6.49,0,13,4.72,14.57,11l59.67,246.16c1.53,6.31-2.53,10.62-9,10.62h11.21C2490.58,777.31,2494.65,772.78,2493.11,766.47Z"/><path class="cls-13" d="M2284.28,710.37c-18.63,10.42-27.59,8.39-33.88-10.37-2.94-8.78-10.84-25.76-11-35.84-.18-16.22-4.34-20.56,35.59-20.56C2294.39,643.58,2301.19,700.91,2284.28,710.37Z"/><path class="cls-13" d="M3018.46,748.92c-40.65,55.23-71.42,195.83-94.86,231.43-11.52,17.52,7.26,56.7,18.75,36,9-16.14,86.67-153.75,108.57-195.5,17.59-31.22,23.4-54.67,12.35-65.27C3047.55,740.5,3033.53,728.41,3018.46,748.92Z"/><path class="cls-13" d="M3017.42,690s41,55.09,50.13,73.6c6.57,13.27-12.57,20.89-24.25,25.74s-52.14-19.4-78-49.71C2945.44,716.42,3011.83,687.9,3017.42,690Z"/><path class="cls-29" d="M2864.57,551.41c55.7,36.67,185,160.6,185,160.6s-3.54,18.56-29.65,44.82c-39.21,39.43-63.2,41.53-63.2,41.53S2931,781.73,2880,737.14c-25-21.8-43.48-40.21-58.26-117.73C2813.46,576.11,2825.53,525.72,2864.57,551.41Z"/><path class="cls-49" d="M2864.57,551.41c55.7,36.67,185,160.6,185,160.6s-1.05,5.33-6,14.25c7.13,10.2,14.25,20.72,19.19,28.83l.51.49a18.25,18.25,0,0,1,5.22,10.43,10,10,0,0,1,.35,3.68c.48,12.44-6,30-17.92,51.16-21.9,41.75-99.61,179.36-108.57,195.5-11.49,20.7-30.27-18.48-18.75-36,4.3-6.51,8.84-16.57,13.63-29,13,16.38,8,46.7,12.79,38.46,5.63-9.75,29-58.5,58.93-132s39.65-78,24.05-98.15-55.25-48.1-121.55-104-89.72-36.36-76.6,15.59c-4.7-13.7-9.06-30.56-13.14-51.94C2813.46,576.11,2825.53,525.72,2864.57,551.41Z"/><path class="cls-13" d="M2936.88,961.88c-2.82-8.2-16.45-22.78-22.48-19.44-12.25,6.77,5.14,15.35,6.56,36.22.9,13.29,20.76,18.57,20.76,18.57S2942.75,978.92,2936.88,961.88Z"/><path class="cls-13" d="M2910.69,1034.34c20.83,4.68,28.83.18,29.51-19.59.33-9.25,3.06-27.79.3-37.48-4.45-15.61-1.69-20.95-40-9.57C2882,973.21,2891.78,1030.1,2910.69,1034.34Z"/><path class="cls-13" d="M2730.81,408.87c5.55,6.46,2.31,18.34-7.24,26.56s-17.2,5.5-22.74-.95-6.93-14.2,2.65-22.42S2725.27,402.43,2730.81,408.87Z"/><path class="cls-18" d="M2783.69,752a53.14,53.14,0,0,0-84.05-60.5,53.12,53.12,0,0,0-94.28,38.29h0s.16,56.83,81.19,110v.09l.08,0,.07,0v-.08C2757.18,809.35,2778.06,767.92,2783.69,752Z"/><path class="cls-46" d="M2645,451.42s-27.69-2.23-25.85,17.09c2.51,26.38-11.22,19.63-11.22,19.63s17.86,24.16,28.18,3.62c6.94-13.8-3.58-27.33,9.48-31.42C2650.32,458.85,2645,451.42,2645,451.42Z"/><path class="cls-46" d="M2642.27,452.2s22.23-16.67,31,.64c12,23.66,20,10.61,20,10.61s-2.2,30-21.9,18.11c-13.23-8-11.55-25-24.78-21.5C2641.71,461.34,2642.27,452.2,2642.27,452.2Z"/></g></g></svg>