<?xml version="1.0" encoding="utf-8"?>
<!-- Generator: Adobe Illustrator 24.3.0, SVG Export Plug-In . SVG Version: 6.00 Build 0)  -->
<svg version="1.1" id="Ebene_1" xmlns="http://www.w3.org/2000/svg" xmlns:xlink="http://www.w3.org/1999/xlink" x="0px" y="0px"
	 viewBox="0 0 2258.8 980" style="enable-background:new 0 0 2258.8 980;" xml:space="preserve">
<style type="text/css">
	.st0{fill:#42C4CE;}
	.st1{fill:#8CB347;}
	.st2{fill:#603E2A;}
	.st3{fill:#6D6E71;}
	.st4{fill:#F5F7FC;}
	.st5{fill:#035B0B;}
	.st6{fill:#F7941D;}
	.st7{fill:#A7A9AC;}
	.st8{fill:#F26522;}
	.st9{fill:#231F20;}
	.st10{fill:#D3054A;}
	.st11{fill:#414042;}
	.st12{fill:#BC0442;}
	.st13{fill:none;stroke:#AA7117;stroke-width:5;stroke-miterlimit:10;}
	.st14{fill:#7307D1;}
	.st15{fill:#E2CD0C;}
	.st16{fill:#808285;}
	.st17{fill:#939598;}
	.st18{fill:#D1D3D4;}
	.st19{fill:#88C7D0;}
	.st20{opacity:0.2;fill:#BC0442;enable-background:new    ;}
	.st21{fill:#7C0BF4;}
	.st22{fill:#FFFFFF;stroke:#EFEFEF;stroke-width:2;stroke-linecap:round;stroke-linejoin:round;stroke-miterlimit:10;}
	.st23{fill:#034406;}
	.st24{fill:#F1F2F2;}
	.st25{fill:#F4D311;}
	.st26{fill:#15CDFF;}
	.st27{fill:#EFEFEF;stroke:#EFEFEF;stroke-width:2;stroke-linecap:round;stroke-linejoin:round;stroke-miterlimit:10;}
	.st28{fill:#EFEFEF;stroke:#FCFCFC;stroke-width:2;stroke-linecap:round;stroke-linejoin:round;stroke-miterlimit:10;}
	.st29{fill:#FFFFFF;stroke:#EFEFEF;stroke-miterlimit:10;}
	.st30{opacity:0.4;fill:#511300;enable-background:new    ;}
	.st31{fill:#C9BB09;}
	.st32{fill:#096B0D;stroke:#096B0D;stroke-width:3;stroke-linecap:round;stroke-linejoin:round;stroke-miterlimit:10;}
	.st33{fill:#FFFFFF;}
	.st34{fill:none;stroke:#CECECE;stroke-width:5;stroke-miterlimit:10;}
	.st35{fill:none;stroke:#CECECE;stroke-width:6;stroke-linejoin:round;stroke-miterlimit:10;}
	.st36{fill:#FFCE00;}
	.st37{fill:none;stroke:#000000;stroke-width:1.8149;stroke-miterlimit:9.9994;}
	.st38{fill:none;stroke:#000000;stroke-width:1.8153;stroke-miterlimit:10.0006;}
	.st39{fill:none;stroke:#000000;stroke-width:1.8153;stroke-miterlimit:10.0008;}
	.st40{fill:none;stroke:#000000;stroke-width:1.8151;stroke-miterlimit:9.9998;}
	.st41{fill:none;stroke:#000000;stroke-width:1.8151;stroke-miterlimit:10;}
</style>
<rect y="4.2" class="st0" width="2259.4" height="980"/>
<g>
	<g>
		<path class="st1" d="M985.4,385.6c2.6-33.3,18.4-64.9,43.5-87c8.7-7.6,17.8-13.6,27.3-18.2c-2.1-11.1-2.8-22.4-2-33.4
			c2.7-35,19.3-68.2,45.7-91.4c24.8-21.9,53.1-30.7,84.3-32.8c7.4-20.4,19.8-38.8,36.2-53.3c27.5-24.2,59.4-31.7,95.1-31.7
			c68.5,0,120.9,68.8,118.9,133.3c29.1,19.5,49.7,52.5,55.4,87c19.1,7.8,35.6,19.4,49.4,35c23.2,26.4,35,61.8,32.3,96.9
			c-2.6,34-18.7,66.1-44.3,88.6c-9.4,6.3-18.9,12.7-28.3,19c-21.7,10.6-44.5,15-68.6,13.3c-11.1-2.3-22.2-4.7-33.3-7
			c-5.8-2.1-11.4-4.5-16.7-7.3c-1.7,1.6-3.4,3.3-5.2,4.8c-11.3,7.6-22.6,15.2-33.9,22.8c-26,12.7-53.4,18-82.3,16l-40-8.4
			c-15.8-5.6-30.1-13.4-43.1-23.2c-21.7,11.5-45.7,15.5-71.7,15.5C1033.7,524.2,980.3,451.6,985.4,385.6z"/>
		<path class="st1" d="M1448.1,386.1c0-145.6-102.9-270.7-238.8-305.6c3.4-3.9,7.1-7.6,11-11c27.5-24.2,59.4-31.7,95.1-31.7
			c68.5,0,120.9,68.8,118.9,133.3c29.1,19.5,49.7,52.5,55.4,87c19.1,7.8,35.6,19.4,49.4,35c23.2,26.4,35,61.8,32.3,96.9
			c-2.6,34-18.7,66.1-44.3,88.6c-9.4,6.3-18.9,12.7-28.3,19c-21.7,10.6-44.5,15-68.6,13.3c-2.6-0.6-5.3-1.1-7.9-1.7
			C1438.9,471.3,1448.1,429.6,1448.1,386.1z"/>
	</g>
	<g>
		<g>
			<line class="st1" x1="1258.8" y1="735.5" x2="1258.8" y2="404.6"/>
			<polygon class="st2" points="1219.1,735.5 1252.2,404.6 1265.5,404.6 1298.5,735.5 			"/>
		</g>
		<g>
			<line class="st1" x1="1253.6" y1="518.7" x2="1201.6" y2="466.7"/>
			<polygon class="st2" points="1241.9,530.4 1199.6,468.6 1203.5,464.7 1265.3,507 			"/>
		</g>
		<g>
			<line class="st1" x1="1253.6" y1="591.5" x2="1305.6" y2="539.5"/>
			<polygon class="st2" points="1241.9,579.8 1303.7,537.5 1307.6,541.4 1265.3,603.2 			"/>
		</g>
	</g>
</g>
<rect y="671.8" class="st1" width="2260.4" height="314"/>
<g>
	<g>
		<g>
			<path class="st1" d="M1655.5,386.2c-20.4-25.4-31.8-58.5-29.4-90.1c2.5-32.2,17.8-62.7,42-84.1c5.2-4.5,10.5-8.5,15.9-11.8
				c-0.2-3.1-0.2-6.2,0-9.3c3.3-43.6,40.2-69.8,81.5-69.8c5,0,9.8,0.6,14.4,1.8c5.9-9.5,13.2-18.1,21.6-25.5
				c24.7-21.7,53.3-28.5,85.3-28.5c35.2,0,65.7,20.3,85,48.5c10.5-2.2,21.5-3.1,33-3.1c57,0,101.1,55.4,102.3,109.3
				c1.4,0.9,2.8,1,4.2,1.9c0,0,0-0.7,0.1-0.7c8.6,6.2,16.4,13.4,23.5,21.3c21.6,24.6,32.6,57.9,30.1,90.5
				c-2.4,31.6-17.4,61.7-41.2,82.6c0,0,0,0.1,0,0.1c-9,6.6-17.1,12-25.8,17.4c-0.2,0.1-0.3,0.2-0.5,0.4c0,0-0.1,0.1-0.1,0.1
				c-0.8,0.5-1.5,0.9-2.2,1.4c-0.3,0.1-0.5,0.2-0.8,0.3c0.1,3.3,0,6.7-0.3,10c-2.4,31-17.1,60.3-40.4,80.8
				c-25.6,22.5-55.2,29.5-88.3,29.5c-16.4,0-31.8-4.2-45.6-11.5c-19.9,11.3-42,15.2-66.1,15.2c-19.7,0-37.9-6.4-53.4-17.1
				c-17.1,7.4-35.6,10.1-55.5,10.1c-61.8,0-108.7-63.8-104.3-121.7C1641.8,417.1,1647.1,400.7,1655.5,386.2z"/>
			<polygon class="st1" points="2111.6,224.7 2111.6,224.8 2111.6,224.7 			"/>
		</g>
		<g>
			<path class="st1" d="M1788.4,123.9c-1.6-2-3.3-4-5-6c5.3-7.5,11.4-14.5,18.3-20.7c24.7-21.7,53.3-28.5,85.3-28.5
				c35.2,0,65.7,20.3,85,48.5c10.5-2.2,21.5-3.1,33-3.1c57,0,101.1,55.4,102.3,109.3c1.4,0.9,2.8,1,4.2,1.9c0,0,0-0.7,0.1-0.7
				c8.6,6.2,16.4,13.4,23.5,21.3c21.6,24.6,32.6,57.9,30.1,90.5c-2.4,31.6-17.4,61.7-41.2,82.6c0,0,0,0.1,0,0.1
				c-9,6.6-17.1,12-25.8,17.4c-0.2,0.1-0.3,0.2-0.5,0.4c0,0-0.1,0.1-0.1,0.1c-0.8,0.5-1.5,0.9-2.2,1.4c-0.3,0.1-0.5,0.2-0.8,0.3
				c0.1,3.3,0,6.7-0.3,10c-2.4,31-17.1,60.3-40.4,80.8c-25.6,22.5-55.2,29.5-88.3,29.5c-15,0-29.1-3.6-42-9.8
				c49-16.2,87.4-57.6,99.1-108.3c26.9-26.9,43.7-63.8,43.7-104.1c0-79.1-64.9-145.3-143.5-147.6c-26.8-39.5-72.1-65.9-122.6-65.9
				C1796.3,123.4,1792.3,123.6,1788.4,123.9z"/>
			<polygon class="st1" points="2111.6,224.7 2111.6,224.8 2111.6,224.7 			"/>
		</g>
	</g>
	<g>
		<g>
			<line class="st1" x1="1868.2" y1="735.5" x2="1868.2" y2="424.1"/>
			<polygon class="st2" points="1830.8,735.5 1862,424.1 1874.4,424.1 1905.6,735.5 			"/>
		</g>
		<g>
			<line class="st1" x1="1863.3" y1="531.4" x2="1814.3" y2="482.5"/>
			<polygon class="st2" points="1852.3,542.4 1812.5,484.3 1816.1,480.6 1874.3,520.4 			"/>
		</g>
		<g>
			<line class="st1" x1="1863.3" y1="599.9" x2="1912.2" y2="551"/>
			<polygon class="st2" points="1852.3,588.9 1910.4,549.2 1914.1,552.8 1874.3,611 			"/>
		</g>
	</g>
</g>
<g>
	<rect x="-1" y="772.2" class="st3" width="2260.1" height="270.6"/>
	<rect x="875.7" y="894.1" class="st4" width="114.6" height="19.4"/>
	<rect x="1173.3" y="894.1" class="st4" width="114.6" height="19.4"/>
	<rect x="1470.9" y="894.1" class="st4" width="114.6" height="19.4"/>
	<rect x="1768.6" y="894.1" class="st4" width="114.6" height="19.4"/>
	<rect x="2066.2" y="894.1" class="st4" width="114.6" height="19.4"/>
	<rect x="3.1" y="894.1" class="st4" width="114.6" height="19.4"/>
	<rect x="300.7" y="894.1" class="st4" width="114.6" height="19.4"/>
	<rect x="598.3" y="894.1" class="st4" width="114.6" height="19.4"/>
</g>
<g id="text_1_">
</g>
<path class="st5" d="M1380.8,489.2c0,0-5.3-23.2,0-27.6c9.8-8.2,37.7,8.3,50.5,9c8.1,0.5,23.9-12.9,31-9c6.5,3.6,10.4,24.2,5,29.4
	c-14.9,14.7-66.9,16.4-83.7,3.9C1382.3,494,1380.8,489.2,1380.8,489.2z"/>
<path class="st5" d="M1642,496.5c0,0-5.3-14.2,0-18.6c9.8-8.2,37.7-5.7,50.5-5c8.1,0.5,23.9-7.9,31-4c6.5,3.6,10.4,24.2,5,29.4
	c-14.9,14.7-66.9,16.4-83.7,3.9C1643.5,501.3,1642,496.5,1642,496.5z"/>
<path class="st6" d="M1837.8,756.6h-0.8v19.7h0.8c3.3,0,5.9-2.6,5.9-5.9v-7.9C1843.7,759.2,1841.1,756.6,1837.8,756.6z"/>
<path class="st7" d="M879.3,684.7v29h4.8v-35.8C881.5,677.9,879.3,680.9,879.3,684.7z"/>
<path class="st8" d="M854.3,756.4c-1.3,0-2.3,1-2.3,2.3v6.9c0,1.3,1,2.3,2.3,2.3h2.6v-11.6L854.3,756.4L854.3,756.4z"/>
<rect x="1059.4" y="793.1" class="st9" width="735.6" height="12.8"/>
<path class="st10" d="M1073.1,737.3H892.5v-62.6c0-19.3,15.7-35,35-35h145.7L1073.1,737.3L1073.1,737.3z"/>
<path class="st11" d="M887.4,674.5c-2.1,0-3.8,1.7-3.8,3.8v22.1h8.8v-25.9L887.4,674.5L887.4,674.5z"/>
<path class="st9" d="M892.5,700.4v-22.5h-3.1c-2.1,0-3.8,1.7-3.8,3.8v18.7H892.5z"/>
<path class="st12" d="M1073.1,754.6H892.5V692c0-19.3,15.7-35,35-35h145.7L1073.1,754.6L1073.1,754.6z"/>
<path class="st12" d="M1747,505.3h-690.9h-36l0,0c-11.6,0-21,9.4-21,21v15c0,11.6,9.4,21,21,21l0,0h15.5l-15.5,235H1835v-204
	C1835,544.7,1795.6,505.3,1747,505.3z"/>
<line class="st13" x1="1753.5" y1="502.3" x2="1378.4" y2="502.3"/>
<path class="st14" d="M1776.9,510.6c-8.7-3.2-18-5-27.8-5.2h3.5C1758.3,504.8,1767.4,506.8,1776.9,510.6z"/>
<path class="st14" d="M1814.4,536.7l-151.5,148.7l-577.7,100.2c1.1-48.7-16.1-85.3-66.8-103.7c-11.4-3.7-27.6-5.8-54.6-4.6
	c-20.1-0.5-40.1-1-53.2,2.2l-18.8,5.9l0.7-7.5l15-14.6l14.9-5.9l107-0.4l11.4,0.2l10.7,3.1l33.7,17.6l549.6-156.6h162.7
	c-2.1-1.5-4.3-2.9-6.5-4.2C1800.7,522.5,1809.6,529.3,1814.4,536.7z"/>
<g>
	<path class="st9" d="M1119.4,663.3h-61.1c-3.1,0-5.9-1.5-7.7-4c-1.8-2.5-2.3-5.7-1.3-8.6l27.5-81.7c1.4-4.1,5.2-6.8,9.4-6.8h33.1
		c5.5,0,10,4.5,10,10v81.1C1129.4,658.8,1124.9,663.3,1119.4,663.3z M1086.3,571.3c-0.4,0-0.8,0.3-0.9,0.7l-27.5,81.7
		c0,0.1-0.1,0.2,0.1,0.5c0.1,0.2,0.3,0.2,0.4,0.2h61.1c0.5,0,1-0.4,1-1v-81.1c0-0.5-0.4-1-1-1L1086.3,571.3L1086.3,571.3z"/>
</g>
<path class="st9" d="M1547.6,724.8c-44,0-93.7,35.7-93.7,79.7h173.4C1627.3,760.5,1591.6,724.8,1547.6,724.8z"/>
<path class="st15" d="M1085.1,797.3H870c-6.4,0-11.5-5.1-11.5-11.5v-44c0-35.6,28.9-64.5,64.5-64.5h72.7c49.4,0,89.5,40.1,89.5,89.5
	L1085.1,797.3L1085.1,797.3z"/>
<path class="st9" d="M982.8,725c-32.4,0-60.2,19.4-72.6,47.2h-56.1c-3.5,0-6.3,2.8-6.3,6.3v21.2c0,3.5,2.8,6.3,6.3,6.3h208.2
	c0-0.5,0-1,0-1.5C1062.3,760.5,1026.7,725,982.8,725z"/>
<g>
	<circle class="st16" cx="982.8" cy="804.5" r="73.7"/>
	<path class="st11" d="M1056.5,804.5c0-11.2-2.5-21.8-7-31.3c-12.3-23.4-36.9-39.3-65.2-39.3c-40.7,0-73.7,33-73.7,73.7
		c0,11.2,2.5,21.8,7,31.3c12.3,23.4,36.9,39.3,65.2,39.3C1023.5,878.1,1056.5,845.1,1056.5,804.5z"/>
	
		<ellipse transform="matrix(0.3162 -0.9487 0.9487 0.3162 -91.1979 1482.4717)" class="st7" cx="982.8" cy="804.5" rx="42.1" ry="42.1"/>
	<circle class="st7" cx="982.8" cy="804.5" r="38.8"/>
	<circle class="st17" cx="982.8" cy="804.5" r="15.5"/>
	<circle class="st18" cx="982.8" cy="804.5" r="8.4"/>
	<g>
		<path class="st9" d="M949.7,804.5c0-4.7-1.8-8.8-4.3-10.6c-0.9,3.4-1.5,6.9-1.5,10.6s0.5,7.2,1.5,10.6
			C947.9,813.2,949.7,809.2,949.7,804.5z"/>
		<path class="st9" d="M1016.7,785.5c-3.5-6.3-8.7-11.4-14.9-14.9c-0.5,3.1,1.1,7.2,4.5,10.5C1009.5,784.4,1013.6,786,1016.7,785.5z
			"/>
		<path class="st9" d="M1015.9,804.5c0,4.7,1.8,8.8,4.3,10.6c0.9-3.4,1.5-6.9,1.5-10.6s-0.5-7.2-1.5-10.6
			C1017.7,795.7,1015.9,799.7,1015.9,804.5z"/>
		<path class="st9" d="M948.9,785.5c3.1,0.5,7.2-1.1,10.5-4.5c3.3-3.3,5-7.4,4.5-10.5C957.6,774.1,952.4,779.2,948.9,785.5z"/>
		<path class="st9" d="M982.8,771.3c4.7,0,8.8-1.8,10.6-4.3c-3.4-0.9-6.9-1.5-10.6-1.5s-7.2,0.5-10.6,1.5
			C974,769.6,978.1,771.3,982.8,771.3z"/>
		<path class="st9" d="M963.8,838.3c0.5-3.1-1.1-7.2-4.5-10.5s-7.4-5-10.5-4.5C952.4,829.7,957.6,834.8,963.8,838.3z"/>
		<path class="st9" d="M1016.7,823.4c-3.1-0.5-7.2,1.1-10.5,4.5c-3.3,3.3-5,7.4-4.5,10.5C1008,834.8,1013.2,829.7,1016.7,823.4z"/>
		<path class="st9" d="M993.4,841.8c-1.8-2.5-5.9-4.3-10.6-4.3s-8.8,1.8-10.6,4.3c3.4,0.9,6.9,1.5,10.6,1.5S990,842.8,993.4,841.8z"
			/>
	</g>
</g>
<g>
	<circle class="st16" cx="1547.6" cy="804.5" r="73.7"/>
	<path class="st11" d="M1621.3,804.5c0-11.2-2.5-21.8-7-31.3c-12.3-23.4-36.9-39.3-65.2-39.3c-40.7,0-73.7,33-73.7,73.7
		c0,11.2,2.5,21.8,7,31.3c12.3,23.4,36.9,39.3,65.2,39.3C1588.3,878.1,1621.3,845.1,1621.3,804.5z"/>
	<circle class="st7" cx="1547.6" cy="804.5" r="42.1"/>
	<circle class="st7" cx="1547.6" cy="804.5" r="38.8"/>
	<circle class="st17" cx="1547.6" cy="804.5" r="15.5"/>
	<circle class="st18" cx="1547.6" cy="804.5" r="8.4"/>
	<g>
		<path class="st9" d="M1514.5,804.5c0-4.7-1.8-8.8-4.3-10.6c-0.9,3.4-1.5,6.9-1.5,10.6s0.5,7.2,1.5,10.6
			C1512.8,813.2,1514.5,809.2,1514.5,804.5z"/>
		<path class="st9" d="M1581.5,785.5c-3.5-6.3-8.7-11.4-14.9-14.9c-0.5,3.1,1.1,7.2,4.5,10.5C1574.4,784.4,1578.5,786,1581.5,785.5z
			"/>
		<path class="st9" d="M1580.8,804.5c0,4.7,1.8,8.8,4.3,10.6c0.9-3.4,1.5-6.9,1.5-10.6s-0.5-7.2-1.5-10.6
			C1582.5,795.7,1580.8,799.7,1580.8,804.5z"/>
		<path class="st9" d="M1513.8,785.5c3.1,0.5,7.2-1.1,10.5-4.5c3.3-3.3,5-7.4,4.5-10.5C1522.4,774.1,1517.3,779.2,1513.8,785.5z"/>
		<path class="st9" d="M1547.6,771.3c4.7,0,8.8-1.8,10.6-4.3c-3.4-0.9-6.9-1.5-10.6-1.5s-7.2,0.5-10.6,1.5
			C1538.9,769.6,1542.9,771.3,1547.6,771.3z"/>
		<path class="st9" d="M1528.7,838.3c0.5-3.1-1.1-7.2-4.5-10.5s-7.4-5-10.5-4.5C1517.3,829.7,1522.4,834.8,1528.7,838.3z"/>
		<path class="st9" d="M1581.5,823.4c-3.1-0.5-7.2,1.1-10.5,4.5c-3.3,3.3-5,7.4-4.5,10.5C1572.9,834.8,1578,829.7,1581.5,823.4z"/>
		<path class="st9" d="M1558.2,841.8c-1.8-2.5-5.9-4.3-10.6-4.3s-8.8,1.8-10.6,4.3c3.4,0.9,6.9,1.5,10.6,1.5
			S1554.9,842.8,1558.2,841.8z"/>
	</g>
</g>
<path class="st8" d="M891.6,760h-12.1c-1.5,0-2.7,1.2-2.7,2.7v0.2c0,1.5,1.2,2.7,2.7,2.7h12.1c1.5,0,2.7-1.2,2.7-2.7v-0.2
	C894.3,761.2,893.1,760,891.6,760z"/>
<path class="st9" d="M856.4,753.8c-0.7,0-1.2,0.5-1.2,1.2v14.5c0,0.7,0.5,1.2,1.2,1.2h2.1v-16.9H856.4z"/>
<path class="st11" d="M855.8,757.1c0-0.7,0.5-1.2,1.2-1.2h1.5v-2.1h-2.1c-0.7,0-1.2,0.5-1.2,1.2v14.5c0,0.4,0.3,0.8,0.6,1V757.1z"/>
<polygon class="st19" points="1035.3,566.8 1059.4,566.8 1029.4,652.6 "/>
<path class="st9" d="M1031.1,562.3l-0.3,4.5h6.9v30.1l1.8-25.6h13.5l-15.3,43.7l-6.8,18.6l-4.9,1.5l-2,28.2
	c-0.2,3.5,4.7,4.5,5.9,1.2l35.7-102.1h-34.5L1031.1,562.3L1031.1,562.3z"/>
<polygon class="st19" points="1035.3,566.8 1059.4,566.8 1029.4,652.6 "/>
<polygon class="st20" points="1073,559.1 1072.1,561.9 1038.6,658.8 1029.2,658.8 1033.6,592.1 1035.3,566.8 "/>
<path class="st21" d="M1797.5,521.3h-162.7l53.8-15.3l60.6-0.6c9.7,0.2,19.1,2.1,27.8,5.2h0.1c4.6,1.8,9.4,4,13.9,6.5
	C1793.2,518.4,1795.4,519.8,1797.5,521.3z"/>
<path class="st22" d="M1373.1,532.8l-47.2-3c-6-1.1-11.1-1-15.3,0.4h-1c0.1,0.1,0.1,0.2,0.2,0.3c-2.9,1.1-5.4,2.9-7.4,5.3
	c3.7,0.9,7.6,1.5,11.7,2c3.8,8.3,5.7,18.5,6.5,25.6c2-7.3,3.3-17.2,2.6-24.9c0.9,0,1.8,0.1,2.7,0.1c2.6,6,4.6,13.1,5.7,16.9
	c0.6-3.9,0.4-11-0.6-16.9C1343.1,538.3,1356.9,536.5,1373.1,532.8z"/>
<path class="st10" d="M1746.9,505.3c0.8,0,1.6,0,2.3,0l-60.6,0.6l-53.8,15.3h-612.4c-7.3,0-13.3,5.9-13.3,13.3v24.6
	c-6-3.7-10-10.3-10-17.9v-15c0-11.6,9.4-21,21-21h726.8V505.3z"/>
<path class="st10" d="M1791,517.1c-4.5-2.5-9.3-4.7-13.9-6.5C1781.9,512.4,1786.6,514.5,1791,517.1z"/>
<polygon class="st14" points="1747.3,797.3 1835,735.6 1835,797.3 "/>
<path class="st23" d="M1141.2,547.9H1110c-1.9,0-3.5,1.6-3.5,3.5s1.6,3.5,3.5,3.5h31.2c1.9,0,3.5-1.6,3.5-3.5
	S1143.1,547.9,1141.2,547.9z"/>
<path class="st5" d="M1139.7,546.3h-31.2c-1.9,0-3.5,1.6-3.5,3.5s1.6,3.5,3.5,3.5h31.2c1.9,0,3.5-1.6,3.5-3.5
	C1143.2,547.9,1141.6,546.3,1139.7,546.3z"/>
<path class="st23" d="M1332.7,547.9h-31.2c-1.9,0-3.5,1.6-3.5,3.5s1.6,3.5,3.5,3.5h31.2c1.9,0,3.5-1.6,3.5-3.5
	S1334.6,547.9,1332.7,547.9z"/>
<path class="st5" d="M1331.2,546.3H1300c-1.9,0-3.5,1.6-3.5,3.5s1.6,3.5,3.5,3.5h31.2c1.9,0,3.5-1.6,3.5-3.5
	C1334.7,547.9,1333.1,546.3,1331.2,546.3z"/>
<path class="st23" d="M1524.2,547.9H1493c-1.9,0-3.5,1.6-3.5,3.5s1.6,3.5,3.5,3.5h31.2c1.9,0,3.5-1.6,3.5-3.5
	S1526.1,547.9,1524.2,547.9z"/>
<path class="st5" d="M1522.7,546.3h-31.2c-1.9,0-3.5,1.6-3.5,3.5s1.6,3.5,3.5,3.5h31.2c1.9,0,3.5-1.6,3.5-3.5
	C1526.2,547.9,1524.6,546.3,1522.7,546.3z"/>
<path class="st23" d="M1715.7,547.9h-31.2c-1.9,0-3.5,1.6-3.5,3.5s1.6,3.5,3.5,3.5h31.2c1.9,0,3.5-1.6,3.5-3.5
	S1717.6,547.9,1715.7,547.9z"/>
<path class="st5" d="M1714.2,546.3H1683c-1.9,0-3.5,1.6-3.5,3.5s1.6,3.5,3.5,3.5h31.2c1.9,0,3.5-1.6,3.5-3.5
	C1717.7,547.9,1716.1,546.3,1714.2,546.3z"/>
<path class="st9" d="M1838.9,780.6h-49.8V806h49.8c3.2,0,5.9-2.6,5.9-5.9v-13.7C1844.8,783.2,1842.2,780.6,1838.9,780.6z"/>
<path class="st9" d="M1836.8,752.3h-1.8v28.3h1.8c1.2,0,2.1-1,2.1-2.1v-24C1838.9,753.2,1838,752.3,1836.8,752.3z"/>
<path class="st6" d="M1837.8,726.4h-0.8v19.7h0.8c3.3,0,5.9-2.6,5.9-5.9v-7.9C1843.7,729.1,1841.1,726.4,1837.8,726.4z"/>
<path class="st9" d="M1836.8,722.1h-1.8v28.3h1.8c1.2,0,2.1-1,2.1-2.1v-24C1838.9,723.1,1838,722.1,1836.8,722.1z"/>
<circle class="st9" cx="1069" cy="549.8" r="6.5"/>
<g>
	<path class="st5" d="M1019.6,637.8c-1.9,0-3.5-1.6-3.5-3.5v-78.9c0-5,4.1-9.1,9.1-9.1h43.8c1.9,0,3.5,1.6,3.5,3.5s-1.6,3.5-3.5,3.5
		h-43.8c-1.1,0-2.1,0.9-2.1,2.1v78.9C1023.1,636.2,1021.6,637.8,1019.6,637.8z"/>
</g>
<rect x="1023.1" y="581.5" class="st5" width="6.2" height="51.5"/>
<path class="st24" d="M1029.4,584.5v46.3c2.5,0,4.6-2.1,4.6-4.6V589C1034,586.5,1031.9,584.5,1029.4,584.5z"/>
<path class="st25" d="M987.6,677.3h-58.8c-37.6,0-68.3,27.1-70.2,61.1c9.4-25.5,35.6-43.8,66.6-43.8H984c53.9,0,97.5,40.1,97.5,89.5
	v13.2h3.6v-30.5C1085.1,717.4,1041.5,677.3,987.6,677.3z"/>
<path class="st14" d="M1835,593.3"/>
<path class="st12" d="M1641,797.3c-3.7-48.4-44.1-86.5-93.4-86.5s-89.7,38.1-93.4,86.5C1512.3,724,1576.7,761,1641,797.3z"/>
<path class="st15" d="M1827.2,557.1c-3.7-8.1-8.5-15.6-14.5-22.3c-58.8,53.7-138.3,128.5-152.7,137.2
	c-53.3,36.1-354.4,60.3-576.9,76.8l2.1,45.1l382-40.7c90.4-11,235.6-19.5,242.3-34.5L1827.2,557.1z"/>
<g>
	<path class="st26" d="M1379.5,761.3c-2.2-18.1-2.7-36.5-1.6-54.8c0.1-2.3,0.4-4.6,0.6-6.9l0.3-3.4c0.1-1.1,0.3-2.3,0.4-3.4
		c0.3-2.3,0.6-4.6,0.9-6.9l1.2-6.8c1.8-9.1,4.3-18.1,7.9-26.8s8.3-17.1,14.7-24.3c1.7-1.7,3.2-3.6,5.1-5.1c0.9-0.8,1.8-1.7,2.7-2.4
		l2.9-2.2c4-2.7,8.2-5.1,12.8-6.7l1.7-0.6c0.6-0.2,1.1-0.3,1.7-0.5c1.2-0.3,2.3-0.7,3.4-1c2.3-0.4,4.6-1,7-1.2
		c4.7-0.6,9.4-0.6,14-0.4c9.3,0.7,18.3,2.7,26.9,5.7c-9-1.3-18.1-2.2-27-1.8c-4.4,0.3-8.9,0.6-13.1,1.6c-2.2,0.4-4.2,1.1-6.3,1.7
		c-1,0.4-2,0.8-3,1.1l-1.5,0.6l-1.5,0.7c-4,1.7-7.6,4-11,6.6l-2.5,2c-0.8,0.7-1.6,1.5-2.3,2.2c-1.6,1.4-2.9,3.1-4.4,4.7
		c-0.4,0.4-0.7,0.8-1,1.3l-1,1.3c-0.6,0.9-1.3,1.7-1.9,2.6l-1.8,2.7l-0.9,1.4l-0.8,1.4c-1,1.9-2.2,3.8-3,5.8l-1.4,3
		c-0.5,1-0.8,2-1.3,3c-3.4,8.1-5.8,16.7-7.9,25.3c-2,8.7-3.4,17.6-4.7,26.5C1381.9,725,1380.7,743.1,1379.5,761.3z"/>
</g>
<path class="st27" d="M1340.2,666.2c7.6,0.4,17,1.8,29,4.6c-11-4.6-20.5-9.1-26.3-13.3c3.5-8.8,8.3-16.4,15-22.4
	c-9.2,1.9-18.7,7.5-28.2,15l-0.1,0.3c-4.6-1-5.4-3.1-11.4,1.2c0.4,4.7,2.5,6,6.7,9.1c-1.4,9.5,1.1,19.3,5.7,29.2
	C1331.4,681.2,1333.8,673,1340.2,666.2z"/>
<path class="st27" d="M1465.7,616.4c7.6,0.4,17,1.8,29,4.6c-11-4.6-20.5-9.1-26.3-13.3c3.5-8.8,8.3-16.4,15-22.4
	c-9.2,1.9-18.7,7.5-28.2,15l-0.1,0.3c-4.6-1-5.4-3.1-11.4,1.2c0.4,4.7,2.5,6,6.7,9.1c-1.4,9.5,1.1,19.3,5.7,29.2
	C1456.9,631.4,1459.3,623.2,1465.7,616.4z"/>
<path class="st27" d="M1449.8,685.7c7.5-1.4,16.9-2.3,29.3-2.4c-11.8-1.9-22.1-4-28.6-6.7c1.3-9.3,4.2-17.9,9.3-25.3
	c-8.5,4.1-16.4,11.7-23.9,21.2l-0.1,0.3c-4.7,0.1-6-1.8-10.8,3.8c1.5,4.5,3.8,5.3,8.7,7.3c0.9,9.6,5.6,18.5,12.4,27
	C1444.7,702.3,1445.2,693.9,1449.8,685.7z"/>
<path class="st28" d="M1463.8,546c3.5-0.7,8-1.1,13.8-1.1c-5.6-0.9-10.4-1.9-13.5-3.2c0.6-4.4,2-8.4,4.4-11.9
	c-4,1.9-7.7,5.5-11.2,10v0.1c-2.2,0-2.8-0.8-5.1,1.8c0.7,2.1,1.8,2.5,4.1,3.4c0.4,4.5,2.6,8.7,5.8,12.7
	C1461.4,553.8,1461.6,549.8,1463.8,546z"/>
<path class="st29" d="M1474.3,653.4c2.9,1.2,33.6,0.4,55.2-3.5l-25.3-1.6c2.8-5.8,11.1-10.3,23-14c-10.8,1.1-29.7,1-32.3,10.5
	c-9.4-7.4-12.7-13-25.8-14c7.1,4.9,13,11.9,13.1,17.7C1474.8,650.9,1473.7,651,1474.3,653.4z"/>
<path class="st22" d="M1486.5,674.7c2.9,1.2,33.6,0.4,55.2-3.5l-25.3-1.6c2.8-5.8,11.1-10.3,23-14c-10.8,1.1-29.7,1-32.3,10.5
	c-9.4-7.4-12.7-13-25.8-14c7.1,4.9,13,11.9,13.1,17.7C1487,672.1,1485.9,672.2,1486.5,674.7z"/>
<g>
	<path class="st26" d="M1194.5,785.6c-2.2-17.9-2.8-35.9-1.9-54c1-18.1,3.5-36.3,9.8-53.8l1.2-3.3c0.4-1.1,0.9-2.1,1.4-3.2l1.4-3.2
		c0.5-1,1.1-2.1,1.6-3.1c0.6-1,1.1-2.1,1.7-3.1l1.9-3l0.9-1.5l1.1-1.4l2.1-2.9c0.7-0.9,1.6-1.8,2.3-2.7c0.8-0.9,1.6-1.8,2.4-2.6
		l2.6-2.5c0.9-0.8,1.9-1.5,2.8-2.2l1.4-1.1l1.5-1c1-0.6,2-1.3,3-1.9c2.1-1.1,4.2-2.3,6.5-3.1c2.2-1,4.5-1.6,6.7-2.3
		c1.1-0.3,2.3-0.5,3.5-0.7c0.6-0.1,1.1-0.3,1.7-0.3l1.7-0.2c4.6-0.7,9.3-0.6,13.9-0.4c9.2,0.7,18.1,2.7,26.6,5.7
		c-8.9-1.3-17.8-2.2-26.6-1.8c-4.4,0.2-8.7,0.6-12.9,1.7l-1.6,0.3c-0.5,0.1-1,0.3-1.5,0.4l-3.1,0.9c-2,0.8-4,1.5-5.9,2.5
		c-1.9,0.8-3.7,2-5.5,3.1c-0.9,0.6-1.7,1.2-2.6,1.8l-1.3,0.9l-1.2,1c-3.3,2.6-6,5.9-8.6,9.2c-2.4,3.4-4.8,7-6.7,10.9
		c-0.5,1-1,1.9-1.5,2.9l-1.3,3c-0.4,1-0.9,2-1.3,3l-1.1,3c-5.9,16.3-8.9,33.9-11,51.5C1196.7,749.7,1195.7,767.6,1194.5,785.6z"/>
</g>
<g>
	<path class="st26" d="M1278.9,771.6c-2.2-18.7-2.4-37.7-0.6-56.6c1-9.4,2.6-18.9,4.9-28.2c0.6-2.3,1.3-4.6,2-6.9l2.3-6.8
		c0.9-2.2,1.8-4.5,2.7-6.7c1-2.2,2.1-4.4,3.1-6.6c1.2-2.1,2.4-4.2,3.6-6.4l2-3.1c0.7-1,1.3-2.1,2.1-3l2.3-2.9c0.4-0.5,0.7-1,1.1-1.4
		l1.2-1.4l2.5-2.7c0.9-0.9,1.8-1.7,2.7-2.6c1.8-1.7,3.7-3.2,5.7-4.8c0.9-0.8,2-1.4,3-2.1c1-0.7,2-1.4,3.1-2c2.2-1.2,4.3-2.4,6.6-3.4
		c1.1-0.5,2.2-1,3.4-1.4l3.5-1.2c4.7-1.5,9.5-2.6,14.3-3c4.8-0.6,9.7-0.6,14.4-0.4c9.6,0.7,18.9,2.6,27.8,5.7
		c-9.3-1.4-18.6-2.2-27.8-1.8c-4.6,0.3-9.2,0.6-13.6,1.6c-2.2,0.4-4.4,1-6.6,1.6c-1.1,0.3-2.1,0.7-3.2,1c-1.1,0.4-2.1,0.7-3.2,1.1
		l-3.1,1.3c-1,0.4-2,1-3,1.5c-2,0.9-3.9,2.2-5.8,3.3c-1,0.6-1.8,1.3-2.7,1.9c-0.9,0.7-1.8,1.2-2.7,2c-1.7,1.4-3.4,2.8-5,4.4
		c-0.8,0.8-1.6,1.5-2.4,2.4l-2.2,2.5l-1.1,1.3c-0.4,0.4-0.7,0.9-1,1.3l-2,2.7c-0.7,0.9-1.3,1.9-1.9,2.8l-1.8,2.8
		c-1.1,2-2.2,3.9-3.3,5.9c-4.2,8-7.4,16.6-9.9,25.4c-2.5,8.8-4.5,17.9-6,27C1281.5,734.1,1280.1,752.8,1278.9,771.6z"/>
</g>
<path class="st22" d="M1527.5,648.9c1.2,2.9,23.5,24.1,41.5,36.6l-16.8-19c6.1-2.2,15.2,0.5,26.1,6.3c-8.4-6.9-21.7-20.2-30.3-15.4
	c-1.4-11.8,0.2-18.2-8.3-28.2c1.5,8.5,0.7,17.6-3.2,21.7C1529.6,647.5,1528.8,646.8,1527.5,648.9z"/>
<g>
	<g>
		<path class="st9" d="M1272.4,663.3h-115.5c-7.6,0-13.8-6.2-13.8-13.8V576c0-7.6,6.2-13.8,13.8-13.8h115.5
			c7.6,0,13.8,6.2,13.8,13.8v73.5C1286.2,657.1,1280,663.3,1272.4,663.3z M1156.9,571.3c-2.6,0-4.8,2.1-4.8,4.8v73.5
			c0,2.6,2.1,4.8,4.8,4.8h115.5c2.6,0,4.8-2.1,4.8-4.8v-73.5c0-2.6-2.1-4.8-4.8-4.8H1156.9z"/>
	</g>
	<g>
		<path class="st9" d="M1438.9,663.3h-115.5c-7.6,0-13.8-6.2-13.8-13.8V576c0-7.6,6.2-13.8,13.8-13.8h115.5
			c7.6,0,13.8,6.2,13.8,13.8v73.5C1452.7,657.1,1446.5,663.3,1438.9,663.3z M1323.4,571.3c-2.6,0-4.8,2.1-4.8,4.8v73.5
			c0,2.6,2.1,4.8,4.8,4.8h115.5c2.6,0,4.8-2.1,4.8-4.8v-73.5c0-2.6-2.1-4.8-4.8-4.8H1323.4z"/>
	</g>
	<g>
		<path class="st9" d="M1605.4,663.3h-115.5c-7.6,0-13.8-6.2-13.8-13.8V576c0-7.6,6.2-13.8,13.8-13.8h115.5
			c7.6,0,13.8,6.2,13.8,13.8v73.5C1619.2,657.1,1613,663.3,1605.4,663.3z M1489.9,571.3c-2.6,0-4.8,2.1-4.8,4.8v73.5
			c0,2.6,2.1,4.8,4.8,4.8h115.5c2.6,0,4.8-2.1,4.8-4.8v-73.5c0-2.6-2.1-4.8-4.8-4.8H1489.9z"/>
	</g>
	<g>
		<path class="st9" d="M1656.4,571.3c-2.6,0-4.8,2.1-4.8,4.8v73.5c0,2.6,2.1,4.8,4.8,4.8h115.5c2.6,0,4.8-2.1,4.8-4.8v-73.5
			c0-2.6-2.1-4.8-4.8-4.8H1656.4z M1771.9,663.3h-115.5c-7.6,0-13.8-6.2-13.8-13.8V576c0-7.6,6.2-13.8,13.8-13.8h115.5
			c7.6,0,13.8,6.2,13.8,13.8v73.5C1785.7,657.1,1779.5,663.3,1771.9,663.3z"/>
	</g>
</g>
<g>
	<path class="st19" d="M1119.4,566.8h-33.1c-2.3,0-4.4,1.5-5.2,3.7l-27.5,81.7c-1.1,3.2,1.3,6.6,4.7,6.6h61.1c3,0,5.5-2.4,5.5-5.5
		v-81.1C1124.9,569.2,1122.4,566.8,1119.4,566.8z"/>
	<g>
		<path class="st19" d="M1272.4,566.8h-115.5c-5.1,0-9.3,4.1-9.3,9.3v73.5c0,5.1,4.1,9.3,9.3,9.3h115.5c5.1,0,9.3-4.1,9.3-9.3v-73.5
			C1281.7,570.9,1277.5,566.8,1272.4,566.8z"/>
		<path class="st19" d="M1438.9,566.8h-115.5c-5.1,0-9.3,4.1-9.3,9.3v73.5c0,5.1,4.1,9.3,9.3,9.3h115.5c5.1,0,9.3-4.1,9.3-9.3v-73.5
			C1448.2,570.9,1444,566.8,1438.9,566.8z"/>
		<path class="st19" d="M1605.4,566.8h-115.5c-5.1,0-9.3,4.1-9.3,9.3v73.5c0,5.1,4.1,9.3,9.3,9.3h115.5c5.1,0,9.3-4.1,9.3-9.3v-73.5
			C1614.7,570.9,1610.5,566.8,1605.4,566.8z"/>
		<path class="st19" d="M1771.9,566.8h-115.5c-5.1,0-9.3,4.1-9.3,9.3v73.5c0,5.1,4.1,9.3,9.3,9.3h115.5c5.1,0,9.3-4.1,9.3-9.3v-73.5
			C1781.2,570.9,1777,566.8,1771.9,566.8z"/>
	</g>
</g>
<path class="st30" d="M1829.4,562.3h-793.8l-0.5,7h796.5C1831,566.9,1830.2,564.6,1829.4,562.3z"/>
<path class="st27" d="M1178.4,540.1c5.9-2.4,13.5-4.7,23.6-6.8c-9.9,0.3-18.7,0.2-24.5-1c-0.4-8.2,0.6-15.9,3.6-23
	c-6.3,4.8-11.6,12.6-16.3,21.9v0.3c-3.9,0.9-7.7,2.6-11.6,5.3c3.5,2,7.3,3.6,11.6,4.6c2.3,8,7.5,14.8,14.4,20.9
	C1176.9,555.1,1175.9,547.8,1178.4,540.1z"/>
<path class="st27" d="M1314.4,696.8c7.5-1.4,16.9-2.3,29.3-2.4c-11.8-1.9-22.1-4-28.6-6.7c1.3-9.3,4.2-17.9,9.3-25.3
	c-8.5,4.1-16.4,11.7-23.9,21.2l-0.1,0.3c-4.7,0.1-6-1.8-10.8,3.8c1.5,4.5,3.8,5.3,8.7,7.3c0.9,9.6,5.6,18.5,12.4,27
	C1309.4,713.5,1309.8,705,1314.4,696.8z"/>
<path class="st22" d="M1218.5,554.9c2.9,1.2,33.6,0.4,55.2-3.5l-25.3-1.6c2.8-5.8,11.1-10.3,23-14c-10.8,1.1-29.7,1-32.3,10.5
	c-9.4-7.4-12.7-13-25.8-14c7.1,4.9,13,11.9,13.1,17.7C1219,552.4,1217.9,552.5,1218.5,554.9z"/>
<path class="st22" d="M1244.8,689c2.9,1.2,33.6,0.4,55.2-3.5l-25.3-1.6c2.8-5.8,11.1-10.3,23-14c-10.8,1.1-29.7,1-32.3,10.5
	c-9.4-7.4-12.7-13-25.8-14c7.1,4.9,13,11.9,13.1,17.7C1245.3,686.4,1244.2,686.5,1244.8,689z"/>
<path class="st22" d="M1207.1,713.5c2.9,1.2,33.6,0.4,55.2-3.5l-25.3-1.6c2.8-5.8,11.1-10.3,23-14c-10.8,1.1-29.7,1-32.3,10.5
	c-9.4-7.4-12.7-13-25.8-14c7.1,4.9,13,11.9,13.1,17.7C1207.6,711,1206.5,711.1,1207.1,713.5z"/>
<polygon class="st15" points="1747.3,797.3 1835,664.4 1835,735.6 "/>
<path class="st31" d="M1835,634.9"/>
<g>
	<path class="st26" d="M1835,616.8c-3.5,5.4-7.2,10.7-10.8,16c-3.7,5.2-7.4,10.5-11.1,15.7c-3.8,5.2-7.5,10.4-11.3,15.6
		c-3.8,5.2-7.6,10.4-11.5,15.5l-2.7-5.5l17.4-0.3c5.8-0.1,11.6-0.1,17.4-0.2c2.2,0,3.9,1.7,3.9,3.9c0,1-0.4,2-1,2.7l0,0l-12.6,13.6
		l-12.7,13.5c-8.5,9-17,17.8-25.6,26.7l-13,13.2c-4.3,4.4-8.8,8.7-13.1,13c-8.8,8.6-17.7,17.2-26.8,25.6
		c7.7-9.7,15.6-19.1,23.7-28.5c4-4.7,8-9.4,12.1-14l12.2-13.9c8.2-9.2,16.5-18.3,24.8-27.4l12.6-13.6l12.7-13.5l2.9,6.6
		c-5.8-0.1-11.6-0.1-17.4-0.2l-17.4-0.3h-0.1c-1.9,0-3.4-1.6-3.3-3.4c0-0.8,0.3-1.5,0.8-2.1c4-5,8.2-9.9,12.3-14.8
		c4.1-5,8.3-9.8,12.4-14.7s8.4-9.7,12.6-14.6C1826.4,626.4,1830.6,621.6,1835,616.8z"/>
</g>
<path class="st32" d="M1086.1,796.2c0,0,30.7-32.3,41.5-26.4c5.8,3.2,0,26.4,0,26.4s33.2-39.8,47-35c8.5,3,9.2,35,9.2,35
	s24.3-42.3,36.9-38c9.1,3.1,4.3,38,4.3,38H1086.1z"/>
<path class="st33" d="M1254.1,505.3"/>
<path class="st34" d="M1528.9,513.3"/>
<path class="st34" d="M1454.9,460.2"/>
<path class="st34" d="M1528.9,460.2"/>
<path class="st34" d="M1454.9,513.3"/>
<path class="st34" d="M1527.7,460.2"/>
<path class="st34" d="M1601.7,513.3"/>
<path class="st34" d="M1601.7,460.2"/>
<path class="st34" d="M1527.7,513.3"/>
<path class="st34" d="M1602,460.2"/>
<path class="st34" d="M1676,513.3"/>
<path class="st34" d="M1676,460.2"/>
<path class="st34" d="M1602,513.3"/>
<g>
	<path class="st35" d="M1380.2,504.3v-44.1l398.9,0.1c39.2,1,80.1,42.3,80.8,84.1V563c0,33.3,0,71.2,0,57.3
		c0,13.1-28.4,11.1-28.4,11.1"/>
	<line class="st35" x1="1380" y1="460.2" x2="1454" y2="502.3"/>
	<line class="st35" x1="1454" y1="460.2" x2="1380" y2="502.3"/>
	<line class="st35" x1="1454.4" y1="504.8" x2="1454.4" y2="460.7"/>
	<line class="st35" x1="1454.2" y1="460.2" x2="1528.2" y2="502.3"/>
	<line class="st35" x1="1528.2" y1="460.2" x2="1454.2" y2="502.3"/>
	<line class="st35" x1="1528.7" y1="504.8" x2="1528.7" y2="460.7"/>
	<line class="st35" x1="1528.4" y1="460.2" x2="1602.4" y2="502.3"/>
	<line class="st35" x1="1602.4" y1="460.2" x2="1528.4" y2="502.3"/>
	<line class="st35" x1="1602.9" y1="504.8" x2="1602.9" y2="460.7"/>
	<line class="st35" x1="1602.7" y1="460.2" x2="1676.7" y2="502.3"/>
	<line class="st35" x1="1676.7" y1="460.2" x2="1602.7" y2="502.3"/>
	<line class="st35" x1="1677.1" y1="504.8" x2="1677.1" y2="460.7"/>
	<line class="st35" x1="1676.9" y1="460.2" x2="1750.9" y2="502.3"/>
	<line class="st35" x1="1750.9" y1="460.2" x2="1676.9" y2="502.3"/>
	<line class="st35" x1="1751.3" y1="504.8" x2="1751.3" y2="460.7"/>
</g>
<path class="st34" d="M1528.2,460.7"/>
<path class="st34" d="M1528.2,515.8"/>
<path class="st34" d="M1602,460.7"/>
<path class="st34" d="M1602,515.8"/>
<g>
	<circle class="st36" cx="1898.7" cy="784.1" r="25.4"/>
	<ellipse transform="matrix(0.96 -0.2799 0.2799 0.96 -143.5479 562.782)" class="st37" cx="1898.6" cy="784" rx="24.7" ry="24.7"/>
	<path d="M1890.4,798.8c-6.9-3.9-11.5-14-8-21.8c0.1-0.2,0.3-0.2,0.4-0.2c0.2,0.1,0.2,0.3,0.2,0.4c-3.3,7.4,1.5,16.4,8.2,20.1
		c6.4,3.6,16.5,3.3,21.5-3.6c0.1-0.1,0.3-0.2,0.4-0.1c0.1,0.1,0.2,0.3,0.1,0.4C1907.9,801.3,1897,802.5,1890.4,798.8z"/>
	<path d="M1880.9,778C1880.9,777.9,1880.9,777.9,1880.9,778c-0.1-0.1-0.2-0.2-0.1-0.3c0.7-1,1.8-1.5,2.4-1.2s0.7,1.6,0.2,2.7
		c-0.1,0.1-0.2,0.2-0.3,0.1c-0.1-0.1-0.2-0.2-0.1-0.3c0.4-0.8,0.2-1.6-0.2-1.8c-0.4-0.2-1.1,0.1-1.6,0.8
		C1881.2,778,1881,778,1880.9,778z"/>
	<path d="M1911,794.8L1911,794.8c-0.1-0.1-0.2-0.2-0.1-0.3c0.7-1,1.8-1.5,2.4-1.2s0.7,1.6,0.2,2.7c-0.1,0.1-0.2,0.2-0.3,0.1
		c-0.1-0.1-0.2-0.2-0.1-0.3c0.4-0.8,0.2-1.6-0.2-1.8c-0.4-0.2-1.1,0.1-1.6,0.8C1911.3,794.9,1911.1,794.9,1911,794.8z"/>
	<ellipse transform="matrix(0.4891 -0.8722 0.8722 0.4891 291.4772 2050.8872)" cx="1896.4" cy="776.6" rx="5" ry="2"/>
	<path d="M1907.9,783c-1.3,2.4-3.2,3.9-4.2,3.3s-0.7-2.9,0.7-5.3c1.3-2.4,3.2-3.9,4.2-3.3S1909.2,780.6,1907.9,783z"/>
</g>
<g>
	<circle class="st36" cx="1916.5" cy="725.3" r="25.4"/>
	
		<ellipse transform="matrix(0.2392 -0.971 0.971 0.2392 754.0627 2412.627)" class="st38" cx="1916.6" cy="725.1" rx="24.7" ry="24.7"/>
	<path d="M1925.1,739.9c-6.8,4-17.9,2.9-22.9-4c-0.1-0.1-0.1-0.3,0.1-0.4c0.1-0.1,0.3-0.1,0.4,0.1c4.8,6.6,15,6.9,21.5,3
		c6.3-3.7,11.1-12.6,7.7-20.4c-0.1-0.2,0-0.3,0.2-0.4c0.2-0.1,0.3,0,0.4,0.2C1936,725.9,1931.6,736,1925.1,739.9z"/>
	<path d="M1902.3,737.6L1902.3,737.6c-0.1,0.1-0.3,0-0.3-0.1c-0.5-1.1-0.4-2.3,0.1-2.7c0.6-0.3,1.8,0.2,2.4,1.2
		c0.1,0.1,0,0.3-0.1,0.3c-0.1,0.1-0.3,0-0.3-0.1c-0.5-0.8-1.3-0.9-1.6-0.7c-0.4,0.2-0.5,1-0.1,1.8
		C1902.4,737.4,1902.4,737.5,1902.3,737.6z"/>
	<path d="M1932,720L1932,720c-0.1,0.1-0.3,0-0.3-0.1c-0.5-1.1-0.4-2.3,0.1-2.7c0.6-0.3,1.8,0.2,2.4,1.2c0.1,0.1,0,0.3-0.1,0.3
		c-0.1,0.1-0.3,0-0.3-0.1c-0.5-0.8-1.3-0.9-1.6-0.7c-0.4,0.2-0.5,1-0.1,1.8C1932.2,719.8,1932.1,719.9,1932,720z"/>
	<ellipse transform="matrix(0.8605 -0.5094 0.5094 0.8605 -102.252 1073.339)" cx="1908.9" cy="723.4" rx="2" ry="5"/>
	<path d="M1920.2,716.8c1.4,2.4,1.8,4.7,0.8,5.3c-0.9,0.6-2.8-0.9-4.2-3.2c-1.4-2.4-1.8-4.7-0.8-5.3
		C1916.9,712.9,1918.8,714.4,1920.2,716.8z"/>
</g>
<g>
	<circle class="st36" cx="2089.1" cy="715.2" r="25.4"/>
	
		<ellipse transform="matrix(0.9788 -0.205 0.205 0.9788 -102.263 443.4759)" class="st39" cx="2089.3" cy="715.3" rx="24.7" ry="24.7"/>
	<path d="M2079.7,729.2c-6.6-4.4-10.3-14.9-6.3-22.3c0.1-0.2,0.3-0.2,0.4-0.1c0.2,0.1,0.2,0.3,0.1,0.4c-3.9,7.1,0.3,16.5,6.6,20.7
		c6.1,4.1,16.2,4.5,21.7-1.9c0.1-0.1,0.3-0.1,0.4,0c0.1,0.1,0.1,0.3,0,0.4C2097,733.1,2086,733.5,2079.7,729.2z"/>
	<path d="M2071.9,707.7L2071.9,707.7c-0.1-0.1-0.1-0.2-0.1-0.3c0.7-0.9,1.9-1.4,2.5-1s0.6,1.7,0,2.7c-0.1,0.1-0.2,0.1-0.3,0.1
		c-0.1-0.1-0.1-0.2-0.1-0.3c0.5-0.8,0.3-1.6,0-1.8c-0.4-0.2-1.1,0-1.7,0.7C2072.1,707.8,2072,707.8,2071.9,707.7z"/>
	<path d="M2100.6,726.9L2100.6,726.9c-0.1-0.1-0.1-0.2-0.1-0.3c0.7-0.9,1.9-1.4,2.5-1s0.6,1.7,0,2.7c-0.1,0.1-0.2,0.1-0.3,0.1
		c-0.1-0.1-0.1-0.2-0.1-0.3c0.5-0.8,0.3-1.6,0-1.8c-0.4-0.2-1.1,0-1.7,0.7C2100.9,726.9,2100.7,726.9,2100.6,726.9z"/>
	<ellipse transform="matrix(0.5549 -0.8319 0.8319 0.5549 340.4397 2051.6699)" cx="2087.6" cy="707.7" rx="5" ry="2"/>
	<path d="M2098.4,714.8c-1.5,2.3-3.5,3.6-4.4,3s-0.4-3,1.1-5.2c1.5-2.3,3.5-3.6,4.4-3C2100.4,710.2,2099.9,712.5,2098.4,714.8z"/>
</g>
<g>
	
		<ellipse transform="matrix(0.3162 -0.9487 0.9487 0.3162 639.6949 2464.5205)" class="st36" cx="2029.5" cy="788.5" rx="25.4" ry="25.4"/>
	
		<ellipse transform="matrix(0.1852 -0.9827 0.9827 0.1852 878.8715 2637.156)" class="st39" cx="2029.7" cy="788.6" rx="24.7" ry="24.7"/>
	<path d="M2020.1,802.5c-6.6-4.4-10.3-14.9-6.3-22.3c0.1-0.2,0.3-0.2,0.4-0.1c0.2,0.1,0.2,0.3,0.1,0.4c-3.9,7.1,0.3,16.5,6.6,20.7
		c6.1,4.1,16.2,4.5,21.7-1.9c0.1-0.1,0.3-0.1,0.4,0s0.1,0.3,0,0.4C2037.4,806.3,2026.4,806.7,2020.1,802.5z"/>
	<path d="M2012.3,781L2012.3,781c-0.1-0.1-0.1-0.2-0.1-0.3c0.7-0.9,1.9-1.4,2.5-1s0.6,1.7,0,2.7c-0.1,0.1-0.2,0.1-0.3,0.1
		c-0.1-0.1-0.1-0.2-0.1-0.3c0.5-0.8,0.3-1.6,0-1.8c-0.4-0.2-1.1,0-1.7,0.7C2012.5,781,2012.4,781,2012.3,781z"/>
	<path d="M2041,800.1L2041,800.1c-0.1-0.1-0.1-0.2-0.1-0.3c0.7-0.9,1.9-1.4,2.5-1s0.6,1.7,0,2.7c-0.1,0.1-0.2,0.1-0.3,0.1
		c-0.1-0.1-0.1-0.2-0.1-0.3c0.5-0.8,0.3-1.6,0-1.8c-0.4-0.2-1.1,0-1.7,0.7C2041.3,800.2,2041.1,800.2,2041,800.1z"/>
	<ellipse transform="matrix(0.5549 -0.8319 0.8319 0.5549 252.9439 2034.6654)" cx="2027.9" cy="780.9" rx="5" ry="2"/>
	<path d="M2038.8,788.1c-1.5,2.3-3.5,3.6-4.4,3s-0.4-3,1.1-5.2c1.5-2.3,3.5-3.6,4.4-3C2040.8,783.5,2040.3,785.8,2038.8,788.1z"/>
</g>
<g>
	<circle class="st36" cx="2160.4" cy="782" r="25.4"/>
	
		<ellipse transform="matrix(0.8299 -0.5579 0.5579 0.8299 -68.7963 1338.3075)" class="st40" cx="2160.4" cy="782" rx="24.7" ry="24.7"/>
	<path d="M2176.9,785.5c-1.6,7.7-9.9,15.2-18.3,14.2c-0.2,0-0.3-0.2-0.3-0.3c0-0.2,0.2-0.3,0.3-0.3c8.1,0.9,15.2-6.5,16.7-13.9
		c1.5-7.2-1.9-16.7-9.9-19.4c-0.2-0.1-0.3-0.2-0.2-0.4s0.2-0.3,0.4-0.2C2174,768,2178.5,778,2176.9,785.5z"/>
	<path d="M2159.9,800.8L2159.9,800.8c0,0.1-0.2,0.2-0.3,0.2c-1.1-0.3-2-1.3-1.9-1.9c0.1-0.7,1.3-1.2,2.5-1c0.1,0,0.2,0.1,0.2,0.3
		c0,0.1-0.1,0.2-0.3,0.2c-0.9-0.1-1.6,0.3-1.6,0.7c-0.1,0.4,0.4,1,1.2,1.3C2159.9,800.6,2160,800.7,2159.9,800.8z"/>
	<path d="M2166.9,767L2166.9,767c0,0.1-0.2,0.2-0.3,0.2c-1.1-0.3-2-1.3-1.9-1.9c0.1-0.7,1.3-1.2,2.5-1c0.1,0,0.2,0.1,0.2,0.3
		c0,0.1-0.1,0.2-0.3,0.2c-0.9-0.1-1.6,0.3-1.6,0.7c-0.1,0.4,0.4,1,1.2,1.3C2166.8,766.8,2166.9,766.9,2166.9,767z"/>
	<ellipse transform="matrix(0.2015 -0.9795 0.9795 0.2015 949.8049 2737.6265)" cx="2154" cy="786.3" rx="2" ry="5"/>
	<path d="M2156.5,773.6c2.7,0.6,4.7,1.9,4.4,2.9s-2.6,1.5-5.3,1c-2.7-0.6-4.7-1.9-4.4-2.9S2153.9,773,2156.5,773.6z"/>
</g>
<g>
	<circle class="st36" cx="2179.8" cy="644.9" r="25.4"/>
	
		<ellipse transform="matrix(0.2329 -0.9725 0.9725 0.2329 1044.9739 2614.6208)" class="st41" cx="2179.8" cy="644.9" rx="24.7" ry="24.7"/>
	<path d="M2188.4,659.4c-6.8,4.1-17.9,3-22.9-3.9c-0.1-0.1-0.1-0.3,0.1-0.4c0.1-0.1,0.3-0.1,0.4,0.1c4.8,6.6,15,6.8,21.6,2.9
		c6.3-3.8,11-12.7,7.6-20.5c-0.1-0.2,0-0.3,0.2-0.4c0.2-0.1,0.3,0,0.4,0.2C2199.3,645.4,2194.9,655.5,2188.4,659.4z"/>
	<path d="M2165.6,657.3L2165.6,657.3c-0.1,0.1-0.3,0-0.3-0.1c-0.5-1.1-0.4-2.3,0.1-2.7c0.6-0.3,1.8,0.2,2.4,1.1
		c0.1,0.1,0,0.3-0.1,0.3c-0.1,0.1-0.3,0-0.3-0.1c-0.5-0.8-1.3-0.9-1.6-0.7c-0.4,0.2-0.5,1-0.1,1.8
		C2165.8,657.1,2165.7,657.2,2165.6,657.3z"/>
	<path d="M2195.2,639.5L2195.2,639.5c-0.1,0.1-0.3,0-0.3-0.1c-0.5-1.1-0.4-2.3,0.1-2.7c0.6-0.3,1.8,0.2,2.4,1.1
		c0.1,0.1,0,0.3-0.1,0.3c-0.1,0.1-0.3,0-0.3-0.1c-0.5-0.8-1.3-0.9-1.6-0.7c-0.4,0.2-0.5,1-0.1,1.8
		C2195.4,639.3,2195.3,639.4,2195.2,639.5z"/>
	<ellipse transform="matrix(0.8572 -0.515 0.515 0.8572 -20.9188 1210.5602)" cx="2172.3" cy="643" rx="2" ry="5"/>
	<path d="M2183.4,636.4c1.4,2.3,1.8,4.7,0.8,5.3c-0.9,0.6-2.8-0.9-4.3-3.2c-1.4-2.3-1.8-4.7-0.8-5.3
		C2180,632.6,2181.9,634,2183.4,636.4z"/>
</g>
<path class="st12" d="M1985.6,783.2c0.3-1.5,0.4-3,0.3-4.6c-0.8-8.3-8.2-14.3-16.5-13.5c-4.2,0.4-7.9,2.6-10.3,5.7
	c-3-2.6-7-3.9-11.3-3.5c-8.3,0.8-14.3,8.2-13.5,16.5c0.1,0.9,0.3,1.8,0.5,2.6l0,0c0,0,3,15.8,28.4,26.3l0,0l0,0l0,0l0,0
	C1981.2,800.5,1984.9,787.9,1985.6,783.2z"/>
<path class="st12" d="M1998,733.7c0.7-1.3,1.3-2.8,1.6-4.4c1.6-8.1-3.7-16.1-11.9-17.7c-4.2-0.8-8.3,0.2-11.5,2.5
	c-2.1-3.3-5.6-5.8-9.8-6.6c-8.1-1.6-16.1,3.7-17.7,11.9c-0.2,0.9-0.3,1.8-0.3,2.7l0,0c0,0-1.7,16,19.5,33.4l0,0l0,0l0,0l0,0
	C1988.8,749.1,1995.9,738,1998,733.7z"/>
<path class="st12" d="M2047.6,718.8c1.3-0.8,2.4-1.9,3.5-3.1c5.3-6.4,4.3-15.9-2.1-21.2c-3.3-2.7-7.4-3.8-11.3-3.3
	c-0.3-3.9-2.2-7.7-5.5-10.4c-6.4-5.3-15.9-4.3-21.2,2.1c-0.6,0.7-1.1,1.5-1.5,2.2l0,0c0,0-9,13.3,1.4,38.7l0,0l0,0l0,0l0,0
	C2032.3,728,2043.7,721.7,2047.6,718.8z"/>
<path class="st12" d="M2112.2,649.7c-0.3-1.5-0.9-2.9-1.7-4.3c-4.1-7.2-13.3-9.7-20.5-5.5c-3.7,2.1-6.1,5.6-7.1,9.4
	c-3.8-1.1-8-0.7-11.7,1.4c-7.2,4.1-9.7,13.3-5.5,20.5c0.5,0.8,1,1.5,1.6,2.2l0,0c0,0,9.2,13.2,36.7,12.4l0,0l0,0l0,0l0,0
	C2115.4,667.3,2113.5,654.3,2112.2,649.7z"/>
<path class="st12" d="M2137,781c-0.3-1.5-0.9-2.9-1.7-4.3c-4.1-7.2-13.3-9.7-20.5-5.5c-3.7,2.1-6.1,5.6-7.1,9.4
	c-3.8-1.1-8-0.7-11.7,1.4c-7.2,4.1-9.7,13.3-5.5,20.5c0.5,0.8,1,1.5,1.6,2.2l0,0c0,0,9.2,13.2,36.7,12.4l0,0l0,0l0,0l0,0
	C2140.1,798.6,2138.3,785.6,2137,781z"/>
<path class="st12" d="M2200.7,710.6c0.7-1.4,1.2-2.8,1.4-4.4c1.3-8.2-4.3-15.9-12.5-17.2c-4.2-0.7-8.3,0.5-11.4,2.9
	c-2.3-3.2-5.8-5.6-10-6.3c-8.2-1.3-15.9,4.3-17.2,12.5c-0.1,0.9-0.2,1.8-0.2,2.7l0,0c0,0-1.1,16,20.7,32.6l0,0l0,0l0,0l0,0
	C2192.1,726.3,2198.8,715,2200.7,710.6z"/>
<g>
	<g>
		<path class="st1" d="M100,407.8c0.3-0.4,0.5-0.7,0.8-1.1c-7.4-20-10.5-41.5-8.9-63c2.4-30.9,14.6-60.4,34.3-84
			c-9.8-19.9-14.4-42.3-12.7-64.6c2.4-32,17.6-62.2,41.7-83.4c8.9-6,17.8-11.9,26.6-17.9c20.4-10,41.9-14.1,64.6-12.5
			c10.5,2.2,20.9,4.4,31.4,6.6c20.3,7.2,37.7,18.9,52,35.1c21.9,24.8,33,58.2,30.4,91.2c-1.1,14.1-4.6,27.8-10.3,40.6
			c0.7,0.7,1.4,1.4,2.1,2.2c26.3,29.9,39.6,69.9,36.6,109.6c-1.1,13.8-4.1,27.2-8.9,40.1c4.4,6.5,8.4,13.3,12,20.4
			c1.5,3,2.8,6.1,4.1,9.1c11.7,24.3,18.1,60.1,15.2,85.7c-2.4,29.5-11.8,56.5-28.3,81c-24.8,36.8-63.6,62.5-107.2,71
			c-43.6,8.5-89.2-0.8-126-25.6c-13.3-9-25.2-19.8-35.3-32.1c-0.1-0.1-0.1-0.1-0.2-0.2c-19.6-19-35-55.4-39.9-81.4
			c-0.9-15.1-1.8-30.2-2.6-45.3C73.9,459.7,83.4,432.5,100,407.8z"/>
		<path class="st1" d="M348.9,529.1c0-28-7.9-54.5-21.6-77.2c8-18.5,12.5-38.8,12.5-59.9c0-47-22-89.6-56.2-117.9
			c7.9-18.3,12.4-38.5,12.4-59.4c0-56-31.4-105.7-77.3-132.4c9-1.3,18.2-1.7,27.6-1c10.5,2.2,20.9,4.4,31.4,6.6
			c20.3,7.2,37.7,18.9,52,35.1c21.9,24.8,33,58.2,30.4,91.2c-1.1,14.1-4.6,27.8-10.3,40.6c0.7,0.7,1.4,1.4,2.1,2.2
			c26.3,29.9,39.6,69.9,36.6,109.6c-1.1,13.8-4.1,27.2-8.9,40.1c4.4,6.5,8.4,13.3,12,20.4c1.5,3,2.8,6.1,4.1,9.1
			c11.7,24.3,18.1,60.1,15.2,85.7c-2.4,29.5-11.8,56.5-28.3,81c-24.8,36.8-63.6,62.5-107.2,71c-13.9,2.7-28,3.6-41.9,2.7
			C299.3,659.8,348.9,599.4,348.9,529.1z"/>
	</g>
	<g>
		<g>
			<line class="st1" x1="241.6" y1="735.5" x2="241.6" y2="442"/>
			<polygon class="st2" points="206.3,735.5 235.7,442 247.4,442 276.8,735.5 			"/>
		</g>
		<g>
			<line class="st1" x1="236.9" y1="543.2" x2="190.8" y2="497"/>
			<polygon class="st2" points="226.5,553.5 189,498.7 192.5,495.3 247.3,532.8 			"/>
		</g>
		<g>
			<line class="st1" x1="236.9" y1="607.7" x2="283.1" y2="561.6"/>
			<polygon class="st2" points="226.5,597.4 281.3,559.9 284.8,563.3 247.3,618.1 			"/>
		</g>
	</g>
</g>
<g>
	<g>
		<path class="st1" d="M461.4,461.7c1.3-16.9,7.7-33.2,18.1-46.5c-6.2-13.6-9-28.7-7.9-43.7c1.7-22.8,12.6-44.4,29.8-59.5
			c6.3-4.3,12.7-8.5,19-12.8c11.2-5.5,22.8-8.5,34.9-9.1c12.5-22.8,37.8-35.8,65.5-35.8c15,0,28.6,6.3,39.3,16.1
			c6.1-4.1,12.2-8.2,18.3-12.3c18.1-8.9,37.2-12.6,57.3-11.1c9.3,2,18.6,3.9,27.9,5.9c18.1,6.4,33.5,16.8,46.2,31.2
			c0.6,0.7,1.2,1.4,1.8,2.2c9.4-3,19.4-4.2,30-4.2c40.8,0,71.7,42.1,68.8,80.3c-1.4,18.8-10.2,36.6-24,49.3
			c7.2,17.6,10.4,36.8,9,55.9c-2.4,31.5-17.4,61.3-41.1,82.2L828,567.4c-20.1,9.8-41.3,13.9-63.6,12.4c-0.9-0.2-1.8-0.4-2.6-0.6
			c-14.7,10.5-31.3,13.9-49.6,13.9c-14.3,0-27.4-5.1-38.2-13.4c-7,0.4-14,0.8-21,1.2c-14.4,11.1-30.8,14.6-49.1,14.6
			c-26.3,0-48.3-18.3-59-41.4c-1.4,0-2.8,0.1-4.2,0.1C493.6,554.2,458,505.7,461.4,461.7z"/>
		<path class="st1" d="M696.2,566.7c77.3,0,141.8-64.5,141.8-141.8c0-39.8-17.2-76.2-44.3-102.2c-18.7-26.7-46.3-46.9-78.2-56
			c-4-6.1-8.5-11.8-13.4-17.1c10.9-2.6,22-3.4,33.5-2.6c9.3,2,18.6,3.9,27.9,5.9c18.1,6.4,33.5,16.8,46.2,31.2
			c0.6,0.7,1.2,1.4,1.8,2.2c9.4-3,19.4-4.2,30-4.2c40.8,0,71.7,42.1,68.8,80.3c-1.4,18.8-10.2,36.6-24,49.3
			c7.2,17.6,10.4,36.8,9,55.9c-2.4,31.5-17.4,61.3-41.1,82.2L828,567.4c-20.1,9.8-41.3,13.9-63.6,12.4c-0.9-0.2-1.8-0.4-2.6-0.6
			c-14.7,10.5-31.3,13.9-49.6,13.9c-14.3,0-27.4-5.1-38.2-13.4c-5.7,0.3-11.4,0.7-17,1c9.3-3.9,18.2-8.8,26.4-14.6
			C687.5,566.4,691.8,566.7,696.2,566.7z"/>
		<path class="st1" d="M608.9,591.4c13.9-0.6,27.4-3.3,40-7.7c-12.1,8-25.5,11.2-40.2,11.8C608.9,594,608.9,592.7,608.9,591.4z"/>
	</g>
	<g>
		<g>
			<line class="st1" x1="661.6" y1="735.5" x2="661.6" y2="463.2"/>
			<polygon class="st2" points="628.9,735.5 656.1,463.2 667,463.2 694.3,735.5 			"/>
		</g>
		<g>
			<line class="st1" x1="657.3" y1="557.1" x2="614.5" y2="514.2"/>
			<polygon class="st2" points="647.6,566.7 612.9,515.8 616.1,512.6 666.9,547.4 			"/>
		</g>
		<g>
			<line class="st1" x1="657.3" y1="617" x2="700.1" y2="574.2"/>
			<polygon class="st2" points="647.6,607.3 698.5,572.6 701.7,575.8 666.9,626.6 			"/>
		</g>
	</g>
</g>
</svg>
