<?xml version="1.0" encoding="utf-8"?>
<!-- Generator: Adobe Illustrator 24.3.0, SVG Export Plug-In . SVG Version: 6.00 Build 0)  -->
<svg version="1.1" xmlns="http://www.w3.org/2000/svg" xmlns:xlink="http://www.w3.org/1999/xlink" x="0px" y="0px"
	 viewBox="0 0 750 500" style="enable-background:new 0 0 750 500;" xml:space="preserve">
<style type="text/css">
	.st0{fill:#662D91;}
	.st1{fill:#F15A24;}
	.st2{fill:#ED1E79;}
	.st3{fill:#FBB03B;}
	.st4{fill:#E2A61E;}
	.st5{fill:#FFB680;}
	.st6{fill:#3A3432;}
	.st7{fill:#B758A5;}
	.st8{fill:#ED8A40;}
	.st9{fill:#FFE19F;}
	.st10{fill:#5A322C;}
	.st11{fill:#FFFFFF;}
	.st12{fill:#2F8944;}
	.st13{fill:#FFCA45;}
	.st14{fill:#19722A;}
	.st15{fill:#43A6E8;}
	.st16{fill:#1A85C1;}
	.st17{fill:#726663;}
</style>
<g id="background">
	<rect class="st0" width="750" height="500"/>
</g>
<g id="objects">
	<g>
		<path class="st1" d="M45.08,0H34.1C27.34,47.38,62.08,139.08,0,154.65v42.98C77.9,161.86,37.62,54.58,45.08,0z"/>
		<path class="st2" d="M119.41,13.72c-3.35,36.71,4.83,67.61,28.59,91.38c43.02,43.04-58.31,181.95,92.75,181.95
			c73.36,0,123.56-73.68,121.18-144.6c-1.28-38.12-20.04-75.04-14.7-113.57c1.04-7.5,5.85-18.5,12.74-28.87h-24.42
			c-5.63,8.76-9.9,16.68-10.97,19.71c-11.48,32.67,0.14,61.47,4.2,94.03c6.81,54.68-19.49,121.42-76.56,132.34
			c-26.63,5.1-62.31-4.56-73.69-33.18c-12.51-31.46,11.74-64.99,3.81-97.57c-6.65-27.35-32.41-42.2-40.95-68.82
			c-4.97-15.5-4.71-31.85,0.25-46.51H121.6C120.65,4.02,119.88,8.56,119.41,13.72z"/>
		<path class="st1" d="M141.38,46.51c8.54,26.61,34.3,41.47,40.95,68.82c7.93,32.59-16.32,66.12-3.81,97.57
			c11.38,28.62,47.07,38.27,73.69,33.18c57.07-10.92,83.37-77.66,76.56-132.34c-4.06-32.56-15.68-61.35-4.2-94.03
			c1.07-3.03,5.34-10.95,10.97-19.71h-16.29c-17.75,17.1-28.59,43.14-23.72,74.92c6.98,45.51,9.56,135.84-48.76,127.82
			c-82.41-11.34-23.17-104.37-58.15-128.31C165.59,58.65,159.28,29.6,176.31,0h-34.67C136.67,14.66,136.41,31.02,141.38,46.51z"/>
		<path class="st3" d="M188.63,74.42c34.98,23.94-24.27,116.97,58.15,128.31c58.32,8.02,55.74-82.31,48.76-127.82
			C290.66,43.14,301.5,17.1,319.25,0h-25.76c-44.55,54.53,2.18,138.77-29.3,159.05c-28.1,18.1-50.3-18.69-40.57-60.69
			C236.66,42,175.11,43.17,197.78,0h-21.47C159.28,29.6,165.59,58.65,188.63,74.42z"/>
		<path class="st3" d="M34.1,0H0v154.65C62.08,139.08,27.34,47.38,34.1,0z"/>
		<path class="st2" d="M43.41,208.57C107.94,155.91,66.61,72.59,71.2,0H57.76c-9.85,42.84,17.39,121.64-2.85,159.98
			C40.79,186.73,18.5,203.63,0,235.16v17.08C8.81,240.2,22.46,225.67,43.41,208.57z"/>
		<path class="st2" d="M24.44,408.16C13.59,395.71,5.71,383.26,0,371.43v43.64c19.21,18.6,26.42,55.15,25.64,84.93h22.75
			C50.99,470.09,47.46,434.58,24.44,408.16z"/>
		<path class="st1" d="M58.88,341.24c0-64.35,84.37-78.48,84.37-150.02c0-67.37-55.8-103.6-30.83-191.22H98.09
			c-21.65,87.98,37.73,135.74,11.72,199.54c-30.33,74.4-135.03,105.71-58.66,196.15C84.73,435.44,95.48,471.77,97,500h18.14
			C110.7,429.62,58.88,417.81,58.88,341.24z"/>
		<path class="st3" d="M109.81,199.54C135.82,135.74,76.44,87.98,98.09,0H71.2c-4.59,72.59,36.74,155.91-27.79,208.57
			C22.46,225.67,8.81,240.2,0,252.24v119.19c5.71,11.83,13.59,24.28,24.44,36.73c23.02,26.43,26.55,61.93,23.95,91.84H97
			c-1.51-28.23-12.27-64.56-45.84-104.31C-25.21,305.25,79.49,273.94,109.81,199.54z"/>
		<path class="st1" d="M218.7,308.1c83.76,27.04,137.43-11.86,162.47-48.33c25.05-36.46,24.42-73.95,5.29-147.82
			C372.44,57.78,383.75,17.59,390.78,0h-5.02c-24.16,39.37-19.83,104.24-4.83,155.38c19.42,66.18-47.44,161.66-131.88,146.01
			S115,289.89,97.35,346.35c-13.57,43.42,33.47,87.67,43.9,153.65h12.35c-3.11-20.85-10.01-42-22.61-61.97
			C73.6,347.01,134.94,281.06,218.7,308.1z"/>
		<path class="st3" d="M260.63,409.12c-2.69-65.66,94.02-39.54,146.66-109.03C490.52,190.24,388.5,73.43,432.28,0H421.6
			c-49.86,87.21,44.87,159.79-14.31,278.42c-41.88,83.95-166.16,50.13-165.26,131.25c0.77,68.79,32.32,62.17,55.03,90.33h18.77
			C305.02,453.06,262.97,466.3,260.63,409.12z"/>
		<path class="st2" d="M242.03,409.67c-0.91-81.12,123.38-47.3,165.26-131.25C466.47,159.79,371.74,87.21,421.6,0h-30.82
			c-7.03,17.59-18.34,57.78-4.31,111.95c19.13,73.87,19.75,111.35-5.29,147.82c-25.05,36.46-78.71,75.37-162.47,48.33
			c-83.76-27.04-145.1,38.91-87.72,129.93c12.59,19.97,19.5,41.12,22.61,61.97h37.26c-6.29-26.47-23.42-50.52-42.81-77.35
			c-14.41-19.95-31.53-52.11-18.64-76.99c10.81-20.86,45-31.67,66.7-23.08c54.26,21.48,4.63,97.46,31.86,136.85
			c11.66,16.87,29.87,27.58,45.78,40.57h23.32C274.35,471.83,242.8,478.46,242.03,409.67z"/>
		<path class="st3" d="M227.96,459.43c-27.23-39.39,22.41-115.37-31.86-136.85c-21.69-8.59-55.89,2.22-66.7,23.08
			c-12.89,24.88,4.23,57.04,18.64,76.99c19.39,26.83,36.52,50.88,42.81,77.35h12.83c-8.15-22.42-21.63-44.15-31.97-64.42
			c-9.97-19.56-29.78-44.08-27.52-66.59c2.17-21.51,25.82-42.37,45.89-26.15c34.09,27.56-0.42,95.78,34.72,130.81
			c10.34,10.31,21.85,17.17,31.74,26.34h17.2C257.83,487.01,239.62,476.3,227.96,459.43z"/>
		<path class="st2" d="M352.66,464.16c-5.79-26.68-13.19-52.73,10.67-73.02c18.6-15.81,46.67-15.91,68.19-24.65
			c26.65-10.83,44.01-32.31,54.19-58.88c23.51-61.4,6.19-119.15-14.34-178.03C460.55,98.56,442.06,32.04,462.91,0H451.7
			c-10.36,13.41-14.03,30.93-15.58,47.5c-4.23,45.01,15.03,79.19,23.35,121.08c17.76,89.41,3.54,168.23-95.7,191.46
			c-46.03,10.78-87.46,39.71-48.35,89.19c12.42,15.72,18.19,34.28,20.55,50.77h20.73C356.95,488.42,355.4,476.76,352.66,464.16z"/>
		<path class="st1" d="M488.99,374.6c40.05-37.47,85.87-61.68,96.11-121.07c8.82-51.14-13.96-93.92-45.18-131.79
			C511.69,87.5,481.55,42.77,501.74,0h-11.6C457.47,100.11,583.55,167.1,550,270.46c-15.89,48.95-42.31,63.62-80.49,92.57
			c-39.82,30.19-50.74,78.88-39.74,126.39c0.81,3.52,1.7,7.05,2.66,10.57h22.72C438.39,458.57,459.2,402.47,488.99,374.6z"/>
		<path class="st3" d="M469.51,363.03c38.18-28.95,64.6-43.63,80.49-92.57C583.55,167.1,457.47,100.11,490.14,0h-27.22
			c-20.85,32.04-2.36,98.56,8.46,129.59c20.53,58.87,37.85,116.63,14.34,178.03c-10.18,26.57-27.54,48.05-54.19,58.88
			c-21.51,8.74-49.59,8.83-68.19,24.65c-23.86,20.29-16.46,46.34-10.67,73.02c2.73,12.6,4.29,24.26,4.03,35.84h75.73
			c-0.96-3.52-1.84-7.06-2.66-10.57C418.77,441.91,429.69,393.22,469.51,363.03z"/>
		<path class="st3" d="M590.5,367.73c69-57.87,67.89-160.92,1.67-232.89C549.07,88,525.57,54.86,539.68,0h-14.89
			c-1.01,6.24-1.53,12.42-1.96,17.79c-2.73,34.33,6.23,64.1,28.02,90.92c19.12,23.53,41.14,39.78,52.94,68.81
			c11.86,29.16,17.19,68.56,10.29,99.63c-14.23,64.08-81.43,88.03-106.13,145.21c-4.71,10.91-15.99,47.8-19.29,77.64h29.12
			C516.68,450.96,536.7,412.85,590.5,367.73z"/>
		<path class="st2" d="M604.11,387.16c36.48-45.47,69.98-74.36,61.02-139.02c-8.4-60.68-49.38-98.04-86.35-142.42
			C554.35,76.39,544.51,35.82,555.38,0h-15.69c-14.11,54.86,9.39,88,52.49,134.84c66.22,71.97,67.32,175.02-1.67,232.89
			c-53.8,45.12-73.81,83.23-72.7,132.27h66.91C572.72,461.87,577.95,419.77,604.11,387.16z"/>
		<path class="st2" d="M564.04,25.4c1.34,12.31,5.89,24.42,12.76,34.97c12.13,18.63,31.06,31.5,47.36,46.61
			c18.39,17.05,32.71,38.22,39.09,61.85c6.44,23.87,8.22,50.09,25.61,69.8c14.53,16.48,38.28,25.12,59.72,15.24
			c0.48-0.22,0.96-0.46,1.43-0.69v-26.02c-15.15,0.68-30.53-4.11-41.04-14.73c-9.19-9.29-15.64-22.07-19.33-34.52
			c-4.58-15.49-2.12-32.86-9.59-47.52c-6.86-13.45-16.34-25.22-27.62-35.22c-9.96-8.83-21.33-15.87-31.35-24.62
			c-9.73-8.49-17.75-18.97-21.15-31.6c-3.36-12.5-2.65-26.37,0.87-38.95h-33.49C564.52,8.24,563.12,16.96,564.04,25.4z"/>
		<path class="st1" d="M599.93,38.95c3.4,12.63,11.42,23.11,21.15,31.6c10.02,8.75,21.39,15.79,31.35,24.62
			c11.28,10,20.76,21.77,27.62,35.22c7.47,14.65,5,32.03,9.59,47.52c3.68,12.45,10.13,25.23,19.33,34.52
			c10.51,10.62,25.89,15.41,41.04,14.73v-35.96c-17.13-9.45-27.73-27.97-32.48-47.08c-5.8-23.34-5.65-49.93-21.89-69.25
			c-8.46-10.07-20.21-15.63-29.48-24.65c-8.59-8.35-12.35-19.39-13.11-31.14c-0.42-6.42-0.18-12.79,0.6-19.07H600.8
			C597.29,12.58,596.57,26.45,599.93,38.95z"/>
		<path class="st3" d="M653.04,19.07c0.76,11.75,4.52,22.78,13.11,31.14c9.28,9.02,21.02,14.58,29.48,24.65
			c16.24,19.32,16.09,45.91,21.89,69.25c4.75,19.11,15.35,37.63,32.48,47.08V0h-96.36C652.85,6.28,652.62,12.66,653.04,19.07z"/>
		<path class="st2" d="M619.38,491.57c-2.37-10.99-1.07-22.43,4.36-32.34c6.03-11.02,16.39-18.07,27.72-22.8
			c6.16-2.57,12.52-4.58,18.75-6.95c5.43-2.06,11.25-4.35,15.09-8.9c6.5-7.71,7.9-19.13,9.97-28.65
			c4.52-20.78,6.67-43.24,25.01-56.99c8.46-6.34,18.85-10.1,29.73-11.64v-42.97c-5.08-0.86-10.23-1.17-15.26-0.67
			c-13.67,1.34-27.47,7.37-37.82,16.43c-9.52,8.33-14.02,20.56-18.49,32.03c-5.42,13.92-9.92,28.18-15.39,42.08
			c-3.98,10.1-8.45,18.54-16.46,25.97c-12.99,12.05-29.61,19.97-40.87,33.92c-13.64,16.9-15.25,40.01-9.3,60.41
			c0.97,3.31,2.16,6.48,3.54,9.5h21.85C620.81,497.26,620,494.45,619.38,491.57z"/>
		<path class="st1" d="M695.26,391.93c-2.07,9.52-3.47,20.94-9.97,28.65c-3.84,4.55-9.66,6.84-15.09,8.9
			c-6.23,2.37-12.59,4.38-18.75,6.95c-11.33,4.73-21.69,11.79-27.72,22.8c-5.42,9.91-6.72,21.35-4.36,32.34
			c0.62,2.87,1.43,5.69,2.41,8.43H750V323.3c-10.87,1.54-21.27,5.29-29.73,11.64C701.92,348.69,699.78,371.15,695.26,391.93z"/>
		<path class="st3" d="M743.96,355.83c-10.69,5.85-18.53,16.23-21.92,27.88c-4.04,13.85-0.7,28.41,0.41,42.42
			c0.53,6.7,0.62,13.53-0.84,20.13c-1.17,5.32-3.06,11.04-6.6,15.29c-5.33,6.39-13.34,6.27-20.82,4.54
			c-8.56-1.97-17.36-5.99-26.32-4.95c-5.29,0.62-10.74,3.3-15.14,6.22c-3.74,2.49-7.04,5.7-9.27,9.64
			c-3.99,7.05-3.98,15.37-1.87,23.01H750V353.17C747.93,353.87,745.91,354.76,743.96,355.83z"/>
	</g>
	<g>
		<path class="st4" d="M344.04,229.26c-3.05,1.51-2.3,17.27,2.2,21.17c4.5,3.9,9.2-0.71,9.61-1.04
			C356.26,249.04,357.75,227.59,344.04,229.26z"/>
		<path class="st5" d="M357.17,217.31c0,0-3.87,5.29-10.29,11.72c-2.59,2.6-7.31,4.74-9.3,4.28c-11.11-2.57-18.29-3.43-21.65-7.49
			c-1.55-1.87,1.66-4.4-0.15-7.12c-3.03-4.56-5.9-6.61-5.98-4.7c-0.15,3.71,3.62,5.13,1.6,6.35c-2.02,1.21-7.56-0.21-6.59-4.06
			c0.7-2.78,3.49-1.99,4.13-3.51c1.05-2.5-3.31-2.48-6.13,0c-2.83,2.48-4.98,2.67-1.75,8.28c3.23,5.61,6.21,7.23,12.27,12.31
			c6.06,5.07,21.39,13.65,29.45,12.27c6.87-1.18,22.04-16.3,22.04-16.3L357.17,217.31z"/>
		<path class="st4" d="M437.61,229.26c3.05,1.51,2.3,17.27-2.2,21.17c-4.5,3.9-9.2-0.71-9.61-1.04
			C425.4,249.04,423.91,227.59,437.61,229.26z"/>
		<path class="st5" d="M424.48,217.31c0,0,3.87,5.29,10.29,11.72c2.59,2.6,7.31,4.74,9.3,4.28c11.11-2.57,18.29-3.43,21.65-7.49
			c1.55-1.87-1.66-4.4,0.15-7.12c3.03-4.56,5.9-6.61,5.98-4.7c0.15,3.71-3.62,5.13-1.6,6.35c2.02,1.21,7.56-0.21,6.59-4.06
			c-0.7-2.78-3.49-1.99-4.13-3.51c-1.05-2.5,3.31-2.48,6.13,0c2.83,2.48,4.98,2.67,1.75,8.28c-3.23,5.61-6.21,7.23-12.27,12.31
			c-6.06,5.07-21.39,13.65-29.45,12.27c-6.87-1.18-22.04-16.3-22.04-16.3L424.48,217.31z"/>
		<g>
			<path class="st6" d="M416.24,161.2c1.06-2.12,3.21-3.2,2.09-5.91c-0.94-2.27-5.09-1.83-5.7-4.47c-0.67-2.92,0.91-6.11-1.87-8.14
				c-2.19-1.6-4.57-0.28-6.78-1.63c-1.47-0.9-1.64-2.34-3.56-2.66c-1.96-0.32-3.83,0.42-5.56,1.01c-0.96,0.74-4.58,1.43-7.47-1.28
				c-1.52-1.43-5.23-1.29-7.07-0.3c-2.64,1.43-1.65,3.96-4.72,4.35c-2.94,0.38-6.02-1.2-7.82,1.88c-1.75,3,0.73,4.59,1.84,6.81
				c1.91,3.82-4.69,4.3-4.64,8.43c0.02,2.4,1.3,3.53,1.38,4.06c0.33,2.32-3.97,3.36-2.85,8.23c0.76,3.31,3.44,3.21,5.25,6
				c1.55,2.39,0,4.43,3.25,6.85c1.54,1.15,5.91-1.68,7.7-0.92c3.38,1.41,4.21-0.09,5.53-2.11c0.29,0.28,0.72,0.39,1.16,0.1
				c3.76-2.45,7.55,3.62,11.43,3.42c1.87-0.1,3.18-1.57,4.85-1.75c2.2-0.23,3.62,0.98,5.9-0.37c2.4-1.43,2.2-3.27,3.1-6.04
				c0.79-2.43,2.26-2.54,3.83-4.04c1.12-1.07,1.11-3.85,0.2-5.47C415.25,166.45,414.48,162.38,416.24,161.2z"/>
			<path class="st7" d="M402.46,165.3c0,0,3.6,0,5.4,4s6.7,19.11,6.7,19.11s-3.2,1.2-4.7,1.5c-1.5,0.3-3.3,0-3.3,0
				s-1.4-14.61-2-17.11C403.96,170.3,402.46,165.3,402.46,165.3z"/>
			<g>
				<g>
					<path class="st8" d="M403.44,194.11c-2.82-0.87-4.52-1.3-5.82-2.58c-0.76-2.85-0.28-9.05-0.28-9.05h-12.13
						c0,0,0.48,6.2-0.28,9.05c-1.3,1.28-3,1.71-5.82,2.58c-0.51,8.36,7.53,12.63,11.79,13.1v0.05c0.12,0,0.25-0.02,0.37-0.02
						c0.12,0.01,0.26,0.02,0.37,0.02v-0.05C395.91,206.74,403.95,202.47,403.44,194.11z"/>
					<g>
						<g>
							<path class="st5" d="M402.21,167.73c0,0,2.82-0.52,3.53,1.65c0.71,2.17-1.63,5.11-3.38,4.94
								C400.59,174.16,402.21,167.73,402.21,167.73z"/>
							<path class="st5" d="M379.64,167.73c0,0-2.82-0.52-3.53,1.65c-0.71,2.17,1.63,5.11,3.38,4.94
								C381.25,174.16,379.64,167.73,379.64,167.73z"/>
							<path class="st5" d="M378.64,165.62c0.13,1.33,0.24,2.6,0.24,3.67c0,8.77,5.42,15.89,12.1,15.89c6.68,0,12.1-7.11,12.1-15.89
								c0-0.96,0.11-2.25,0.24-3.65C395.53,163.03,386.06,162.15,378.64,165.62z"/>
						</g>
					</g>
				</g>
			</g>
			<path class="st9" d="M367.87,288.71h47.14l-1.83-63.86c0,0,7.65,20.36,12.63,24.53c-1.38-6.9,9.56-17.73,11.81-20.12
				c-4.34-9.59-12.04-22.46-15.61-26.52c-3.32-3.76-10.31-6.4-15.02-7.82c-0.42-0.13-0.82-0.25-1.2-0.35c-2.1-0.6-3.51-0.9-3.51-0.9
				s-1.54,7.15-10.84,7.15c-7.94,0-10.84-7.15-10.84-7.15s-1.2,0.26-3.01,0.77c-0.38,0.1-0.78,0.22-1.2,0.35
				c-4.69,1.39-12.08,4.07-15.51,7.97c-3.57,4.06-11.58,18.4-16.84,26.52c3.2,2.97,9.9,18.08,7.45,22.73
				c9.9-1.56,16.36-24.9,16.36-24.9L367.87,288.71z"/>
			<path class="st7" d="M403.7,164.24c0,0-3.43-2.56-12.69-2.56c-10,0-12.69,2.56-12.69,2.56l0.27,3.44c0,0,5.28-1.62,12.43-1.62
				c6.43,0,12.43,1.62,12.43,1.62L403.7,164.24z"/>
			<path class="st6" d="M378.15,242.88c0,0,6.83,2.98,12.83,2.98c6.01,0,16.39-3.38,16.39-3.38l-1.51,6.44c0,0-7.06,1.5-14.88,1.5
				c-7.82,0-12.83-3.33-12.83-3.33V242.88z"/>
			<path class="st7" d="M379.12,194.11c1.55,11.07,2.35,26.01,3.9,39.5c1.55,13.49,7.96,26.79,7.96,26.79l-7.92,36.24
				c0,0-18.45-3.21-22.85-6.97c1.98-12.66,4.15-13.86,5.81-34.97c0.98-12.49,1.6-56.62,1.6-56.62S373.77,194.17,379.12,194.11z"/>
			<path class="st7" d="M403.61,194.11c-1.55,11.07-2.35,26.01-3.9,39.5c-1.55,13.49-8.73,26.79-8.73,26.79l9.6,38.32
				c0,0,18.79-7.32,23.19-11.08c-1.98-12.66-5.4-11.83-7.05-32.94c-0.98-12.49-1.6-56.62-1.6-56.62S408.96,194.17,403.61,194.11z"/>
			<path class="st10" d="M393.07,260.32c0,1.12-0.91,2.03-2.03,2.03s-2.03-0.91-2.03-2.03c0-1.12,0.91-2.03,2.03-2.03
				S393.07,259.2,393.07,260.32z"/>
			<g>
				
					<rect x="386.15" y="192.43" transform="matrix(0.9544 -0.2985 0.2985 0.9544 -44.4918 124.9236)" class="st6" width="1.2" height="31.4"/>
			</g>
			<g>
				
					<rect x="380.49" y="207.53" transform="matrix(0.2986 -0.9544 0.9544 0.2986 79.2423 524.0844)" class="st6" width="31.4" height="1.2"/>
			</g>
			<g>
				<g>
					<path class="st11" d="M391.44,235.48c-3.57,0-6.48-2.91-6.48-6.48c0-3.57,2.91-6.48,6.48-6.48c3.57,0,6.48,2.91,6.48,6.48
						C397.92,232.57,395.02,235.48,391.44,235.48z M391.44,223.71c-2.91,0-5.28,2.37-5.28,5.28s2.37,5.28,5.28,5.28
						c2.91,0,5.28-2.37,5.28-5.28S394.35,223.71,391.44,223.71z"/>
				</g>
				<g>
					<rect x="390.84" y="223.11" class="st11" width="1.2" height="11.76"/>
				</g>
				<g>
					
						<rect x="386.3" y="230.33" transform="matrix(0.7516 -0.6597 0.6597 0.7516 -55.6377 314.133)" class="st11" width="5.88" height="1.2"/>
				</g>
				<g>
					
						<rect x="392.99" y="228" transform="matrix(0.6598 -0.7514 0.7514 0.6598 -39.6407 374.3001)" class="st11" width="1.2" height="5.88"/>
				</g>
			</g>
		</g>
		<path class="st8" d="M399.59,278.32c0,0-2.65,0.93-6.44,1.73c-3.79,0.8-5.31,4.39-3.65,9.4c1.66,5.01,0.86,9.01,2.06,13.21
			c1.2,4.2,3.88,5,5.64,4.6c1.76-0.4,0.93-5.4,1.36-9.2c0.9-8,5-10,5-10L399.59,278.32z"/>
		<path class="st6" d="M439.42,257.05c12-2.07,18.15,4.06,17.97,12.85c-0.16,7.51-19.55,17.14-27.61,20.62
			C421.73,294,399,302.8,399,302.8l-5.41-26.99C393.59,275.81,427.42,259.11,439.42,257.05z"/>
		<path class="st5" d="M385.84,282.12c0,0,2.65,0.93,6.44,1.73c3.79,0.8,5.31,4.39,3.65,9.4c-1.66,5.01-0.86,9.01-2.06,13.21
			c-1.2,4.2-3.88,5-5.64,4.6c-1.76-0.4-0.93-5.4-1.36-9.2c-0.9-8-5-10-5-10L385.84,282.12z"/>
		<path class="st6" d="M343.19,257.05c-12-2.07-18.15,4.06-17.97,12.85c0.16,7.51,19.55,17.14,27.61,20.62
			c8.06,3.48,30.78,12.28,30.78,12.28l5.41-26.99C389.02,275.81,355.19,259.11,343.19,257.05z"/>
		<g>
			<ellipse class="st6" cx="385.26" cy="170.44" rx="3.76" ry="2.77"/>
			<path class="st6" d="M400.49,170.44c0,1.53-1.68,2.77-3.76,2.77c-2.08,0-3.76-1.24-3.76-2.77s1.68-2.77,3.76-2.77
				C398.8,167.68,400.49,168.92,400.49,170.44z"/>
			<g>
				<path class="st6" d="M394.65,170.86c-0.02-0.01-2.15-1.45-3.82-1.45c-1.67,0-3.77,1.44-3.79,1.45l-0.57-0.82
					c0.1-0.07,2.37-1.63,4.36-1.63c1.99,0,4.29,1.56,4.39,1.63L394.65,170.86z"/>
			</g>
			<g>
				
					<rect x="379.19" y="164.81" transform="matrix(0.4495 -0.8933 0.8933 0.4495 58.792 431.7317)" class="st6" width="1" height="6.72"/>
			</g>
			<g>
				
					<rect x="398.99" y="167.13" transform="matrix(0.9002 -0.4355 0.4355 0.9002 -32.7078 192.5412)" class="st6" width="9.41" height="1"/>
			</g>
		</g>
		<g>
			<path class="st9" d="M405.12,259.54c-0.53,0.15-1.21,0.42-1.81,0.78c-0.06-0.71-0.17-1.42-0.32-2.1
				c-0.22-0.98-0.71-1.9-1.87-1.69c-1.55,0.28-1.89,2.47-1.34,4.01c-0.83-0.2-1.71-0.02-2.27,0.72c-0.68,0.91-0.45,2.11,0.6,2.61
				c0.62,0.29,1.41,0.33,2.08,0.38c0.08,0.01,0.16,0.01,0.23,0.02c-0.76,1.5-0.61,3.43,1.36,3.85c2.43,0.51,3.34-2.08,2.78-4.1
				c1.64,0.07,3.43-1.04,3.22-2.85C407.62,259.78,406.38,259.18,405.12,259.54z"/>
			<circle class="st7" cx="403.01" cy="263.03" r="1.56"/>
			<path class="st9" d="M376.42,230.52c-0.53,0.15-1.21,0.42-1.81,0.78c-0.06-0.71-0.17-1.42-0.32-2.1
				c-0.22-0.98-0.71-1.9-1.87-1.69c-1.55,0.28-1.89,2.47-1.34,4.01c-0.83-0.2-1.71-0.02-2.27,0.72c-0.68,0.91-0.45,2.11,0.6,2.61
				c0.62,0.29,1.41,0.33,2.08,0.38c0.08,0.01,0.16,0.01,0.23,0.02c-0.76,1.5-0.61,3.44,1.36,3.85c2.43,0.51,3.34-2.08,2.78-4.1
				c1.64,0.07,3.43-1.04,3.22-2.85C378.92,230.75,377.68,230.16,376.42,230.52z"/>
			<circle class="st7" cx="374.31" cy="234" r="1.56"/>
			<path class="st9" d="M408.98,232.07c-0.53,0.15-1.21,0.42-1.81,0.78c-0.06-0.71-0.17-1.42-0.32-2.1
				c-0.22-0.98-0.71-1.9-1.87-1.69c-1.55,0.28-1.89,2.47-1.34,4.01c-0.83-0.2-1.71-0.02-2.27,0.72c-0.68,0.91-0.45,2.11,0.6,2.61
				c0.62,0.29,1.41,0.33,2.08,0.38c0.08,0.01,0.16,0.01,0.23,0.02c-0.76,1.5-0.61,3.43,1.36,3.85c2.43,0.51,3.34-2.08,2.78-4.1
				c1.64,0.07,3.43-1.04,3.22-2.85C411.48,232.31,410.24,231.71,408.98,232.07z"/>
			<circle class="st7" cx="406.87" cy="235.55" r="1.56"/>
			<path class="st9" d="M376.44,258.66c0.53,0.15,1.21,0.42,1.81,0.78c0.06-0.71,0.17-1.42,0.32-2.1c0.22-0.98,0.71-1.9,1.87-1.69
				c1.55,0.28,1.89,2.47,1.34,4.01c0.83-0.2,1.71-0.02,2.27,0.72c0.68,0.91,0.45,2.11-0.6,2.61c-0.62,0.29-1.41,0.33-2.08,0.38
				c-0.08,0.01-0.16,0.01-0.23,0.02c0.76,1.5,0.61,3.43-1.36,3.85c-2.43,0.51-3.34-2.08-2.78-4.1c-1.64,0.07-3.43-1.04-3.22-2.85
				C373.94,258.9,375.18,258.3,376.44,258.66z"/>
			<circle class="st7" cx="378.55" cy="262.15" r="1.56"/>
			<path class="st9" d="M375.39,244.18c0.37,0.42,0.79,1.01,1.09,1.64c0.44-0.56,0.92-1.1,1.41-1.59c0.72-0.71,1.63-1.21,2.49-0.4
				c1.15,1.08,0.24,3.1-1.06,4.09c0.81,0.28,1.45,0.91,1.51,1.84c0.08,1.14-0.77,2.02-1.92,1.86c-0.68-0.09-1.36-0.49-1.95-0.82
				c-0.07-0.04-0.14-0.08-0.21-0.11c-0.18,1.67-1.36,3.21-3.23,2.5c-2.32-0.89-1.67-3.56-0.11-4.95c-1.42-0.83-2.31-2.74-1.15-4.14
				C373.17,243.02,374.53,243.19,375.39,244.18z"/>
			<path class="st7" d="M373.96,247.4c-0.47,0.72-0.26,1.69,0.46,2.16c0.72,0.47,1.69,0.26,2.16-0.46c0.47-0.72,0.26-1.69-0.46-2.16
				C375.4,246.47,374.43,246.68,373.96,247.4z"/>
			<path class="st9" d="M406.44,245.62c0.37,0.42,0.79,1.01,1.09,1.64c0.44-0.56,0.92-1.1,1.41-1.59c0.72-0.71,1.63-1.21,2.49-0.4
				c1.15,1.08,0.24,3.1-1.06,4.09c0.81,0.28,1.45,0.91,1.51,1.84c0.08,1.14-0.77,2.02-1.92,1.86c-0.68-0.09-1.36-0.49-1.95-0.82
				c-0.07-0.04-0.14-0.08-0.21-0.11c-0.18,1.67-1.36,3.21-3.23,2.5c-2.32-0.89-1.67-3.56-0.11-4.95c-1.42-0.83-2.31-2.74-1.15-4.14
				C404.22,244.46,405.58,244.63,406.44,245.62z"/>
			<path class="st7" d="M405.01,248.85c-0.47,0.72-0.26,1.69,0.46,2.16c0.72,0.47,1.69,0.26,2.16-0.46
				c0.47-0.72,0.26-1.69-0.46-2.16C406.45,247.92,405.48,248.12,405.01,248.85z"/>
		</g>
	</g>
	<g>
		<path class="st10" d="M135.79,173.83l-6.5,14.87c0,0,6.83,9.19,19.04,8.94s16.29-7.85,16.29-7.85l-3.81-15.97H135.79z"/>
		<path class="st12" d="M106.54,228.63c0,0-2.25,10.7,0,19.13c2.25,8.43,9.33,14.28,10.82,4.68s1.94-24.8,1.94-24.8L106.54,228.63z"
			/>
		<g>
			<path class="st8" d="M148.33,189.79c2.61-0.07,4.62-2.08,6.08-4.38c-0.38-0.18-0.65-0.33-0.74-0.4
				c-0.32-3.39,0.03-7.32,0.03-7.32l-11.51-0.1c0,0-0.06,4.34-0.62,7.74c-0.13,0.1-0.4,0.24-0.76,0.4
				C141.72,187.18,144.02,189.9,148.33,189.79z"/>
			<path class="st5" d="M145.63,228.66c0.49-0.01,4.26-1.41,5.55-1.35c10.05,0.48,11.95-38.25,10.81-38.6
				c-0.49-0.15-5.61-2.33-7.58-3.29c-1.46,2.3-3.47,4.31-6.08,4.38c-4.3,0.11-6.61-2.61-7.53-4.06c-2.27,1.04-8.36,3.2-8.36,3.2
				C132.06,194.08,138.24,226.76,145.63,228.66z"/>
		</g>
		<g>
			<path class="st5" d="M163.3,163.42c-0.32-1.85-2.25-1.58-2.91-1.42c-0.88-7.78-5.45-12.68-11.54-12.9
				c-6.23-0.23-11.12,5.05-12.42,12.93c-0.62-0.2-2.5-0.62-3.03,1.2c-0.63,2.19,0.35,5.56,2.81,6.48c0.01,0,0.01,0,0.02,0.01
				c0.16,1.4,0.45,2.74,0.94,3.91c2.43,5.78,7.05,10.24,10.4,10.36c3.43,0.12,7.98-3.77,10.78-9.59c0.55-1.14,1.16-3.33,1.54-4.69
				C159.94,169.69,164.23,168.79,163.3,163.42z"/>
		</g>
		<g>
			<path class="st12" d="M113.81,272.15c5.64,5.34,18.23,13,26.44,13.61c8.84,0.66,17.71-1.27,26.28-3.25
				c2.97-0.69,13.12-8.01,16.04-8.86c-3.25-6.62-6.26-14.07-8.75-21.05h-51.12C120.82,258.95,118.12,265.45,113.81,272.15z"/>
			<path class="st12" d="M124.09,247.28h47.89c-0.68-2.05-1.3-4.02-1.86-5.87h-44.81C124.95,243.36,124.55,245.31,124.09,247.28z"/>
			<path class="st12" d="M172.6,227.08c5.05,0.38,10.13-2.47,13.91-7.08c-4.56-9.53-8.91-22.35-11.74-24.73
				c-2.66-2.24-8.34-4.78-12.77-6.57c-4.66,5.9-12.84,27.42-14.78,38.17c-3.76-16.12-8.71-30.8-14.3-38.13
				c-4.42,1.79-10.04,4.31-12.68,6.54c-2.59,2.18-6.68,14.42-11.09,23.51c2.09,4.52,7.16,7.39,13.55,7.62l4.54-10.28
				c0,0-0.1,6.59-0.1,14.16c-0.3,1.92-0.6,3.85-0.91,5.79h42.39c-0.61-2.31-1.06-4.28-1.32-5.79c0-7.12,0.47-14.16,0.47-14.16
				L172.6,227.08z"/>
			<path class="st13" d="M125.31,241.41h44.81c-0.57-1.91-1.08-3.7-1.51-5.32h-42.39C125.94,237.86,125.64,239.63,125.31,241.41z"/>
			<path class="st13" d="M122.69,252.6h51.12c-0.65-1.82-1.26-3.59-1.83-5.32h-47.89C123.68,249.04,123.22,250.82,122.69,252.6z"/>
		</g>
		<path class="st12" d="M188.44,228.63c0,0,2.25,10.7,0,19.13s-9.33,14.28-10.82,4.68c-1.49-9.6-1.94-24.8-1.94-24.8L188.44,228.63z
			"/>
		<rect x="127.13" y="224.98" class="st14" width="40.16" height="5.32"/>
		<path class="st5" d="M110.87,216.21c-3.29,4.11-0.58,1.18-7,7.61c-2.59,2.6-7.31,4.74-9.3,4.28c-11.11-2.57-18.29-3.43-21.65-7.49
			c-1.55-1.87,1.66-4.4-0.15-7.12c-3.03-4.56-5.9-6.61-5.98-4.7c-0.15,3.71,3.62,5.13,1.6,6.35c-2.02,1.21-7.56-0.21-6.59-4.06
			c0.7-2.78,3.49-1.99,4.13-3.51c1.05-2.5-3.31-2.48-6.13,0c-2.83,2.48-4.98,2.67-1.75,8.28c3.23,5.61,6.21,7.23,12.27,12.31
			s21.39,13.65,29.45,12.27c6.87-1.18,22.04-16.3,22.04-16.3L110.87,216.21z"/>
		<path class="st5" d="M184.23,216.21c3.29,4.11,0.58,1.18,7,7.61c2.59,2.6,7.31,4.74,9.3,4.28c11.11-2.57,18.29-3.43,21.65-7.49
			c1.55-1.87-1.66-4.4,0.15-7.12c3.03-4.56,5.9-6.61,5.98-4.7c0.15,3.71-3.62,5.13-1.6,6.35s7.56-0.21,6.59-4.06
			c-0.7-2.78-3.49-1.99-4.13-3.51c-1.05-2.5,3.31-2.48,6.13,0c2.83,2.48,4.98,2.67,1.75,8.28c-3.23,5.61-6.21,7.23-12.27,12.31
			c-6.06,5.07-21.39,13.65-29.45,12.27c-6.87-1.18-22.04-16.3-22.04-16.3L184.23,216.21z"/>
		<path class="st14" d="M109.85,217.41c0,0,5.29,10.7,5.69,19.68c0.4,8.99,1.2,13.6,0.69,18.86c4.42-7.36,8.63-34.45,8.63-34.45
			l-13.89-6.68L109.85,217.41z"/>
		<path class="st14" d="M185.13,217.41c0,0-5.29,10.7-5.69,19.68c-0.4,8.99-1.2,13.6-0.69,18.86c-4.42-7.36-8.63-34.45-8.63-34.45
			l13.89-6.68L185.13,217.41z"/>
		<g>
			<path class="st8" d="M158,279.82c0,0-2.65,0.93-6.44,1.73c-3.79,0.8-5.31,4.39-3.65,9.4c1.66,5.01,0.86,9.01,2.06,13.21
				c1.2,4.2,3.88,5,5.64,4.6c1.76-0.4,0.93-5.4,1.36-9.2c0.9-8,5-10,5-10L158,279.82z"/>
		</g>
		<g>
			<path class="st5" d="M136.29,275.15c0,0,7.17,7.59,10.96,8.39c3.79,0.8,5.31,4.39,3.65,9.4c-1.66,5.01-0.86,9.01-2.06,13.21
				c-1.2,4.2-3.88,5-5.64,4.6c-1.76-0.4-0.93-5.4-1.36-9.2c-0.9-8-10.55-15.66-10.55-15.66L136.29,275.15z"/>
		</g>
		<path class="st13" d="M93.04,254.64c-6.73,3.43-8.57,11.98-5.5,17.76c5.5,10.34,0.3,9.35,4.75,14.5c4.75,5.5-1.04,6.37-1,9.25
			c0.14,9.62,21.88,13.07,33.57,9.5c11.68-3.57,5.92-17.07,19.93-20c14.01-2.93,19.5,12.86,25.33,16.25
			c5.83,3.39,18.57,6.07,29.42-2.57c8.06-6.42-8.32-6.83-0.32-10.01s2.87-7.52,8.8-15.93c6.15-8.73-4.48-23.5-15.73-20.8
			c-5.75,1.38-30.15,11.28-43.38,11.28C135.67,263.88,106.54,247.76,93.04,254.64z"/>
		<path class="st4" d="M139.5,276.52c-8.7,2.54-15.5,5.96-25.1,4.54c-8.58-1.27-16.86-8.66-22.72-10.32
			C98.87,281.99,118.17,294.7,139.5,276.52z"/>
		<path class="st4" d="M138.17,283.15c-5.93,2.69-9.99,5.64-15.82,8.61c-7.25,3.69-15.05,4.14-21.77,1.9
			C111.8,304.53,125.28,298.56,138.17,283.15z"/>
		<path class="st4" d="M157.26,276.52c8.7,2.54,15.5,5.96,25.1,4.54c8.58-1.27,16.86-8.66,22.72-10.32
			C197.89,281.99,178.6,294.7,157.26,276.52z"/>
		<path class="st4" d="M158.6,283.15c5.93,2.69,9.99,5.64,15.82,8.61c7.26,3.69,15.05,4.14,21.77,1.9
			C184.96,304.53,171.48,298.56,158.6,283.15z"/>
		<g>
			<g>
				<path class="st6" d="M151.41,168.22c-0.02-0.01-2.15-1.45-3.82-1.45c-1.67,0-3.77,1.44-3.79,1.45l-0.57-0.82
					c0.1-0.07,2.37-1.63,4.36-1.63c1.99,0,4.29,1.56,4.39,1.63L151.41,168.22z"/>
			</g>
			<g>
				
					<rect x="135.95" y="162.17" transform="matrix(0.4495 -0.8933 0.8933 0.4495 -72.7468 213.0015)" class="st6" width="1" height="6.72"/>
			</g>
			<g>
				
					<rect x="155.76" y="164.49" transform="matrix(0.9002 -0.4355 0.4355 0.9002 -55.8358 86.3481)" class="st6" width="9.41" height="1"/>
			</g>
			<ellipse class="st12" cx="142.02" cy="167.8" rx="3.76" ry="2.77"/>
			<ellipse class="st12" cx="153.48" cy="167.8" rx="3.76" ry="2.77"/>
		</g>
		<path class="st10" d="M168.26,192.77c4.25-0.6,7.67-3.39,2.27-10.5c-3.56-4.69-1.49-15.74-7.49-22.35
			c0.39-5.78-1.92-9.87-3.12-10.84c-4.23-3.39-17.38-5.44-24.62,0.68c-2.01,1.7-3.38,3.38-2.87,10.15
			c-5.29,7.47-4.01,17.66-7.56,22.35c-5.4,7.11-1.98,9.9,2.27,10.5c2.81,0.4,3,4.88,0,9c-3.76,5.17,3.06,15.33,11.04,11.38
			c-6.35-2.42-4.88-8-2.15-12c2.73-4,7.57-8,4.78-11.35c-2.79-3.35-5.26-4.38-1.92-9.24c3.08-4.47,5.11-5.21-1.09-9.91
			c-1.73-1.31-1.74-5.64,1.5-9c2.62-2.71,7.92-1.88,9.05-5.84c2.7,3.84,6.38,3.25,8.7,5.97c2.97,3.48,2.32,7.54,0.56,8.88
			c-6.2,4.7-4.17,5.44-1.09,9.91c3.34,4.85,0.87,5.89-1.92,9.24c-2.79,3.35,2.05,7.35,4.78,11.35c2.73,4,4.2,9.58-2.15,12
			c7.98,3.95,14.8-6.21,11.04-11.38C165.26,197.65,165.45,193.17,168.26,192.77z"/>
		<rect x="132.04" y="155.42" class="st13" width="31.39" height="4.51"/>
	</g>
</g>
<g id="Humans">
	<g>
		<path class="st8" d="M645.93,193.24c-2.82-0.87-4.52-1.3-5.82-2.58c-0.76-2.85-0.28-9.05-0.28-9.05h-12.13c0,0,0.48,6.2-0.28,9.05
			c-1.3,1.28-3,1.71-5.82,2.58c-0.51,8.36,7.53,12.63,11.79,13.1v0.05c0.12,0,0.25-0.02,0.37-0.02c0.12,0.01,0.26,0.02,0.37,0.02
			v-0.05C638.4,205.87,646.44,201.6,645.93,193.24z"/>
		<path class="st15" d="M610.36,287.84h47.14l-1.83-63.86c0,0,7.65,20.36,12.63,24.53c-1.38-6.9,9.56-17.73,11.81-20.12
			c-4.34-9.59-12.04-22.46-15.61-26.52c-3.32-3.76-10.31-6.4-15.02-7.82c-0.42-0.13-0.82-0.25-1.2-0.35c-2.1-0.6-3.51-0.9-3.51-0.9
			s-1.54,7.15-10.84,7.15c-7.94,0-10.84-7.15-10.84-7.15s-1.2,0.26-3.01,0.77c-0.38,0.1-0.78,0.22-1.2,0.35
			c-4.69,1.39-12.08,4.07-15.51,7.97c-3.57,4.06-11.58,18.4-16.83,26.52c3.2,2.97,9.9,18.08,7.45,22.73
			c9.9-1.56,16.36-24.9,16.36-24.9L610.36,287.84z"/>
		<path class="st16" d="M609.95,197.28c2.34,5.85,6.14,12.75,24.56,12.75c18.42,0,24.46-5.37,26.15-11.25
			c-6.23-4.38-16.72-6.33-16.72-6.33s0.16,6.26-9.44,6.26c-9.6,0-9.37-6.62-9.37-6.62S616.51,194.39,609.95,197.28z"/>
		<path class="st6" d="M620.64,242.01c0,0,6.83,2.98,12.83,2.98c6.01,0,16.39-3.38,16.39-3.38l-1.51,6.44c0,0-7.06,1.5-14.88,1.5
			c-7.82,0-12.83-3.33-12.83-3.33V242.01z"/>
		<path class="st10" d="M635.57,259.45c0,1.12-0.91,2.03-2.03,2.03s-2.03-0.91-2.03-2.03s0.91-2.03,2.03-2.03
			S635.57,258.33,635.57,259.45z"/>
		<g>
			
				<rect x="628.65" y="191.56" transform="matrix(0.9544 -0.2985 0.2985 0.9544 -33.178 197.262)" class="st6" width="1.2" height="31.4"/>
		</g>
		<g>
			
				<rect x="622.99" y="206.66" transform="matrix(0.2986 -0.9544 0.9544 0.2986 250.1482 754.8995)" class="st6" width="31.4" height="1.2"/>
		</g>
		<g>
			<g>
				<path class="st11" d="M633.93,234.6c-3.57,0-6.48-2.91-6.48-6.48c0-3.57,2.91-6.48,6.48-6.48c3.57,0,6.48,2.91,6.48,6.48
					C640.42,231.7,637.51,234.6,633.93,234.6z M633.93,222.84c-2.91,0-5.28,2.37-5.28,5.28s2.37,5.28,5.28,5.28s5.28-2.37,5.28-5.28
					S636.85,222.84,633.93,222.84z"/>
			</g>
			<g>
				<rect x="633.33" y="222.24" class="st11" width="1.2" height="11.76"/>
			</g>
			<g>
				
					<rect x="628.79" y="229.46" transform="matrix(0.7516 -0.6597 0.6597 0.7516 5.1813 473.8791)" class="st11" width="5.88" height="1.2"/>
			</g>
			<g>
				
					<rect x="635.48" y="227.12" transform="matrix(0.6598 -0.7514 0.7514 0.6598 43.501 556.2141)" class="st11" width="1.2" height="5.88"/>
			</g>
		</g>
		<g>
			<path class="st11" d="M633.47,203.35c-8.79,0-11.23-10.36-11.26-10.46l0.98-0.22c0.02,0.1,2.29,9.68,10.28,9.68
				c0.03,0,0.05,0,0.07,0c8.55-0.06,10.73-9.58,10.75-9.68l0.98,0.21c-0.02,0.1-2.38,10.4-11.72,10.46
				C633.52,203.35,633.49,203.35,633.47,203.35z"/>
		</g>
		<g>
			<path class="st9" d="M651.46,269.03c2.32-3.3,5.93-5.33,11.62-6.78c5.7-1.46,8.18-3.17,9.57-7.19
				c2.82-8.13-7.74-29.38-23.89-32.58c-4.16-0.83-6.63,1.97-9.73,6.97c-3.1,4.99-4.85,6.74-10.52,8.28
				c-3.74,1.01-16.6,2.75-24.93,10.17c-8.33,7.42-6.12,16.04-3.07,22.99c2.99,6.82,5.91,10.81,11.46,15.63
				c5.73,4.98,13.27,9.7,22.85,3.98C644.41,284.8,649.23,272.2,651.46,269.03z"/>
			
				<ellipse transform="matrix(0.9316 -0.3635 0.3635 0.9316 -46.0279 252.3337)" class="st6" cx="647.48" cy="248.47" rx="8.4" ry="8.4"/>
			
				<rect x="675.61" y="191.68" transform="matrix(0.5913 0.8064 -0.8064 0.5913 459.0484 -456.473)" class="st10" width="8.59" height="66.03"/>
			
				<rect x="616.56" y="261.16" transform="matrix(0.5913 0.8064 -0.8064 0.5913 468.5139 -399.1363)" class="st10" width="23.03" height="3.09"/>
			<polygon class="st10" points="720.28,196.55 718.82,194.56 715.39,189.88 704.03,198.21 699.59,204.76 701.86,207.85 
				702.5,208.73 704.77,211.82 712.35,209.56 723.71,201.23 			"/>
			<g>
				<path class="st6" d="M723.53,205.84l-1.28-1.75c-0.1-0.14-0.07-0.34,0.07-0.44l1.13-0.83c0.14-0.1,0.34-0.07,0.44,0.07
					l1.28,1.75c0.1,0.14,0.07,0.34-0.07,0.44l-1.13,0.83C723.83,206.01,723.63,205.98,723.53,205.84z"/>
				<path class="st6" d="M712.24,190.44l-1.28-1.75c-0.1-0.14-0.07-0.34,0.07-0.44l1.13-0.83c0.14-0.1,0.34-0.07,0.44,0.07
					l1.28,1.75c0.1,0.14,0.07,0.34-0.07,0.44l-1.13,0.83C712.53,190.61,712.34,190.58,712.24,190.44z"/>
				<path class="st6" d="M719.96,208.46l-1.28-1.75c-0.1-0.14-0.07-0.34,0.07-0.44l1.13-0.83c0.14-0.1,0.34-0.07,0.44,0.07
					l1.28,1.75c0.1,0.14,0.07,0.34-0.07,0.44l-1.13,0.83C720.25,208.63,720.06,208.6,719.96,208.46z"/>
				<path class="st6" d="M716.13,211.26l-1.28-1.75c-0.1-0.14-0.07-0.34,0.07-0.44l1.13-0.83c0.14-0.1,0.34-0.07,0.44,0.07
					l1.28,1.75c0.1,0.14,0.07,0.34-0.07,0.44l-1.13,0.83C716.43,211.43,716.23,211.4,716.13,211.26z"/>
				<path class="st6" d="M708.66,193.06l-1.28-1.75c-0.1-0.14-0.07-0.34,0.07-0.44l1.13-0.83c0.14-0.1,0.34-0.07,0.44,0.07
					l1.28,1.75c0.1,0.14,0.07,0.34-0.07,0.44l-1.13,0.83C708.96,193.23,708.77,193.2,708.66,193.06z"/>
				<path class="st6" d="M704.84,195.87l-1.28-1.75c-0.1-0.14-0.07-0.34,0.07-0.44l1.13-0.83c0.14-0.1,0.34-0.07,0.44,0.07
					l1.28,1.75c0.1,0.14,0.07,0.34-0.07,0.44l-1.13,0.83C705.14,196.03,704.94,196,704.84,195.87z"/>
			</g>
			<g>
				<path class="st11" d="M710.2,196.85c0.34,0.46,0.98,0.56,1.45,0.22c0.46-0.34,0.56-0.99,0.22-1.45
					c-0.34-0.46-0.99-0.56-1.45-0.22C709.96,195.75,709.86,196.39,710.2,196.85z"/>
				<path class="st11" d="M717.39,203.16c-0.34-0.46-0.98-0.56-1.45-0.22c-0.46,0.34-0.56,0.99-0.22,1.45
					c0.34,0.46,0.98,0.56,1.45,0.22C717.63,204.27,717.73,203.62,717.39,203.16z"/>
				<path class="st11" d="M713.99,205.66c-0.34-0.46-0.98-0.56-1.45-0.22c-0.17,0.12-0.27,0.3-0.34,0.48l-5.03,0.48l-78.29,57.41
					l-0.55-0.75l79.94-58.62l11.03-2.63c0.34,0.43,0.96,0.52,1.41,0.19c0.46-0.34,0.56-0.99,0.22-1.45
					c-0.34-0.46-0.98-0.56-1.45-0.22c-0.21,0.16-0.34,0.38-0.39,0.62l-10.11,2.41l5.47-8.7c0.25,0.03,0.51-0.03,0.73-0.19
					c0.46-0.34,0.56-0.99,0.22-1.45c-0.34-0.46-0.99-0.56-1.45-0.22c-0.44,0.32-0.54,0.93-0.25,1.38l-5.97,9.54l-79.94,58.62
					l-0.56-0.77l78.26-57.39l2.13-4.44c0.21,0,0.42-0.05,0.61-0.18c0.46-0.34,0.56-0.98,0.22-1.45c-0.34-0.46-0.98-0.56-1.45-0.22
					c-0.46,0.34-0.56,0.98-0.22,1.45c0.01,0.01,0.03,0.02,0.04,0.03l-2.03,4.23l-78.08,57.26l-1.57-2.14l-0.55,0.41l5.76,7.86
					l0.55-0.41l-1.52-2.07l78.09-57.26l4.78-0.46c0.02,0.03,0.02,0.06,0.04,0.09c0.34,0.46,0.99,0.56,1.45,0.22
					C714.22,206.76,714.32,206.12,713.99,205.66z"/>
			</g>
			<path class="st6" d="M657.24,249.97c-0.51,2.13-2.33,5.13-4.41,6.36c-3.39,2.01-5.36,2.04-9.06,1.28
				c-4.7-0.96-2.39,8.26,2.77,9.28c3.91,0.78,9.01-3.69,11.97-7.14c2.26-2.63,2.44-5.93,1.87-8.66
				C659.76,248.13,657.66,248.24,657.24,249.97z"/>
		</g>
		<path class="st8" d="M642.08,277.45c0,0-2.65,0.93-6.44,1.73c-3.79,0.8-5.31,4.39-3.65,9.4c1.66,5.01,0.86,9.01,2.06,13.21
			c1.2,4.2,3.88,5,5.64,4.6c1.76-0.4,0.93-5.4,1.36-9.2c0.9-8,5-10,5-10L642.08,277.45z"/>
		<path class="st17" d="M680.11,257.43c12-2.07,17.92,4.08,17.74,12.87c-0.16,7.51-19.35,16.72-27.4,20.2
			c-8.06,3.48-15.85,10.3-24.81,15.99c-5.23-6.7-9.56-31.54-9.56-31.54S668.1,259.49,680.11,257.43z"/>
		<path class="st5" d="M628.33,281.25c0,0,2.65,0.93,6.44,1.73c3.79,0.8,5.31,4.39,3.65,9.4c-1.66,5.01-0.86,9.01-2.06,13.21
			c-1.2,4.2-3.88,5-5.64,4.6c-1.76-0.4-0.93-5.4-1.36-9.2c-0.9-8-5-10-5-10L628.33,281.25z"/>
		<path class="st17" d="M585.68,256.18c-12-2.07-15.77,2.08-15.58,10.87c0.16,7.51,11.5,14.09,20,20.8
			c6.89,5.44,21.75,10,32.5,18.65c11.45-4.69,8.92-31.54,8.92-31.54s-15.71-1.7-27.17-9.9C596.1,259.14,590.08,256.93,585.68,256.18
			z"/>
		<path class="st16" d="M620.64,161.56c0,0-4.8,1.94-8.36,3.77c-3.56,1.83-6.69,1.83-6.69,1.83s-0.42,3.38,4.35,3.38
			c4.77,0,10.07-4.49,10.07-4.49s-3.92,4.99-5.42,7.86s3.12,8.38,3.12,8.38S624.69,168.21,620.64,161.56z"/>
		<path class="st5" d="M645.64,168.76c0,8.77-5.42,15.89-12.1,15.89c-6.68,0-12.1-7.11-12.1-15.89c0-8.77,5.42-15.89,12.1-15.89
			C640.22,152.87,645.64,159.98,645.64,168.76z"/>
		<path class="st10" d="M624.61,161.9c0,0,1.02,18.38-0.25,24.63c-1.27,6.25-0.37,30.3-0.37,30.3s-6.5-1.54-10.64-5.79
			c-0.14-9.25,5.82-48.58,5.82-48.58L624.61,161.9z"/>
		<path class="st10" d="M642.6,162.47c0,0-1.95,17.82-0.68,24.07c1.27,6.25,0.37,30.3,0.37,30.3s6.5-1.54,10.64-5.79
			c0.14-9.25-6.39-50.93-6.39-50.93L642.6,162.47z"/>
		<path class="st15" d="M619.17,162.47c0,0,8.64,2.87,15.16,2.87c6.52,0,12.78-1.53,12.78-1.53v-6.02h-27.93V162.47z"/>
		<path class="st10" d="M619.17,157.79c0,0,1.25-9.08,14.26-9.08s13.68,9.08,13.68,9.08H619.17z"/>
		<path class="st5" d="M593.53,223.54c0,0-4.53,6.95-7.15,11.69c-1.46,2.65,0.52,5.05,2.93,11.81c1.52,4.26,21.25,17.17,26.47,18.95
			s14,3.73,15.42,2.57c3.39-2.78,10.01-7.69,6.49-10.73c-3.51-3.03-17.34-1.21-19.96-1.67c-2.63-0.46-16.51-15.98-16.51-15.98
			l3.33-4.3L593.53,223.54z"/>
		<path class="st16" d="M691.68,243.46c1.83-4.5,0.84-12.83-3.17-14.67c-4.01-1.84-4.73-1.62-4.73-1.62s-5.11,11.29-2.27,15.12
			C684.35,246.12,691.68,243.46,691.68,243.46z"/>
		<path class="st5" d="M669.45,239.77c0,0,3.53,5.52,7.6,7.04c4.07,1.53,7.21,0,10.19-4.12c4.5-6.23,10.02-21.26,10.03-23.33
			c0.03-5.75-2.2-11.24-6.58-11.78c-4.39-0.54-6.27,2.92-5.17,6.14c0.91,2.66,2.35,9.07,2.35,9.07l-6.89,8.53l-0.77-1.52
			l-11.56,8.48L669.45,239.77z"/>
		<path class="st15" d="M592.16,219.28c0,0-5.64,8.72-6.98,10.78c-1.33,2.06-0.33,6.4,0,9.23c0.33,2.83,3.53,10.65,6.17,14
			c10.5,13.33,23.67,17.83,23.67,17.83s4.49-13.62,4.16-18.62c-8.67-9.5-13.32-15.38-13.32-15.38L592.16,219.28z"/>
		<path class="st15" d="M683.79,227.17c0,0-0.11,9.02,2.89,12.9c3,3.88,5,3.38,5,3.38s-5.02,12.2-12.9,10.46
			c-5.33-1.18-10.14-15.64-10.14-15.64L683.79,227.17z"/>
		<polygon class="st16" points="605.85,237.12 597.77,232.45 608.26,232.45 		"/>
		<path class="st16" d="M619.17,157.79l0.02,2.32c0,0,14.34,1.78,19.5,1.79c5.16,0.01,8.42-0.34,8.42-0.34v-3.77H619.17z"/>
	</g>
</g>
</svg>
